<?xml version="1.0" encoding="utf-8"?>
<!-- Generator: Adobe Illustrator 28.0.0, SVG Export Plug-In . SVG Version: 6.00 Build 0)  -->
<svg version="1.1" id="_レイヤー_1" xmlns="http://www.w3.org/2000/svg" xmlns:xlink="http://www.w3.org/1999/xlink" x="0px"
	 y="0px" viewBox="0 0 799.3 884.7" style="enable-background:new 0 0 799.3 884.7;" xml:space="preserve">
<polygon points="0,316.9 0,332.5 0,346.1 0,352 0,372.5 0,381.2 0,392 0,407.6 0,422.2 0,427.1 0,457.3 41,420.4 41,390.1 41,385.2 
	41,370.6 41,355 41,344.3 41,335.5 41,315 41,309.2 41,295.5 41,279.9 41,260.4 0,297.4 "/>
<polygon points="126.4,307.1 126.4,313.9 126.4,322.7 126.4,326.6 126.4,333.4 126.4,342.2 126.4,346.1 126.4,349 126.4,352.9 
	126.4,361.7 126.4,368.5 126.4,372.4 126.4,381.2 126.4,388 126.4,407.5 167.3,370.6 167.3,351.1 167.3,344.3 167.3,335.5 
	167.3,331.6 167.3,324.8 167.3,316 167.3,312.1 167.3,309.2 167.3,305.3 167.3,296.5 167.3,289.7 167.3,285.8 167.3,277 
	167.3,270.2 167.3,250.7 126.4,287.6 "/>
<polygon points="189.6,306.9 189.6,307.1 189.6,322.7 189.6,326.4 189.6,326.6 189.6,342 189.6,342.2 189.6,345.9 189.6,346.1 
	189.6,361.5 189.6,361.7 189.6,365.4 189.6,381 189.6,381.2 189.6,400.5 230.5,363.6 230.5,344.3 230.5,344.1 230.5,328.5 
	230.5,324.8 230.5,324.6 230.5,309.2 230.5,309 230.5,305.3 230.5,305.1 230.5,289.7 230.5,289.4 230.5,285.8 230.5,270.2 
	230.5,269.9 230.5,250.7 189.6,287.6 "/>
<polygon points="252.8,232.8 252.8,234 252.8,249.6 252.8,251.1 252.8,252.3 252.8,267.9 252.8,269.1 252.8,269.3 252.8,270.6 
	252.8,286.2 252.8,287.4 252.8,287.6 252.8,288.9 252.8,304.5 252.8,305.7 252.8,307.1 252.8,311.1 252.8,322.7 252.8,324 
	252.8,330.6 252.8,341.6 252.8,342.2 252.8,346.2 252.8,361.1 252.8,365.7 252.8,372.2 252.8,376.8 252.8,391.7 252.8,396.3 
	252.8,402.7 252.8,407.3 252.8,422.2 252.8,426.8 252.8,437.8 252.8,457.3 293.7,420.4 293.7,400.9 293.7,389.8 293.7,385.2 
	293.7,370.3 293.7,365.8 293.7,359.3 293.7,354.7 293.7,339.8 293.7,335.2 293.7,328.8 293.7,324.2 293.7,309.3 293.7,305.3 
	293.7,304.7 293.7,293.7 293.7,287 293.7,285.8 293.7,274.2 293.7,270.2 293.7,268.7 293.7,267.5 293.7,251.9 293.7,250.7 
	293.7,250.4 293.7,249.2 293.7,233.6 293.7,232.4 293.7,232.2 293.7,230.9 293.7,215.3 293.7,214.1 293.7,212.7 293.7,197.1 
	293.7,195.8 293.7,177.6 252.8,214.5 "/>
<polygon points="252.8,40.9 252.8,62.3 252.8,76 252.8,95.3 252.8,97.5 252.8,116.7 252.8,130.4 252.8,138.8 252.8,151.9 
	252.8,160.2 252.8,173.9 252.8,182.2 252.8,188.8 293.7,151.8 293.7,145.3 293.7,136.9 293.7,123.3 293.7,114.9 293.7,101.8 
	293.7,93.4 293.7,79.8 293.7,60.5 293.7,58.3 293.7,39 293.7,25.4 293.7,3.9 "/>
<polygon points="104.1,403.8 104.1,387.2 104.1,385.2 104.1,370.6 104.1,368.7 104.1,354.1 104.1,352.1 104.1,337.5 104.1,335.5 
	104.1,320.9 104.1,318.9 104.1,304.3 104.1,302.4 104.1,287.7 104.1,285.8 104.1,269.2 104.1,252.6 63.2,289.6 63.2,306.1 
	63.2,322.7 63.2,324.7 63.2,339.3 63.2,341.3 63.2,355.9 63.2,357.8 63.2,372.5 63.2,374.4 63.2,389.1 63.2,391 63.2,405.6 
	63.2,407.6 63.2,422.2 63.2,424.2 63.2,440.7 63.2,457.3 104.1,420.4 104.1,420.3 252.3,420.3 252.3,414.5 104.1,414.5 "/>
<path d="M167.3,218.5v-168l-40,36.1h-23.2V50.5l-41,36.9V272l36.7-33.1h26.5V272l41-37L167.3,218.5L167.3,218.5z M126.4,92.4v140.7
	h-22.2V92.4L126.4,92.4L126.4,92.4z"/>
<polygon points="190.1,40.4 189.6,40.9 189.6,195 189.6,230.1 189.6,236.9 189.6,272 230.5,235.1 230.5,200 230.5,193.1 230.5,158 
	230.5,40.4 247.2,40.4 247.2,34.6 230.5,34.6 230.5,3.9 196.6,34.6 41,34.6 41,26.4 41,3.9 0,40.9 0,63.3 0,249.6 0,272 41,235.1 
	41,212.6 41,40.4 "/>
<path d="M799.3,38.1v-2.9v-0.1V0l-35.8,32.3l-27.4,0.1V0l-35.9,32.4l-27.3,0.1V0l-41,36.9v416.4l41-37v-0.9h22.2v37.9l41-37V38.2
	l22.2,0v415.3l41-37L799.3,38.1L799.3,38.1L799.3,38.1z M695.1,53.5v356.1h-22.2V38.3l22.2,0V53.5L695.1,53.5z"/>
<polygon points="570.2,71 546.5,71 546.5,65.6 546.5,61.7 546.5,51.9 546.5,46.1 546.5,42.2 546.5,26.6 546.5,7.1 505.5,44 
	505.5,63.5 505.5,71 489.5,71 489.5,76.8 505.5,76.8 505.5,79.1 505.5,83 505.5,88.9 505.5,98.6 505.5,102.5 505.5,108.4 
	505.5,118.1 505.5,123.1 505.5,124 505.5,127.9 505.5,132.8 505.5,137.6 505.5,142.6 505.5,143.5 505.5,147.4 505.5,158.2 
	505.5,162.1 505.5,163 505.5,167.9 505.5,168 505.5,177.6 505.5,177.7 505.5,181.6 505.5,182.5 505.5,187.5 505.5,197.2 
	505.5,203.1 505.5,207 505.5,211.9 505.5,212.7 505.5,216.7 505.5,222.6 505.5,226.5 505.5,242.1 505.5,247 505.5,256.7 
	505.5,261.6 505.5,288.4 505.5,291.8 505.5,307.9 505.5,323.5 505.5,327.4 505.5,333.2 505.5,343 505.5,346.9 505.5,352.7 
	505.5,362.5 505.5,368.3 505.5,372.2 505.5,377.1 505.5,382 505.5,387.8 505.5,391.7 505.5,407.3 505.5,412.2 505.5,422 
	505.5,426.8 505.5,457.1 546.5,420.1 546.5,389.9 546.5,385 546.5,375.3 546.5,370.4 546.5,354.8 546.5,350.9 546.5,345 
	546.5,340.1 546.5,335.3 546.5,331.4 546.5,325.5 546.5,315.8 546.5,309.9 546.5,306 546.5,296.3 546.5,290.4 546.5,286.5 
	546.5,270.9 546.5,254.9 546.5,251.4 546.5,224.6 546.5,219.8 546.5,210 546.5,205.1 546.5,189.5 546.5,185.6 546.5,179.8 
	546.5,175.8 546.5,174.9 546.5,170 546.5,166.1 546.5,160.3 546.5,150.5 546.5,145.5 546.5,144.7 546.5,140.8 546.5,140.7 
	546.5,131 546.5,130.9 546.5,126 546.5,125.2 546.5,121.3 546.5,110.4 546.5,106.5 546.5,105.7 546.5,100.7 546.5,95.8 546.5,90.9 
	546.5,87 546.5,86.2 546.5,81.2 546.5,76.8 568.7,76.8 568.7,212.3 568.7,226.4 568.7,231.8 568.7,247.4 568.7,251.3 568.7,257.1 
	568.7,261.5 568.7,266.9 568.7,268.4 568.7,270.8 568.7,276.7 568.7,286.4 568.7,288.4 568.7,292.3 568.7,296.2 568.7,301 
	568.7,303.5 568.7,305.9 568.7,307.9 568.7,311.8 568.7,315.7 568.7,323.5 568.7,327.4 568.7,331.3 568.7,333.2 568.7,336.1 
	568.7,343 568.7,345.9 568.7,346.9 568.7,350.8 568.7,352.7 568.7,362.5 568.7,368.3 568.7,372.2 568.7,377.1 568.7,381 568.7,382 
	568.7,387.8 568.7,391.7 568.7,407.3 568.7,412.2 568.7,422 568.7,426.8 568.7,457.1 609.7,420.1 609.7,389.9 609.7,385 
	609.7,375.3 609.7,370.4 609.7,354.8 609.7,350.9 609.7,345 609.7,344.1 609.7,340.1 609.7,335.3 609.7,331.4 609.7,325.5 
	609.7,315.8 609.7,313.8 609.7,309.9 609.7,309 609.7,306 609.7,299.2 609.7,296.3 609.7,294.3 609.7,290.4 609.7,286.5 
	609.7,278.7 609.7,274.8 609.7,270.9 609.7,269 609.7,266.5 609.7,264.1 609.7,259.2 609.7,255.3 609.7,251.4 609.7,249.5 
	609.7,239.7 609.7,233.9 609.7,231.4 609.7,230 609.7,224.6 609.7,220.2 609.7,214.4 609.7,210.5 609.7,194.8 609.7,189.5 
	609.7,175.3 609.7,35.4 "/>
<path d="M420.1,49.5V22.2h25.3v-5.8H344.2v5.8h72.7l-30.2,27.3H316v5.9h64.2l-1,0.9v47.9h-22.2v-37L316,104v0.1l0,0v5.9l0,0v117.8
	l0,0v5.9l0,0v118.4l0,0v5.9l0,0v36.9l40.9-36.9h22.3v23.9h-15.4v5.9h15.4v28.4h-22.2v-40.8L316,412v45l39.1-35.3h87.3v35.3l41-37
	v-45l-41,36.9v3.9h-22.2v-28.4h15.4v-5.9h-15.4v-23.9h22.2v36.4l41-37V67.1l-41,36.9v0.1h-22.2V55.3h22.2v33.1l41-36.9V16.4
	l-36.7,33.1H420.1L420.1,49.5z M356.9,149v-39h22.2v117.8h-22.2L356.9,149L356.9,149z M356.9,275.8v-42.2h22.2v118.4h-22.2
	L356.9,275.8L356.9,275.8z M420.1,351.9V233.5h22.2v118.4H420.1z M442.3,120.6v107.1h-22.2V109.9h22.2V120.6L442.3,120.6z"/>
<polygon points="761.9,486.5 672.9,486.5 672.9,484.8 672.9,476 672.9,469.2 672.9,465.3 672.9,456.5 672.9,449.7 672.9,430.2 
	631.9,467.1 631.9,486.5 546.5,486.5 546.5,454.8 505.5,491.7 505.5,595.1 505.5,614.6 505.5,630.2 505.5,643.8 505.5,649.7 
	505.5,657.8 505.5,670.2 505.5,678.9 505.5,680.3 505.5,689.7 505.5,705.3 505.5,719.9 505.5,724.8 505.5,755 546.5,718.1 
	546.5,687.8 546.5,683 546.5,668.3 546.5,652.7 546.5,643.3 546.5,642 546.5,633.2 546.5,620.9 546.5,612.8 546.5,606.9 
	546.5,593.2 546.5,577.6 546.5,558.1 546.5,492.4 631.9,492.4 631.9,493.4 631.9,502.3 631.9,506.2 631.9,512.9 631.9,521.8 
	631.9,525.7 631.9,526.1 669.3,492.4 758.3,492.4 758.3,595.1 758.3,614.6 758.3,630.2 758.3,643.8 758.3,649.7 758.3,655.9 
	758.3,670.2 758.3,678.3 758.3,678.9 758.3,689.7 758.3,705.3 758.3,719.9 758.3,724.8 758.3,755 799.3,718.1 799.3,687.8 
	799.3,683 799.3,668.3 799.3,652.7 799.3,642 799.3,641.4 799.3,633.2 799.3,618.9 799.3,612.8 799.3,606.9 799.3,593.2 
	799.3,577.6 799.3,558.1 799.3,452.8 "/>
<path d="M609.7,528.8v-24.7l-41,37v34.4l0,0v159.9l40.5-36.6h85.8v36.6l41-36.9v-37l0,0V504.1L696.2,540h-86.5L609.7,528.8
	L609.7,528.8z M695.1,545.9v29.5l0,0v41.2h-85.4v-70.8H695.1z M609.7,692.9v-8l0,0v-62.5h85.4v70.4H609.7z"/>
<path d="M736.1,769.2v-51.5l-41,37v14.5h-85.4v-55.6l-41,36.9v18.6h-22.2v-33.1l-41,37v35.1l36.7-33.1h26.5v108.5l36.7-33.1h89.7
	v33.1l36.7-33.1h26.5v33.1l41-37v-35.1l-36.7,33.1h-26.5v-69.5h22.2v33.1l41-37v-35.1l-36.7,33.1H736.1z M695.1,781.9v62.7h-85.4
	v-69.5h85.4V781.9z"/>
<polygon points="167.3,591.5 167.3,584 167.3,573.5 126.4,610.4 126.4,621 126.4,629.9 126.4,635.9 126.4,640.5 126.4,645.5 
	126.4,646.5 126.4,649.4 126.4,655.3 126.4,655.4 126.4,656.1 126.4,660 126.4,665 126.4,665.8 126.4,666 126.4,668.9 126.4,671 
	126.4,674.8 126.4,674.9 126.4,675.6 126.4,679.5 126.4,680.8 126.4,681.6 126.4,684.5 126.4,685.3 126.4,685.5 126.4,689.5 
	126.4,690.4 126.4,690.5 126.4,691.3 126.4,693.6 126.4,694.3 126.4,694.4 126.4,695.1 126.4,699.2 126.4,700.1 126.4,700.2 
	126.4,701 126.4,701.1 126.4,704 126.4,704.2 126.4,704.9 126.4,705 126.4,709 126.4,709.7 126.4,709.9 126.4,710 126.4,710.8 
	126.4,713.1 126.4,713.8 126.4,714.6 126.4,715 126.4,715.9 126.4,719.1 126.4,719.6 126.4,719.8 126.4,720.5 126.4,720.6 
	126.4,723.7 126.4,724.4 126.4,724.6 126.4,724.6 126.4,725.6 126.4,726.4 126.4,728.5 126.4,728.8 126.4,729.4 126.4,729.5 
	126.4,729.7 126.4,730.3 126.4,732.7 126.4,734.3 126.4,734.4 126.4,734.5 126.4,735.2 126.4,735.2 126.4,735.4 126.4,738.5 
	126.4,738.6 126.4,739.1 126.4,739.3 126.4,739.3 126.4,740 126.4,740.1 126.4,743.2 126.4,744 126.4,744.1 126.4,744.8 
	126.4,744.9 126.4,745.1 126.4,745.9 126.4,748 126.4,748.2 126.4,748.9 126.4,749.1 126.4,749.2 126.4,749.8 126.4,750.1 
	126.4,752.2 126.4,753.9 126.4,754 126.4,754.2 126.4,754.6 126.4,754.7 126.4,754.9 126.4,758 126.4,758.1 126.4,758.6 
	126.4,758.8 126.4,759.5 126.4,759.7 126.4,759.8 126.4,760 126.4,760.7 126.4,762.7 126.4,764 126.4,764.4 126.4,764.6 
	126.4,764.8 126.4,765.4 126.4,767.8 126.4,768.6 126.4,768.7 126.4,769.5 126.4,769.6 126.4,770.3 126.4,770.4 126.4,770.6 
	126.4,772.7 126.4,773.5 126.4,773.6 126.4,773.7 126.4,774.4 126.4,774.6 126.4,777.5 126.4,777.6 126.4,778.3 126.4,779.3 
	126.4,780.1 126.4,780.2 126.4,782.4 126.4,783.3 126.4,783.5 126.4,784.1 126.4,784.2 126.4,784.3 126.4,784.9 126.4,785.5 
	126.4,787.3 126.4,788.1 126.4,788.2 126.4,789.9 126.4,792.2 126.4,793 126.4,793.1 126.4,793.2 126.4,794.1 126.4,796.1 
	126.4,797 126.4,797.8 126.4,798.2 126.4,799.1 126.4,802.8 126.4,803 126.4,803.7 126.4,803.8 126.4,807.6 126.4,807.8 
	126.4,807.9 126.4,808.8 126.4,809.7 126.4,811.7 126.4,812.6 126.4,812.7 126.4,813.6 126.4,817.5 126.4,817.6 126.4,817.7 
	126.4,818.4 126.4,818.4 126.4,818.6 126.4,822.3 126.4,822.5 126.4,823.2 126.4,823.3 126.4,827.2 126.4,827.3 126.4,828.1 
	126.4,828.2 126.4,828.3 126.4,829.2 126.4,831.2 126.4,832.1 126.4,833.1 126.4,833.3 126.4,837.1 126.4,837.2 126.4,837.8 
	126.4,837.9 126.4,838.1 126.4,841.8 126.4,842.7 126.4,843 126.4,843.1 126.4,843.3 126.4,843.9 126.4,847.7 126.4,847.8 
	126.4,848.7 126.4,852.7 126.4,852.8 126.4,853.5 126.4,853.6 126.4,853.8 126.4,856.7 126.4,857.6 126.4,862.6 126.4,863.3 
	126.4,863.4 126.4,867.3 126.4,868.2 126.4,868.7 126.4,873.1 126.4,879.3 167.3,842.4 167.3,836.2 167.3,831.8 167.3,831.2 
	167.3,830.3 167.3,826.4 167.3,826.3 167.3,825.6 167.3,820.7 167.3,819.8 167.3,816.9 167.3,816.7 167.3,816.6 167.3,815.9 
	167.3,815.8 167.3,811.7 167.3,810.8 167.3,810.7 167.3,806.9 167.3,806.3 167.3,806.1 167.3,806 167.3,805.7 167.3,804.9 
	167.3,801.1 167.3,801 167.3,800.9 167.3,800.3 167.3,800.2 167.3,796.4 167.3,796.1 167.3,795.2 167.3,794.3 167.3,792.2 
	167.3,791.3 167.3,791.2 167.3,791.1 167.3,790.4 167.3,790.3 167.3,786.4 167.3,786.2 167.3,785.5 167.3,785.4 167.3,781.6 
	167.3,781.5 167.3,781.5 167.3,780.8 167.3,780.6 167.3,780.5 167.3,776.6 167.3,775.8 167.3,775.7 167.3,774.8 167.3,772.7 
	167.3,771.8 167.3,770.9 167.3,770.9 167.3,770.6 167.3,766.8 167.3,766.7 167.3,766 167.3,765.9 167.3,762.1 167.3,761.2 
	167.3,760.9 167.3,760.1 167.3,759.1 167.3,757.1 167.3,756.3 167.3,756.2 167.3,756 167.3,755.3 167.3,753 167.3,751.2 
	167.3,751.1 167.3,750.3 167.3,748.6 167.3,748 167.3,747.3 167.3,747.2 167.3,747.1 167.3,746.5 167.3,746.3 167.3,745.4 
	167.3,743.2 167.3,743.1 167.3,742.4 167.3,741.4 167.3,740.7 167.3,740.6 167.3,737.6 167.3,737.4 167.3,736.8 167.3,736.7 
	167.3,736.6 167.3,735.8 167.3,733.7 167.3,733.5 167.3,733.4 167.3,732.6 167.3,732.6 167.3,731.7 167.3,731.6 167.3,730.8 
	167.3,728.5 167.3,727.8 167.3,727.6 167.3,727.5 167.3,727 167.3,725.8 167.3,723.7 167.3,723.1 167.3,722.9 167.3,722.8 
	167.3,722.5 167.3,721.9 167.3,721.6 167.3,721.2 167.3,721.1 167.3,717.9 167.3,717.7 167.3,717.6 167.3,717.3 167.3,717 
	167.3,716.9 167.3,715.2 167.3,713.1 167.3,712.9 167.3,712.2 167.3,712.1 167.3,711.9 167.3,711.3 167.3,711.1 167.3,709 
	167.3,708.1 167.3,708 167.3,707.9 167.3,707.2 167.3,707.1 167.3,706.3 167.3,703.1 167.3,703 167.3,702.4 167.3,702.3 
	167.3,702.1 167.3,701.7 167.3,701.6 167.3,698.4 167.3,698.3 167.3,698.2 167.3,697.5 167.3,697.4 167.3,697.3 167.3,695.7 
	167.3,693.4 167.3,692.7 167.3,692.6 167.3,692.4 167.3,691.8 167.3,691.6 167.3,689.5 167.3,688.6 167.3,687.7 167.3,687.7 
	167.3,687.4 167.3,686.8 167.3,683.6 167.3,683.5 167.3,682.8 167.3,682.6 167.3,682.2 167.3,678.9 167.3,678 167.3,677.7 
	167.3,676.8 167.3,676.2 167.3,673.9 167.3,673.1 167.3,672.9 167.3,672.8 167.3,672.1 167.3,668 167.3,667.9 167.3,667.3 
	167.3,667.1 167.3,664.1 167.3,664 167.3,663.3 167.3,663.1 167.3,662.2 167.3,658.2 167.3,657.4 167.3,657.3 167.3,656.7 
	167.3,654.4 167.3,653.6 167.3,653.4 167.3,652.6 167.3,648.5 167.3,648.4 167.3,647.6 167.3,644.6 167.3,643.8 167.3,642.6 
	167.3,638.7 167.3,637.9 167.3,637.8 167.3,634.1 167.3,632 167.3,629 167.3,628.9 167.3,628.1 167.3,623.1 167.3,619.2 
	167.3,618.4 167.3,618.3 167.3,612.5 167.3,609.5 167.3,608.6 167.3,603.5 167.3,598.9 167.3,597.4 317,597.4 317,603.6 317,610.4 
	317,612.5 317,618.5 317,621 317,623.1 317,628.1 317,629.1 317,629.9 317,632 317,635.9 317,637.9 317,638 317,638.7 317,640.5 
	317,642.6 317,645.5 317,646.5 317,647.6 317,648.4 317,648.6 317,649.4 317,651.5 317,653.6 317,655.3 317,655.4 317,656.1 
	317,657.4 317,657.5 317,658.2 317,660 317,662.1 317,663.3 317,664.2 317,665 317,665.8 317,666 317,667.1 317,667.9 317,668.1 
	317,668.9 317,671 317,672.1 317,673 317,673.1 317,673.9 317,674.8 317,674.9 317,675.6 317,676.2 317,676.9 317,677 317,677.7 
	317,679.5 317,680.8 317,681.6 317,681.8 317,682.7 317,682.8 317,683.6 317,683.7 317,684.5 317,685.3 317,685.5 317,686.6 
	317,686.8 317,687.5 317,687.6 317,689.5 317,690.4 317,690.5 317,691.3 317,691.6 317,692.3 317,692.5 317,692.6 317,693.4 
	317,693.6 317,694.3 317,694.4 317,695.1 317,695.7 317,696.4 317,697.2 317,697.6 317,698.5 317,699.2 317,700.1 317,700.2 
	317,701 317,701.1 317,701.7 317,702.2 317,702.4 317,703.1 317,703.2 317,704 317,704.2 317,704.9 317,705 317,706.3 317,707 
	317,707.2 317,707.2 317,708.2 317,709 317,709 317,709.7 317,709.9 317,710 317,710.8 317,711.1 317,711.3 317,712 317,712.1 
	317,712.3 317,712.9 317,713.1 317,713.8 317,714.6 317,715 317,715.2 317,715.9 317,716.9 317,717 317,717.1 317,717.8 317,717.8 
	317,718 317,719.1 317,719.6 317,719.8 317,720.5 317,720.6 317,721.1 317,721.2 317,721.7 317,721.9 317,721.9 317,722.6 
	317,722.7 317,723.7 317,724.4 317,724.6 317,724.6 317,725.6 317,725.8 317,726.4 317,726.6 317,726.7 317,727.4 317,727.5 
	317,727.7 317,728.5 317,728.5 317,728.8 317,729.4 317,729.5 317,729.7 317,730.3 317,730.6 317,730.8 317,731.5 317,731.7 
	317,731.8 317,732.4 317,732.7 317,732.7 317,734.3 317,734.4 317,734.5 317,734.8 317,735.2 317,735.2 317,735.4 317,736.5 
	317,736.6 317,736.8 317,737.2 317,737.3 317,737.5 317,738.5 317,738.6 317,739.1 317,739.3 317,739.3 317,740 317,740.1 
	317,740.6 317,740.7 317,741.2 317,741.4 317,742.1 317,742.3 317,742.4 317,742.6 317,743.2 317,743.3 317,744 317,744.1 
	317,744.8 317,744.9 317,745.1 317,745.3 317,745.9 317,746.6 317,747.1 317,747.2 317,747.4 317,748 317,748 317,748.2 317,748.9 
	317,749.1 317,749.2 317,749.8 317,750.1 317,750.4 317,751.2 317,751.3 317,752.1 317,752.2 317,752.2 317,752.9 317,753 
	317,753.2 317,753.9 317,754 317,754.2 317,754.6 317,754.7 317,754.9 317,755.3 317,756.1 317,756.2 317,756.3 317,757 317,757.2 
	317,758 317,758.1 317,758.6 317,758.8 317,759.5 317,759.7 317,759.8 317,760 317,760.1 317,760.2 317,760.7 317,760.9 317,761.9 
	317,762.7 317,762.7 317,762.8 317,764 317,764.4 317,764.6 317,764.8 317,765 317,765.4 317,765.9 317,766.1 317,766.7 317,766.8 
	317,766.9 317,767.6 317,767.8 317,768.1 317,768.6 317,768.7 317,769.5 317,769.6 317,769.9 317,770.3 317,770.4 317,770.6 
	317,770.7 317,770.8 317,772.5 317,772.7 317,773.5 317,773.6 317,773.7 317,774.4 317,774.6 317,774.8 317,775.6 317,775.7 
	317,775.8 317,776.7 317,777.5 317,777.6 317,778.3 317,778.7 317,779.3 317,779.6 317,780.1 317,780.2 317,780.4 317,780.8 
	317,781.7 317,782.4 317,783.3 317,783.5 317,784.1 317,784.2 317,784.3 317,784.9 317,785.4 317,785.5 317,785.6 317,786.3 
	317,786.4 317,787.3 317,788.1 317,788.2 317,789.9 317,790.2 317,790.4 317,790.5 317,791.4 317,792.2 317,792.3 317,793 
	317,793.1 317,793.2 317,794.1 317,794.3 317,795.2 317,795.3 317,796.1 317,796.2 317,797 317,797.8 317,798.2 317,799.1 
	317,800.1 317,800.2 317,800.3 317,801 317,801 317,801.2 317,802.8 317,803 317,803.7 317,803.8 317,804.9 317,805.1 317,805.8 
	317,805.9 317,807.6 317,807.8 317,807.9 317,808.8 317,809.7 317,809.8 317,809.9 317,810.7 317,810.8 317,810.9 317,811.7 
	317,811.8 317,812.6 317,812.7 317,813.6 317,813.8 317,814.7 317,815.7 317,815.9 317,817.5 317,817.6 317,817.7 317,818.4 
	317,818.4 317,818.6 317,819.7 317,819.8 317,820.4 317,820.5 317,820.7 317,822.3 317,822.5 317,823.2 317,823.3 317,824.4 
	317,825.3 317,825.6 317,825.7 317,825.9 317,826.5 317,827.2 317,827.3 317,828.1 317,828.2 317,828.3 317,829.2 317,830.3 
	317,830.4 317,831.2 317,831.3 317,832.1 317,833.1 317,833.3 317,835.3 317,835.4 317,836.1 317,836.2 317,836.4 317,837.1 
	317,837.2 317,837.8 317,837.9 317,838.1 317,839.3 317,840.2 317,841.8 317,842.7 317,843 317,843.1 317,843.3 317,843.9 
	317,845.2 317,845.9 317,846 317,847.7 317,847.8 317,848.7 317,849.9 317,850.8 317,851.3 317,852.7 317,852.8 317,853.5 
	317,853.6 317,853.8 317,855.8 317,856.7 317,857.6 317,861.9 317,862.6 317,863.3 317,863.4 317,867.3 317,868.2 317,868.7 
	317,873.1 317,879.3 358,842.4 358,836.2 358,831.8 358,831.2 358,830.3 358,826.4 358,826.3 358,825.6 358,825 358,820.7 
	358,819.8 358,818.8 358,816.9 358,816.7 358,816.6 358,815.9 358,815.8 358,814.4 358,813.8 358,812.9 358,811.7 358,810.8 
	358,810.7 358,809 358,808.9 358,808.2 358,806.9 358,806.3 358,806.1 358,806 358,805.7 358,804.9 358,803.2 358,802.4 358,801.1 
	358,801 358,800.9 358,800.3 358,800.2 358,799.5 358,799.3 358,799.2 358,798.5 358,798.4 358,796.4 358,796.1 358,795.2 
	358,794.3 358,794.3 358,793.4 358,793.3 358,792.2 358,791.3 358,791.2 358,791.1 358,790.4 358,790.3 358,789.5 358,788.9 
	358,788.7 358,788.6 358,788.3 358,787.5 358,786.4 358,786.2 358,785.5 358,785.4 358,783.7 358,783.6 358,783.5 358,782.9 
	358,782.8 358,781.6 358,781.5 358,781.5 358,780.8 358,780.6 358,780.5 358,779 358,778.7 358,777.8 358,776.9 358,776.6 
	358,775.8 358,775.7 358,774.8 358,774.8 358,773.9 358,773.8 358,773.7 358,773 358,772.9 358,772.7 358,771.8 358,770.9 
	358,770.9 358,770.6 358,769 358,768.8 358,768.1 358,768 358,766.8 358,766.7 358,766 358,765.9 358,764.2 358,764.1 358,764.1 
	358,763.4 358,763.2 358,763.1 358,762.1 358,761.2 358,760.9 358,760.1 358,759.2 358,759.1 358,758.4 358,758.3 358,757.4 
	358,757.1 358,756.3 358,756.2 358,756 358,755.3 358,755.3 358,754.4 358,753.5 358,753.5 358,753.2 358,753 358,751.2 358,751.1 
	358,750.3 358,749.4 358,749.3 358,748.6 358,748.6 358,748.5 358,748 358,747.3 358,747.2 358,747.1 358,746.5 358,746.3 
	358,745.4 358,744.7 358,743.9 358,743.5 358,743.2 358,743.1 358,742.7 358,742.4 358,741.7 358,741.4 358,740.7 358,740.6 
	358,739.7 358,738.9 358,738.8 358,738.6 358,737.9 358,737.6 358,737.4 358,736.8 358,736.7 358,736.6 358,735.8 358,735.6 
	358,733.8 358,733.7 358,733.7 358,733.5 358,733.4 358,732.9 358,732.6 358,732.6 358,731.7 358,731.6 358,731.2 358,730.8 
	358,730.6 358,729.9 358,729.8 358,729.7 358,729.1 358,728.9 358,728.5 358,728 358,727.8 358,727.6 358,727.5 358,727 358,725.8 
	358,725.8 358,725.7 358,725 358,724 358,723.7 358,723.3 358,723.2 358,723.1 358,722.9 358,722.8 358,722.5 358,721.9 358,721.6 
	358,721.2 358,721.1 358,720.2 358,720 358,719.4 358,719.3 358,719.2 358,718.4 358,717.9 358,717.7 358,717.6 358,717.3 358,717 
	358,716.9 358,716.3 358,716.1 358,716 358,715.2 358,715.2 358,715.2 358,714.3 358,714.2 358,713.4 358,713.1 358,712.9 
	358,712.2 358,712.1 358,711.9 358,711.3 358,711.1 358,711.1 358,710.4 358,710.2 358,710.1 358,709.6 358,709 358,708.4 
	358,708.1 358,708 358,707.9 358,707.2 358,707.1 358,706.3 358,706.3 358,705.7 358,705.5 358,705.4 358,705.1 358,704.5 
	358,704.2 358,703.8 358,703.7 358,703.1 358,703 358,702.4 358,702.3 358,702.1 358,701.7 358,701.6 358,700.5 358,700.3 
	358,700.2 358,699.9 358,699.6 358,699.5 358,698.4 358,698.3 358,698.2 358,697.8 358,697.5 358,697.4 358,697.3 358,695.7 
	358,695.7 358,695.5 358,694.8 358,694.7 358,694.6 358,693.9 358,693.7 358,693.4 358,692.7 358,692.6 358,692.4 358,691.8 
	358,691.6 358,691.6 358,690.7 358,690.6 358,690.5 358,689.8 358,689.7 358,689.5 358,688.9 358,688.6 358,687.7 358,687.7 
	358,687.4 358,686.8 358,685.7 358,685.6 358,685 358,684.9 358,684.7 358,684.3 358,684.2 358,683.6 358,683.5 358,682.8 
	358,682.6 358,682.2 358,681 358,680.9 358,680.8 358,680.1 358,680 358,679.9 358,678.9 358,678.3 358,678 358,677.7 358,676.8 
	358,676.2 358,676 358,675.3 358,675.2 358,675 358,674.4 358,674.2 358,673.9 358,673.1 358,672.9 358,672.8 358,672.1 358,672.1 
	358,671.2 358,670.3 358,670.3 358,670 358,669.4 358,668 358,667.9 358,667.3 358,667.1 358,666.2 358,666.1 358,665.4 358,665.2 
	358,664.8 358,664.1 358,664 358,663.3 358,663.1 358,662.2 358,661.5 358,660.6 358,660.3 358,659.4 358,658.8 358,658.2 
	358,657.4 358,657.3 358,656.7 358,656.5 358,655.7 358,655.5 358,655.4 358,654.7 358,654.4 358,653.6 358,653.4 358,652.6 
	358,650.6 358,650.5 358,649.9 358,649.7 358,648.5 358,648.4 358,647.6 358,646.7 358,646.6 358,645.9 358,645.7 358,644.8 
	358,644.6 358,643.8 358,642.6 358,640.8 358,640.1 358,639.9 358,639.3 358,638.7 358,637.9 358,637.8 358,637 358,636.2 358,636 
	358,635.2 358,634.1 358,632 358,631.1 358,631 358,630.2 358,629 358,628.9 358,628.1 358,627.2 358,626.4 358,625.2 358,623.1 
	358,621.2 358,620.6 358,620.4 358,619.2 358,618.4 358,618.3 358,616.7 358,614.6 358,612.5 358,611.6 358,611.5 358,610.7 
	358,609.5 358,608.6 358,605.7 358,603.5 358,601.8 358,601 358,600.9 358,598.9 358,595.1 358,593 358,592.1 358,591.2 358,586.1 
	358,584 358,581.5 358,575.6 358,573.5 358,566.6 358,556.1 318.7,591.5 "/>
<path d="M442.4,471.6v-0.2h-22.2v-36.7l-41,37v413.1l41-37v-115h22.2v36.8l41-37V549.9l-6.2,5.6h-20.8l27-24.3v-96.5L442.4,471.6
	L442.4,471.6z M470.6,561.3l-28.3,25.5v140h-22.2V477.3h22.2v90.8l7.5-6.8L470.6,561.3L470.6,561.3z"/>
<path d="M317,470.8H167.4v-37.3l-41,37v123.9l41-36.9v-2.3H317v26l41-36.9v-35.1l-41,36.9v3.2H167.4v-26.1H317v11.6l41-36.9v-64.3
	l-41,37V470.8z M317,505.6v11.7H167.4v-17.4H317V505.6z M317,490v4.1H167.4v-17.4H317V490L317,490z"/>
<path d="M226.8,642.4v-35.8l-41,37v235.1l37.6-34H249v34l41-37v-74.1l-41,36.9v34.3h-22.2v-85.2H249v25.1l41-37V606.6l-39.7,35.8
	H226.8L226.8,642.4z M249,702.1v45.8h-22.2V701H249V702.1z M249,674.3v20.8h-22.2v-46.8H249V674.3L249,674.3z"/>
<polygon points="63.2,490 63.2,505.6 63.2,509.5 63.2,515.4 63.2,518.7 104.1,481.8 104.1,478.4 104.1,472.6 104.1,468.7 
	104.1,453.1 104.1,444.5 63.2,481.5 "/>
<polygon points="41,497.3 41,477.8 0,514.7 0,534.2 0,549.8 0,553.7 0,559.6 0,569.3 0,573.2 0,579.1 0,585.7 41,548.7 41,542.1 
	41,536.3 41,532.4 41,522.6 41,516.8 41,512.9 41,506 63.2,506 63.2,500.1 41,500.1 "/>
<polygon points="63.2,567.5 63.2,568.7 63.2,583.1 63.2,587 63.2,588.2 63.2,592.9 63.2,602.6 63.2,603.8 63.2,606.5 63.2,607.7 
	63.2,612.4 63.2,613.5 63.2,619 63.2,623.3 63.2,627.2 63.2,633 63.2,639.6 104.1,602.7 104.1,596.1 104.1,590.2 104.1,586.3 
	104.1,582 104.1,576.6 104.1,575.4 104.1,570.7 104.1,569.6 104.1,566.8 104.1,565.7 104.1,555.9 104.1,551.2 104.1,550.1 
	104.1,546.2 104.1,531.7 104.1,530.6 104.1,511.1 63.2,548 "/>
<polygon points="41,585.7 0,622.6 0,642.1 0,657.7 0,661.6 0,667.5 0,677.2 0,681.2 0,687 0,693.6 41,656.6 41,650.1 41,644.2 
	41,640.3 41,630.5 41,624.7 41,620.8 41,609.5 63.2,609.5 63.2,603.7 41,603.7 "/>
<polygon points="63.2,675.4 63.2,691.1 63.2,694.9 63.2,696.6 63.2,700.8 63.2,710.6 63.2,714.4 63.2,716.2 63.2,720.3 63.2,726.9 
	63.2,731.8 63.2,735.7 63.2,741.5 63.2,751.3 63.2,755.2 63.2,761 63.2,767.4 63.2,767.6 63.2,786.9 63.2,802.5 63.2,806.4 
	63.2,812.2 63.2,822 63.2,825.9 63.2,831.7 63.2,838.3 104.1,801.4 104.1,794.8 104.1,788.9 104.1,785 104.1,775.3 104.1,769.4 
	104.1,765.5 104.1,749.9 104.1,730.7 104.1,730.4 104.1,724.1 104.1,718.2 104.1,714.3 104.1,704.6 104.1,698.7 104.1,694.8 
	104.1,689.9 104.1,683.3 104.1,679.2 104.1,677.5 104.1,673.6 104.1,663.8 104.1,659.7 104.1,658 104.1,654.1 104.1,638.5 
	104.1,619 63.2,655.9 "/>
<polygon points="41,795.2 41,775.7 0,812.6 0,832.1 0,847.7 0,851.6 0,857.5 0,867.2 0,871.1 0,877 0,883.6 41,846.6 41,840 
	41,834.2 41,830.3 41,820.5 41,814.7 41,810.8 41,801.1 63.2,801.1 63.2,795.3 41,795.3 "/>
</svg>
