<?xml version="1.0" encoding="utf-8"?>
<!-- Generator: Adobe Illustrator 28.0.0, SVG Export Plug-In . SVG Version: 6.00 Build 0)  -->
<svg version="1.1" id="b" xmlns="http://www.w3.org/2000/svg" xmlns:xlink="http://www.w3.org/1999/xlink" x="0px" y="0px"
	 viewBox="0 0 335 281.8" style="enable-background:new 0 0 335 281.8;" xml:space="preserve">
<style type="text/css">
	.st0{fill:#FFFFFF;}
	.st1{fill:#FFFFFF;stroke:#FFFFFF;stroke-miterlimit:10;}
</style>
<path class="st0" d="M0.3,7.6V6c1.4,0.1,2.8,0.1,4.2,0.1h4.2c1.4,0,2.9,0,4.3-0.1v1.6c-1.4-0.1-2.9-0.1-4.3-0.1H7.9
	c-0.1,2-0.4,3.7-1.4,5c-0.8,1.1-2.3,1.8-3.6,2.2l-1.4-1.3c1.5-0.3,3.2-1,4-2.3c0.7-1,0.8-2.4,0.8-3.6H4.6C3.1,7.5,1.7,7.5,0.3,7.6
	L0.3,7.6z M8,3.5H5.3c-0.9,0-1.9,0-2.8,0.1V2c0.9,0.1,1.9,0.1,2.8,0.1H8c0.9,0,1.9,0,2.8-0.1v1.7C9.9,3.6,8.9,3.5,8,3.5z M13.6,4.3
	L12.7,5c-0.4-0.6-0.8-1.2-1.3-1.6l0.8-0.7C12.7,3.1,13.2,3.7,13.6,4.3L13.6,4.3z M14.6,2.4l-0.8,0.7c-0.4-0.6-0.9-1.1-1.4-1.6
	l0.7-0.7C13.7,1.3,14.3,1.9,14.6,2.4z"/>
<path class="st0" d="M23.7,15h-1.5c0-0.9,0.1-1.7,0.1-2.6V8.8c-1.1,0.8-2.4,1.5-3.5,2l-1.3-1.1c3.3-1.2,6.1-3.2,8-5.8l1.1,0.8
	c0.2,0.2,0.3,0.3,0.3,0.4c0,0.2-0.2,0.3-0.7,0.3C25.6,6,25,6.8,23.6,7.9V12C23.6,13.1,23.7,14.1,23.7,15L23.7,15z"/>
<path class="st0" d="M35.8,6.6L35,7.8c-0.8-0.5-2.5-1.3-3.6-1.7l0.7-1.3C33.5,5.3,34.7,5.9,35.8,6.6z M39,11.2
	c-1.3,1.1-3,2.2-4.9,3.2c-0.1,0.3-0.3,0.5-0.4,0.5c-0.1,0-0.1,0-0.3-0.3l-1.1-1.5c1.9-0.5,4.1-1.8,5.6-3c1.7-1.3,3.5-3.2,4.5-5
	l1,1.4C42.3,8.1,40.6,9.9,39,11.2L39,11.2z M37.5,2.8L36.9,4c-0.8-0.5-2.7-1.5-3.7-1.8l0.7-1.3C35,1.4,36.5,2.1,37.5,2.8L37.5,2.8z
	 M42.3,2.7l-0.8,0.8c-0.5-0.6-1.1-1-1.8-1.4l0.7-0.8C41.2,1.6,41.9,2.2,42.3,2.7L42.3,2.7z M44.1,1.4l-0.8,0.8
	c-0.6-0.5-1.2-1-1.9-1.5L42.2,0C42.9,0.4,43.5,0.8,44.1,1.4z"/>
<path class="st0" d="M57.3,10.4l-1.1,1.3c-0.4-0.4-0.8-0.8-1.2-1.1c-1.6,2.1-3.7,3.5-6,4.2l-1.2-1.3c2.4-0.5,4.5-1.7,6-3.7
	c-1-0.7-2-1.2-3.1-1.6l0.8-1c0.8,0.3,2.4,1,3.1,1.4c0.6-1.1,1.1-2.3,1.3-3.4c-1.4,0-3,0-4.5,0.1c-1,1.5-2,2.6-3.2,3.5l-1.5-0.9
	c2.2-1.2,4.1-4.1,4.8-6.5l1.7,0.7c0.2,0.1,0.3,0.2,0.3,0.3c0,0.3-0.3,0.3-0.7,0.4c-0.3,0.5-0.6,1-0.8,1.4c0.6,0,1.4,0,2.3,0
	c0.8,0,1.8-0.1,2.7-0.5l1.2,1.2c-0.5,0.5-0.7,0.6-0.9,1.2c-0.4,1.2-0.9,2.5-1.5,3.6C56.4,9.7,56.9,10,57.3,10.4L57.3,10.4z"/>
<path class="st0" d="M66.4,3c0,0.2-0.2,0.4-0.5,0.5c0,2.2-0.1,4.6-0.8,6.5c-0.6,1.5-1.6,2.6-3.1,3.5l-1.3-1.3
	c1.4-0.6,2.3-1.5,2.9-2.8c0.6-1.3,0.7-3.1,0.7-4.4c0-0.9-0.1-1.7-0.2-2.6l1.9,0.3C66.2,2.8,66.4,2.8,66.4,3L66.4,3z M70.4,2.7
	c0,0.2-0.1,0.3-0.4,0.5c-0.1,1.5-0.1,2.9-0.1,4.8v3.2c1.5-0.8,3.2-2.5,4.3-4.6l1.1,1.3c-1.6,2.5-3.4,4.2-5.9,5.6l-1.1-0.9
	c0.1-1.1,0.1-2.6,0.1-3.7V5.7c0-1,0-2.5-0.1-3.5l1.8,0.2C70.2,2.4,70.4,2.5,70.4,2.7L70.4,2.7z"/>
<path class="st0" d="M82.5,3.3h2.9c1.3,0,2.6,0,3.8,0c-0.1,0.9-0.1,2.2-0.1,3.2v2.7c0,1.3,0.1,3,0.2,3.9h-1.9c0-0.2,0-0.4,0.1-0.8
	h-3.7c-1.7,0-3.7,0.1-5.1,0.2v-1.7c1.7,0.1,3.4,0.1,5.2,0.1h3.7V4.7h-3.7c-1.5,0-3.7,0-5.4,0.2V3.2C79.8,3.3,81.2,3.3,82.5,3.3
	L82.5,3.3z"/>
<path class="st0" d="M106.3,5.4l0.6,1.6c-2.7,3.1-6.4,5.3-10.4,6.7c-0.1,0.4-0.2,0.5-0.3,0.5s-0.2-0.2-0.3-0.4L95,12.2
	C98.8,11.5,103.9,8.6,106.3,5.4L106.3,5.4z M99.7,4.1l-0.9,1.4c-1-0.8-2.3-1.7-3.5-2.2l0.9-1.4C97.4,2.4,98.7,3.1,99.7,4.1z"/>
<path class="st0" d="M110.6,7.5V5.9C112,6,113.4,6,114.9,6h4.2c1.4,0,2.8,0,4.3-0.1v1.7c-1.4-0.1-2.8-0.1-4.3-0.1h-0.8
	c-0.1,2-0.4,3.7-1.4,5c-1,1.3-2.3,1.9-3.6,2.3l-1.5-1.3c1.5-0.3,2.9-0.9,3.8-2c0.7-0.9,1.1-2.1,1.1-4.1h-1.8
	C113.4,7.4,112,7.4,110.6,7.5z M118.2,3.4h-2.7c-0.9,0-1.9,0-2.7,0.1V1.8c0.8,0.1,1.9,0.1,2.7,0.1h2.7c0.8,0,1.9,0,2.8-0.1v1.8
	C120.1,3.4,119.1,3.4,118.2,3.4z"/>
<path class="st0" d="M137.6,5.4l0.6,1.6c-2.7,3.1-6.4,5.3-10.4,6.7c-0.1,0.4-0.2,0.5-0.3,0.5s-0.2-0.2-0.3-0.4l-0.9-1.7
	C130.1,11.5,135.2,8.6,137.6,5.4L137.6,5.4z M131,4.1l-0.9,1.4c-1-0.8-2.3-1.7-3.5-2.2l0.9-1.4C128.7,2.4,130,3.1,131,4.1z"/>
<path class="st0" d="M144.2,6.5l-1.5,0.5c-0.4-1.2-0.9-2.2-1.7-3.2l1.5-0.6C143.3,4.3,143.8,5.3,144.2,6.5L144.2,6.5z M153.7,3.7
	c0,0.2-0.2,0.3-0.6,0.4c-0.7,2.1-1.5,4.3-2.9,6.1c-1.3,1.8-3.6,3.5-5.6,4.2l-1.4-1.3c2.1-0.6,4.2-2,5.7-3.9c1-1.3,1.8-3.1,2.2-4.7
	c0.2-0.7,0.3-1.3,0.3-2l1.8,0.7C153.6,3.5,153.7,3.6,153.7,3.7L153.7,3.7z M148.2,5.8l-1.6,0.5c-0.3-1.2-0.9-2.4-1.6-3.3l1.6-0.5
	C147.3,3.4,148,4.7,148.2,5.8L148.2,5.8z"/>
<path class="st0" d="M165.9,10.1c1.1-0.3,2.7-1,3.5-1.7l1.2,1.3c0,0,0.1,0.1,0.1,0.2c0,0.1-0.1,0.2-0.2,0.2c-0.1,0-0.3,0-0.7-0.1
	c-1,0.4-2,1-3,1.3c1.2,1.3,2.8,2.2,4.6,2.6l-0.9,1.4c-1.7-0.7-3.4-1.7-4.6-3c-1-1-1.6-2.2-2.1-3.5c-0.4,0.5-0.8,1-1.3,1.4v2.8
	c0.9-0.2,1.9-0.4,2.8-0.7l-0.2,1.3c-1.1,0.3-2.2,0.6-3.3,0.9c-1,0.3-2.1,0.5-3.1,0.7c-0.1,0.3-0.2,0.5-0.5,0.5c-0.2,0-0.2,0-0.3-0.3
	l-0.4-1.6c1.1-0.1,2.4-0.3,3.5-0.6v-2.1c-1,0.5-2.4,1.1-3.5,1.3l-1-1.4c2.1-0.2,4.7-1.3,6.1-2.9h-0.8c-1.6,0-3.2,0-4.8,0.1V6.7
	c1.6,0.1,3.2,0.1,4.8,0.1h1.6V5.6h-1.4c-1.2,0-2.5,0-3.7,0.1V4.4c1.2,0.1,2.5,0.1,3.7,0.1h1.4v-1h-1.4c-1.5,0-2.9,0-4.4,0.1V2.2
	c1.5,0.1,2.9,0.1,4.4,0.1h1.4c0-0.5-0.1-1.1-0.1-1.6l1.8,0.2c0.1,0,0.2,0.1,0.2,0.2s-0.1,0.2-0.4,0.4c0,0.3,0,0.6-0.1,0.8h1.4
	c1.5,0,2.9,0,4.4-0.1v1.3c-1.5,0-2.9-0.1-4.4-0.1h-1.4v1h0.8c1.2,0,2.5,0,3.8-0.1v1.3c-1.2-0.1-2.5-0.1-3.8-0.1h-0.8v1.2h1.6
	c1.6,0,3.3,0,4.9-0.1v1.6c-1.6-0.1-3.3-0.1-4.9-0.1H165C165.2,8.8,165.5,9.5,165.9,10.1L165.9,10.1z"/>
<path class="st0" d="M179.4,5.8v1.6c-0.5-0.1-1.1-0.1-1.6-0.1v3.2c0.7-0.2,1.2-0.4,1.9-0.6V11c-0.9,0.4-3.9,1.6-4.9,2
	c-0.1,0.4-0.2,0.5-0.4,0.5c-0.2,0-0.3-0.3-0.3-0.4l-0.4-1.6c0.6-0.1,2-0.4,2.5-0.6V7.3h-0.2c-0.6,0-1.1,0.1-1.7,0.1V5.8
	c0.6,0.1,1.1,0.1,1.7,0.1h0.2V2.7c-0.8,0-1.6,0-2.3,0V1.4c0.6,0,2,0.1,2.6,0.1h1.2c0.4,0,1.5-0.1,1.9-0.1v1.4c-0.5,0-1.4-0.1-1.9,0
	V6C178.2,6,178.9,5.9,179.4,5.8L179.4,5.8z M185.4,13.3c0,0.4,0.1,0.6,0.6,0.6h0.6c0.6,0,0.9-0.8,1-1.9l1.2,1
	c-0.5,1.9-0.7,2.1-1.9,2.1h-1.6c-1.3,0-1.3-0.7-1.3-1.7v-2.8h-0.5c-1,2.8-2.7,4.4-5.8,4.8l-1-1.4c0.1,0,0.3,0,0.4,0
	c0.4,0,1.2-0.1,1.6-0.2c0.5-0.2,1.1-0.5,1.6-0.8c0.8-0.6,1.3-1.5,1.7-2.4c-0.4,0-1.3,0-1.6,0.1c0.1-0.7,0.1-2.5,0.1-3.3V4.7
	c0-0.6,0-3.3-0.1-3.7c0.7,0,1.8,0.1,2.5,0.1h1.8c1,0,1.9,0,2.9-0.1c0,0.3-0.1,3-0.1,3.4v2.5c0,1.2,0,2.6,0.1,3.8
	c-0.8-0.1-1.3-0.1-2.1-0.1L185.4,13.3L185.4,13.3z M181.8,3.8h4V2.3h-4V3.8z M181.8,5.1v1.5h4V5.1H181.8z M181.8,7.8v1.6h4V7.8
	C185.8,7.8,181.8,7.8,181.8,7.8z"/>
<path class="st0" d="M191.8,15.3l-0.9-1.6c2.4,0,4.4-0.8,5.7-2.9h-0.8c-1.4,0-2.9,0-4.4,0.1V9.6c1.5,0.1,2.9,0.1,4.4,0.1h1.3
	c0.1-0.4,0.2-0.8,0.2-1.2h-0.9c-1.1,0-2.1,0-3.1,0.1V7.1c1,0.1,2.1,0.1,3.1,0.1h1V5.9h-1c-1.1,0-2.2,0-3.3,0.1V4.7
	c1.1,0.1,2.2,0.1,3.3,0.1h0.9c0-0.4-0.1-0.7-0.1-1.1l1.8,0.2c0.1,0,0.2,0,0.2,0.2c0,0.1-0.3,0.3-0.4,0.4c0,0.1,0,0.2,0,0.3h0.9
	c1.1,0,2.2,0,3.3-0.1V6c-1.1-0.1-2.2-0.1-3.3-0.1h-0.9c0,0.4,0,0.9,0,1.3h0.7c1.1,0,2.2-0.1,3.2-0.1v1.4c-1.1-0.1-2.2-0.1-3.2-0.1
	h-0.8c0,0.4-0.1,0.8-0.1,1.2h1.7c1.4,0,2.9,0,4.4-0.1v1.3c-1.5-0.1-2.9-0.1-4.4-0.1h-0.6c1.6,1.9,3.5,2.6,5.9,2.9l-1.1,1.5
	c-2.5-0.4-5.1-1.8-6.3-4.1C196.9,13.7,194.5,14.9,191.8,15.3L191.8,15.3z M200.3,2.1c1.8,0,3.2,0,4.6-0.1c-0.1,0.6-0.1,1-0.1,1.6
	c0,0.6,0,1.2,0.1,1.8h-1.7c0.1-0.6,0.1-1.5,0.1-2.1h-10.9v0.8c0,0.4,0,0.9,0.1,1.2h-1.6c0.1-0.5,0.1-1.5,0.1-2.1
	c0-0.5,0-0.9-0.1-1.4c1,0.1,3.2,0.1,4.3,0.1h1.9c0-0.5,0-0.9,0-1.4l1.6,0.1c0.2,0,0.4,0,0.4,0.2c0,0.2-0.3,0.4-0.4,0.5
	c0,0.2,0,0.4,0,0.6H200.3L200.3,2.1z"/>
<path class="st0" d="M211,15.2h-1.6c0-0.9,0.1-1.8,0.1-2.8v-1.9c0-0.6,0-1.7-0.1-2.3c1,0.1,2.6,0.1,3.6,0.1h0.9
	c0.1-0.3,0.1-0.5,0.2-0.8c-0.6,0.2-1.2,0.3-1.9,0.3c-0.1,0-0.3,0-0.4,0l-0.7-1.4c-0.6,0.4-1.4,0.8-2.1,1c0,0.1-0.1,0.4-0.3,0.4
	c-0.1,0-0.2-0.1-0.2-0.2l-0.8-1.4c1.9-0.5,3.2-1.1,4.8-2.2v1.5c-0.3,0.2-1,0.6-1.3,0.8c0.4,0.1,0.9,0.2,1.4,0.2
	c0.3,0,0.4-0.1,0.4-0.3V2.5h-2.3c-0.5,0-0.9,0-1.4,0c0.7,0.3,1.4,0.6,2,1.2l-0.8,1.2c-0.7-0.6-1.5-1-2.4-1.2l0.8-1.1
	c-0.4,0-0.7,0-1.1,0V1.1c0.7,0,1.4,0.1,2.1,0.1h2.1c0.8,0,1.7,0,2.5-0.1c0,0.6-0.1,1.6-0.1,2.2v3.3l1.6,0.3l-0.8-1
	c0.7-0.3,1.8-0.8,2.5-1.2c-0.7-0.6-1.5-0.9-2.4-1.2l0.7-1.2c-0.4,0-0.7,0-1.1,0V1.1c0.7,0,1.4,0,2.1,0.1h2.1c0.7,0,1.5,0,2.2-0.1
	c0,0.3-0.1,1.5-0.1,1.8v3.1c0,1.3-0.2,1.7-2.2,1.7c-0.3,0-0.5,0-0.8-0.1l-0.7-1.4c0.5,0.1,1.2,0.2,1.6,0.2S220,6.4,220,6V2.4h-2.2
	c-0.4,0-0.8,0-1.2,0c0.7,0.3,1.3,0.6,1.8,1.2l-0.6,1.2c0.6-0.3,1.1-0.6,1.6-1v1.4c-0.9,0.6-1.9,1.2-2.8,1.8c0,0.2-0.1,0.5-0.2,0.5
	c-0.1,0-0.1,0-0.2-0.1c-0.2,0.1-0.2,0.1-0.4,0.1l-0.3,0.9h1.3c1.1,0,2.2,0,3.2-0.1c0,0.5-0.1,1.6-0.1,2.1v2c0,0.9,0,1.8,0.1,2.8
	h-1.6c0-0.2,0-0.3,0-0.5h-7.5C210.9,14.8,210.9,15,211,15.2L211,15.2z M210.9,10.9h7.5V9.6h-7.5V10.9z M210.9,13.4h7.5v-1.3h-7.5
	V13.4z"/>
<path class="st0" d="M236.6,15.1h-1.8c0.1-0.7,0.1-4.4,0.1-5.3V9.5h-1.7v2.1c0,0.9,0.1,1.8,0.1,2.8h-1.6c0.1-0.7,0.1-1.5,0.1-2.2V10
	c0-0.6,0-1.2-0.1-1.8c0.9,0.1,1.8,0.1,2.7,0.1h0.4V6.9h-0.8c-0.9,0-1.9,0-2.8,0.1V5.4c0.9,0.1,1.9,0.1,2.8,0.1h0.8V5
	c0-0.3,0-0.6,0-0.8h-1.9c-0.2,0.4-0.4,0.8-0.7,1.1l-1.5-0.6c0.9-1,1.3-2.3,1.5-3.5l1.5,0.4c0.3,0.1,0.4,0.1,0.4,0.2
	c0,0.1-0.3,0.3-0.4,0.3c-0.1,0.3-0.2,0.6-0.3,0.8h1.3c0-0.7,0-1.5-0.1-2.2l1.5,0.2c0.3,0,0.4,0,0.4,0.2c0,0.1-0.1,0.2-0.4,0.4
	c0,0.2,0,0.3,0,0.5v1h0.7c0.7,0,1.6,0,2.3-0.1v1.6c-0.8-0.1-1.6-0.1-2.3-0.1h-0.7v1.4h0.6c0.9,0,2,0,2.9-0.1V7
	c-0.9-0.1-1.9-0.1-2.9-0.1h-0.6v1.4h0.6c0.8,0,1.7-0.1,2.5-0.1c-0.1,0.4,0,0.8,0,1.1V11c0,0.6,0.1,1.4,0.1,1.9
	c0,1.1-0.6,1.2-1.6,1.2c-0.1,0-0.2,0-0.4,0l-0.9-1.6c0.4,0.1,0.7,0.1,1.1,0.1c0.3,0,0.3-0.1,0.3-0.5V9.5h-1.7v0.3
	C236.4,10.8,236.5,14.2,236.6,15.1L236.6,15.1z M242.1,2.1c0.3,0,0.6,0,0.6,0.2c0,0.2-0.4,0.4-0.5,0.5c0,0.7,0,1.4,0,2.1v2.7
	c0,0.6,0,2.7,0.1,3.2h-1.6c0.1-0.6,0.1-2.2,0.1-2.9V4.5c0-0.8,0-1.7-0.1-2.5L242.1,2.1L242.1,2.1z M245,0.8c0.3,0,0.4,0,0.4,0.2
	c0,0.1,0,0.1-0.3,0.4c0,0.7,0,1.5,0,2.2v4c0,1.4,0,2.8,0,4.2c0,0.5,0.1,1.1,0.1,1.6c0,1.7-0.7,1.8-2.1,1.8c-0.3,0-0.6,0-0.8,0
	l-0.7-1.6c0.2,0,1.3,0.1,1.4,0.1c0.5,0,0.6-0.1,0.6-0.9V3.3c0-0.9,0-1.8,0-2.7C243.4,0.7,245,0.8,245,0.8z"/>
<path class="st0" d="M251.9,4.6c0.1,0.1,0.2,0.2,0.2,0.3c0,0.2-0.2,0.2-0.3,0.3c0,0.4-0.1,0.8-0.1,1.2v4.3c0,1.5,0,3,0.1,4.5h-1.6
	c0.1-1.5,0.1-3,0.1-4.5v-4c-0.5,0.7-1,1.3-1.6,1.9l-1.4-0.9c1.8-1.3,3.9-4.8,4.5-7l1.6,0.7c0.1,0,0.2,0.1,0.2,0.2
	c0,0.2-0.4,0.3-0.5,0.3c-0.4,0.9-0.8,1.7-1.3,2.6L251.9,4.6L251.9,4.6z M257.7,15.2h-1.6c0-1.1,0.1-2.3,0.1-3.4V5h-0.9
	c-0.5,0.8-1.1,1.5-1.7,2.1l-1.4-0.8c1.7-1.5,2.8-3.4,3.4-5.5l1.6,0.6c0.1,0,0.3,0.2,0.3,0.3c0,0.2-0.3,0.3-0.6,0.3
	c-0.3,0.6-0.5,1.2-0.9,1.8h3.1c1.1,0,2.2,0,3.3-0.1V5c-1.1,0-2.2-0.1-3.3-0.1h-1.5v2.1h2.3c0.7,0,1.4,0,2.1-0.1v1.4
	c-0.7,0-1.4-0.1-2-0.1h-2.3v2h2.2c0.7,0,1.4,0,2.1-0.1v1.4c-0.7-0.1-1.4-0.1-2.1-0.1h-2.2C257.7,12.9,257.7,14.1,257.7,15.2
	L257.7,15.2z"/>
<path class="st0" d="M278.9,8.8v1.4c-0.8-0.1-1.6-0.1-2.5-0.1l1.1,0.7c0.1,0.1,0.1,0.1,0.1,0.2c0,0.3-0.3,0.3-0.7,0.3
	c-0.6,0.5-1.2,0.9-1.8,1.2c1.2,0.6,2.5,0.9,3.9,1l-0.9,1.7c-1.7-0.5-3.1-1-4.6-2.1l-0.2,0.9c-1.3,0.4-3.8,0.9-5.1,1.1
	c0,0.2-0.1,0.4-0.4,0.4c-0.1,0-0.2-0.1-0.2-0.2l-0.4-1.5c0.8,0,1.3-0.1,2.1-0.2v-3.2c-0.5,0-0.9,0-1.4,0.1V8.8
	c0.9,0.1,1.7,0.1,2.6,0.1V7.5c-0.6,0-1.3,0-1.9,0.1V6.1c0.6,0.1,1.3,0.1,1.9,0.1V5h-2.8v1.9c0,1.6-0.1,3.2-0.6,4.7
	c-0.3,1-0.6,2-1.2,2.9l-1.6-0.6c1.6-2.1,2-4.4,2-7V2.7c0-0.5,0-1.1-0.1-1.6c1.5,0.1,3,0.1,4.5,0.1h3.2c1.1,0,3.2,0,4.3-0.1
	c0,0.4,0,0.9,0,1.3v1.3c0,0.5,0,0.9,0.1,1.4C277.2,5,276.3,5,275.4,5v1.3c0.8,0,1.6-0.1,2.5-0.1v1.4c-0.8-0.1-1.6-0.1-2.5-0.1V9
	C276.6,8.9,277.7,8.9,278.9,8.8L278.9,8.8z M267.6,3.9h9V2.5h-9V3.9z M270.7,10.2v3.1c0.8-0.1,1.6-0.3,2.4-0.4
	c-0.9-0.7-1.5-1.6-1.9-2.6L270.7,10.2L270.7,10.2z M273.9,6.3V5h-2v1.3H273.9z M273.9,9V7.5h-2V9H273.9z M274,11.8
	c0.7-0.4,1.3-0.9,1.8-1.6h-3.1C273,10.8,273.5,11.3,274,11.8z"/>
<path class="st0" d="M4.7,43.7v11.2H3V42h7.2v1.7C10.2,43.7,4.7,43.7,4.7,43.7z"/>
<path class="st0" d="M36.4,43.3l1.5-1.2c0.9,0.5,1.6,1.1,2.3,1.8l-1.3,1c1,0,2.1-0.1,3.1-0.2v2.2c-2.2-0.1-4.4-0.1-6.7-0.1
	c0.1,1.6,0.5,3,1.1,4.4c0.6-1,1.1-2.2,1.4-3.3l2.3,0.8c0.1,0,0.2,0.1,0.2,0.3c0,0.3-0.4,0.3-0.6,0.3c-0.6,1.3-1.2,2.7-2,4
	c0.4,0.4,1.2,1.2,1.9,1.2s0.8-1.2,0.9-2.1l1.8,1.4c-0.2,1.1-1.1,3.5-2.5,3.5c-1.1,0-2.9-1.5-3.6-2.3c-0.9,0.9-2,2-3.2,2.5l-2-1.6
	c0.5-0.1,0.7-0.2,1.2-0.5c-0.8,0-2,0-2.8,0h-2.2l0,0.8h-2.2c0-0.5,0.1-2.4,0.1-2.7v-0.8c0-0.7,0-1.3-0.1-2c0.9,0.1,1.4,0.1,2.3,0.1
	h2.4c0.9,0,1.7-0.1,2.5-0.1c0,0.6-0.1,1.1-0.1,1.7v1.3c0,0.5,0,1.2,0,1.7c1-0.5,1.9-1.3,2.6-2.1c-1.2-2.1-1.6-4.2-1.9-6.5h-8.6
	c0,3.4-0.6,7.1-2.3,10l-2.5-0.8c2-2.2,2.5-5.7,2.5-8.5c0-0.8-0.1-1.7-0.1-2.5c2.2,0.1,4.5,0.1,6.7,0.1h4.2c-0.1-0.8-0.1-1.7-0.2-2.5
	l2.4,0.1c0.2,0,0.5,0,0.5,0.3c0,0.1-0.1,0.3-0.5,0.5c0,0.5,0,1.1,0.1,1.6c1.1,0,2.1,0,3.2-0.1C37.9,44.3,37.1,43.7,36.4,43.3
	L36.4,43.3z M25.5,59c0.1,0.1,0.3,0.2,0.3,0.3c0,0.3-0.3,0.3-0.7,0.3c-0.8,1.5-1.6,2.7-2.8,3.9l-2.2-1.3c1.5-1.2,2.4-2.7,3.1-4.4
	C23.3,57.8,25.5,59,25.5,59z M32.5,49.8c-0.8-0.1-1.7-0.1-2.5-0.1h-2.6c-0.8,0-1.7,0-2.5,0.1v-1.9c0.7,0.1,1.2,0.1,2.5,0.1H30
	c1.3,0,1.8,0,2.5-0.1V49.8z M28.7,57.5c0.2,0,0.4,0,0.4,0.3s-0.3,0.4-0.5,0.5v2.5c0,1.1,0.3,1.2,1.3,1.2h3.4c0.7,0,1.2,0,1.6-0.7
	c0.4-0.7,0.5-1.4,0.6-2.2l2,1.4c-0.3,1.2-0.6,2-1,2.5c-0.6,0.9-1.5,0.9-2.9,0.9h-4.5c-1,0-1.8,0-2.3-0.7c-0.5-0.6-0.5-1.3-0.5-2v-2
	c0-0.6,0-1.1-0.1-1.7C26.4,57.3,28.7,57.5,28.7,57.5z M27.3,53.9h3.1v-1.6h-3.1V53.9z M34.1,59.3l-1.6,1.7c-0.9-1.2-1.6-1.8-2.9-2.5
	l1.7-1.6C32.2,57.4,33.5,58.4,34.1,59.3z M39,57.6c1,0.8,2.5,2.9,3,4.1l-2,1.5c-0.6-1.5-1.7-3.2-2.9-4.3L39,57.6L39,57.6z"/>
<path class="st0" d="M67.2,54.9c0.4-1.6,0.5-3.3,0.6-4.9h-0.3c-0.8,0-1.7,0-2.5,0.1V48c0.7,0.1,1.7,0.1,2.5,0.1h0.4v-1.6
	c0-1.2-0.1-2.5-0.3-3.6l2.6,0.2c0.2,0,0.4,0.1,0.4,0.3s-0.4,0.5-0.7,0.6v0.7c0,1.1,0,2.2-0.1,3.4h0.5c1.1,0,2.1-0.1,3.2-0.2
	c0,4.1,0,8.9-0.9,12.9c-0.6,2.5-1,3.2-3.7,3.2c-0.2,0-0.4,0-0.6,0l-1-2.5c0.6,0.1,1.2,0.2,1.8,0.2c0.9,0,1.3-0.3,1.7-2.2
	c0.4-2.3,0.7-7.1,0.7-9.5h-1.7c0,1.4-0.1,2.5-0.3,3.9c-0.2,1.5-0.7,3.3-1.2,4.7c-0.7,2-2.2,4.3-4,5.5L61.9,63
	c0.7-0.5,1.2-0.8,1.9-1.4c-1.6,0.3-3.2,0.5-4.8,0.7c-1.8,0.2-3.7,0.5-5.6,0.7c-0.1,0.3-0.3,0.7-0.7,0.7c-0.2,0-0.3-0.3-0.4-0.5
	l-0.2-2.3c0.3,0,0.6,0,0.9,0c1.5,0,3.1-0.1,4.7-0.3V59h-1.1c-1.3,0-2.7,0-4,0.1v-1.8c1.3,0.1,2.7,0.1,4,0.1h1.1v-1.2h-0.5
	c-0.9,0-2.7,0.1-3.5,0.1c0.1-0.9,0.1-1.8,0.1-2.7v-1.8c0-0.4,0-2.1-0.1-2.5c1,0,2.1,0.1,3.1,0.1h0.9v-1h-1.1c-1.4,0-2.8,0.1-4.2,0.1
	v-1.9c1.4,0.1,2.8,0.1,4.2,0.1h1.1v-1.2c-0.8,0-1.5,0.1-2.3,0.1c-0.6,0-1.1,0-1.7,0l-1-1.9c0.9,0.2,1.8,0.2,2.8,0.2
	c2.5,0,5.2-0.2,7.5-1.3l1.2,1.6c0.1,0.1,0.1,0.2,0.1,0.3c0,0.2-0.1,0.3-0.3,0.3c-0.2,0-0.5-0.2-0.7-0.3c-1,0.4-2.5,0.7-3.6,0.8v1.4
	h0.8c1.4,0,2.7,0,4.1-0.1v1.9c-1.4-0.1-2.8-0.1-4.1-0.1h-0.8v1h0.7c1.2,0,2.3,0,3.5-0.1c-0.1,1.1-0.1,1.7-0.1,1.9v2.5
	c0,0.8,0,1.8,0.1,2.6c-1.2-0.1-2.5-0.1-3.7-0.1h-0.5v1.2h0.4c1.3,0,2.7,0,4-0.1v1.8c-1.3-0.1-2.7-0.1-4-0.1h-0.4v1.3
	c1.6-0.1,3.1-0.3,4.7-0.6l-0.2,1.5C65.8,59.5,66.7,57.1,67.2,54.9L67.2,54.9z M57.8,50.9h-2V52h2V50.9z M57.8,53.4h-2v1.3h2V53.4z
	 M59.7,52H62v-1.2h-2.3V52z M59.7,54.7H62v-1.3h-2.3V54.7z"/>
<path class="st0" d="M100.8,57.8c1.1-1.3,1.7-3,1.7-4.9c0-3.2-2.8-6.1-6.5-6.1c-0.4,3.7-1.2,7.5-2.9,11.1c-0.8,1.8-1.8,3.4-3,3.4
	c-0.7,0-1.4-0.3-2-0.8c-1.8-1.5-2.8-3.8-2.8-6.2c0-4.6,3.2-8,7.1-9.2c0.9-0.3,2-0.4,2.9-0.4c2.8,0,5.5,1,7.2,2.8
	c1.5,1.6,2.1,3.5,2.1,5.6c0,2.7-0.9,5.1-2.7,6.8c-1.4,1.3-2.9,2.1-4.6,2.6l-1.8-2C97.8,60,99.7,59.1,100.8,57.8z M89.1,49.7
	c-1,1.2-1.6,2.9-1.6,4.6c0,1.9,1.2,4.1,2.1,4.1c0.3,0,0.5-0.1,0.7-0.3c0.6-0.6,1.3-2.5,1.6-3.3c0.8-2.3,1.6-5.3,1.8-7.8
	C91.9,47.2,90.4,48.1,89.1,49.7L89.1,49.7z"/>
<path class="st0" d="M136.7,62.4c0.6,0,1.3,0,1.9,0l-1.1,1.8c-3.5,0-7.8-0.6-10.7-2.6l-0.4,1.5c-2.5,0.4-6.1,0.5-8.7,0.7
	c-0.1,0.2-0.2,0.5-0.5,0.5c-0.2,0-0.2-0.2-0.3-0.4l-0.6-2c0.8,0.1,1.7,0.1,2.5,0.1c0.7,0,1.3,0,1.9,0v-2.8c0-0.8,0-1.7,0-2.6
	c-1.2,0.4-2.5,0.7-3.8,0.9l-1.4-1.7c1.8-0.2,4-0.6,5.7-1.1c1.9-0.6,3.7-1.4,5.4-2.5l1.8,0.3c0.2,0,0.4,0.1,0.4,0.3
	c0,0.1-0.2,0.2-0.3,0.3c1.5,0.8,2.8,1.3,4.5,1.7c1.3,0.3,3.5,0.5,4.8,0.5c0.2,0,0.3,0,0.5,0l-1.1,1.8c-1.4-0.1-2.7-0.3-4.1-0.6
	c0,0.4,0,0.8,0,1.3v1.4c0,0.4,0,0.7,0,1.1c0.5-0.5,0.8-0.9,1.2-1.4l1.4,1c0.1,0.1,0.2,0.2,0.2,0.3c0,0.3-0.5,0.3-0.7,0.2
	c-0.6,0.6-1.1,1.1-1.8,1.7C134.6,62.3,135.6,62.4,136.7,62.4L136.7,62.4z M117.9,55.3l-1.8-1.1c1.9-1,3.2-1.9,4.2-3.9
	c-0.5,0.1-2.6,0.4-3.1,0.5c-0.2,0.3-0.3,0.5-0.5,0.5s-0.2-0.2-0.3-0.3l-0.5-1.7h1.3c0.6-0.5,1.1-1.1,1.6-1.6
	c-0.9-0.7-1.8-1.5-2.8-2.1l1.1-1.2c0.3,0.2,0.6,0.4,0.9,0.6c0.7-0.9,1.2-1.7,1.6-2.8l1.6,0.8c0.1,0.1,0.3,0.2,0.3,0.3
	c0,0.3-0.4,0.3-0.6,0.3c-0.5,0.8-1.1,1.6-1.7,2.4c0.2,0.2,0.5,0.4,0.7,0.5c0.6-0.6,1.5-1.8,1.9-2.5l1.5,1l0.1,0.1c0-0.4,0-0.8,0-1.2
	c0.5,0,1.8,0.1,2.3,0.1h0.2c0.3-0.6,0.5-1.2,0.7-1.8l1.7,0.5c0.2,0,0.4,0.1,0.4,0.3c0,0.2-0.4,0.3-0.7,0.4c-0.1,0.2-0.1,0.4-0.2,0.6
	h0.8c0.7,0,1.5,0,2.2,0c0,0.2-0.1,1.8-0.1,2v1c0,0.4,0,1.1,0,1.5c-0.2,0-2.3-0.1-2.5-0.1h-2.1c-0.2,0-0.5,0-0.7,0v0.7h4.3
	c0.4,0,0.7,0,1.1,0v1.1c-0.8,0-1.6,0-2.4,0h-3V51h3.2c0.4,0,0.8,0,1.1,0c0.4,0,0.7,0,1.1,0V52c-0.8,0-1.6,0-2.4,0h-3
	c0,0.3,0,0.7,0.1,1h-2c0.1-0.4,0.1-1.1,0.1-1.5v-5.9c-0.1,0.2-0.4,0.1-0.6,0.1c-0.4,0.5-0.8,1.1-1.3,1.5l1.6,0.6
	c0.1,0,0.3,0.1,0.3,0.3c0,0.3-0.4,0.3-0.6,0.4C122.1,51.5,120.9,53.8,117.9,55.3L117.9,55.3z M119.5,49.3c0.5,0,1-0.1,1.5-0.2
	c0.2-0.5,0.5-1.2,0.5-1.8C121,47.9,120.1,48.8,119.5,49.3L119.5,49.3z M130.2,55.8v0.4c-0.8,0-1.6,0-2.3,0h-1.7c-0.9,0-1.8,0-2.6,0
	v-0.4c-0.8,0.3-1.6,0.6-2.5,0.8c0.6,0,3.2,0.1,3.9,0.1h4.2c1.3,0,2.5,0,3.8,0C132,56.4,131.1,56.1,130.2,55.8L130.2,55.8z
	 M131.1,57.6h-8.3v0.7h8.3V57.6z M122.8,59.2v0.7h8.3v-0.7H122.8z M122.8,60.9v1c1.3-0.1,2.5-0.2,3.8-0.5c-0.2-0.2-0.4-0.3-0.7-0.5
	H122.8z M128.9,55.2c-0.7-0.4-1.2-0.7-1.9-1.1c-0.7,0.4-1.4,0.8-2.1,1.1c0.4,0,0.9,0,1.3,0L128.9,55.2L128.9,55.2z M125.4,46h3.6
	v-0.7h-3.7C125.4,45.2,125.4,46,125.4,46z M125.4,47.6h3.6v-0.8h-3.7C125.4,46.8,125.4,47.6,125.4,47.6z M132.7,61
	c-0.9,0-1.8-0.1-2.7-0.1h-1.3c0.9,0.5,1.9,0.8,2.9,1C131.9,61.6,132.3,61.3,132.7,61L132.7,61z M133.4,43.3h2.4c0.3,0,0.5,0,1-0.1
	l0.9,1.1c-0.7,1.2-1.4,2.3-2.2,3.3c1.2,0.9,1.9,2.3,1.9,3.8s-0.5,2.7-2.2,2.7c-0.3,0-0.5,0-0.8-0.1l-0.5-1.9
	c0.3,0.2,0.8,0.4,1.2,0.4c0.6,0,0.6-0.7,0.6-1.3c0-1.6-0.8-2.7-2-3.5c0.7-1,1.3-2,1.9-3h-2.4v5.9c0,1.2,0.1,2.4,0.1,3.6h-1.9
	c0.1-1.2,0.2-2.4,0.2-3.6v-3.4c0-0.5-0.1-3.6-0.1-4C132.1,43.3,132.7,43.3,133.4,43.3L133.4,43.3z"/>
<path class="st0" d="M165.7,64.3c-1.6-1.2-3.2-2.1-5-2.9c-3.3,2.5-6.3,2.7-10.3,2.7l-1.1-2.3c1,0.1,1.9,0.2,2.9,0.2
	c2.2,0,4.2-0.3,6.1-1.5c-1-0.3-2-0.6-3-0.8c-0.2,0.2-0.4,0.5-0.6,0.8l-2.3-1c0.9-0.7,1.5-1.3,2.3-2.3c-2,0-4.1,0.1-6.1,0.1v-1.8
	c2.3,0.1,4.6,0.1,6.9,0.1h0.3c0.2-0.4,0.4-0.7,0.6-1.1c-1.2,0-2.4,0-3.5,0c0.1-0.6,0.1-2.1,0.1-2.7v-1.8c0-0.8,0-1.7-0.1-2.5
	c1.3,0,2.6,0,3.9,0h6.8c0.6,0,1.1,0,1.8,0c-0.1,0.7-0.1,1.9-0.1,2.6v2.1c0,0.5,0.1,2,0.1,2.4c-0.9,0-2.6-0.1-3.9-0.1h-2.5
	c-0.2,0.4-0.4,0.7-0.6,1.1h4.4c2.3,0,4.7,0,7-0.1v1.8c-1.9-0.1-3.8-0.1-5.7-0.1c-0.4,1-0.9,1.9-1.6,2.7c1.7,0.7,3.3,1.5,4.9,2.4
	L165.7,64.3L165.7,64.3z M163.8,44.7c1.3,0,4.2,0,5.5-0.1c-0.1,0.8-0.1,1.5-0.1,2.3c0,0.8,0,1.6,0.1,2.4H167c0.1-0.4,0.1-0.7,0.1-1
	v-1.8h-15.8c0,0.9,0,1.9,0.1,2.8h-2.3c0.1-0.9,0.1-1.8,0.1-2.8c0-0.7,0-1.3-0.1-2c2.1,0.1,4.2,0.1,6.3,0.1h2.7
	c0-0.8-0.1-1.5-0.2-2.3l2.6,0.3c0.2,0,0.5,0.1,0.5,0.4c0,0.3-0.5,0.5-0.7,0.5c0,0.1,0,0.3,0,0.4c0,0.2,0,0.4,0,0.6L163.8,44.7
	L163.8,44.7z M154.9,50.3h8v-1.2h-8V50.3z M154.9,53.1h8v-1.2h-8V53.1z M157.2,57.2c-0.2,0.3-0.4,0.6-0.7,0.9c1.2,0.3,2.4,0.6,3.5,1
	c0.6-0.6,1.1-1.2,1.4-1.9L157.2,57.2L157.2,57.2z"/>
<path class="st0" d="M185.5,63.2V52.1h1.7v12.8h-7.2v-1.7H185.5z"/>
<path class="st0" d="M3.3,89.4v19.1H1.9V89.4H3.3z"/>
<path class="st0" d="M10.9,92.6v-1.7c1.4-1.2,2.9-1.7,4.5-1.7s2.9,0.5,4,1.6c1.1,1.1,1.6,2.4,1.6,3.9c0,3-2.3,7.2-7,12.6h8.9v1.3
	H10.6c5.9-5.7,8.9-10.3,8.9-13.8c0-1.2-0.4-2.2-1.2-3c-0.8-0.8-1.8-1.2-3.1-1.2c-0.8,0-1.5,0.2-2.2,0.5
	C12.4,91.3,11.7,91.8,10.9,92.6L10.9,92.6z"/>
<path class="st0" d="M38.9,113.6v27.3h-2v-27.3H38.9z"/>
<path class="st0" d="M60.9,113.3v15.5h3.8v1.6h-3.8v10.5h-2v-10.5H46.4v-0.7l13.7-16.4C60.1,113.3,60.9,113.3,60.9,113.3z
	 M58.9,128.7v-11.5l-9.6,11.5H58.9z"/>
<path class="st0" d="M85.7,113.6v27.3h-2v-27.3H85.7z"/>
<path class="st0" d="M107.4,113.6v1.9h-9.7v8.6c0.7-0.1,1.5-0.2,2.2-0.2c2.7,0,4.9,0.8,6.6,2.3c1.7,1.5,2.5,3.6,2.5,6.2
	s-0.8,4.6-2.5,6.3s-3.8,2.5-6.3,2.5c-2.1,0-4.3-0.6-6.6-1.8v-2.3c2.5,1.5,4.8,2.2,6.6,2.2s3.6-0.6,4.8-1.9c1.3-1.3,1.9-2.9,1.9-4.8
	c0-2.1-0.7-3.8-2-5c-1.3-1.2-3.1-1.8-5.3-1.8c-1.2,0-2.5,0.2-3.8,0.6v-12.7L107.4,113.6L107.4,113.6z"/>
<line class="st1" x1="6.8" y1="135.1" x2="51.1" y2="89.2"/>
<g>
	<path class="st0" d="M3.9,207.7c1.4-0.6,3-1.9,3.8-3.2H7c-0.7,0.8-1.3,1.4-2.1,2l-1.3-0.9c0.5-0.3,0.9-0.6,1.4-1.1
		c-0.8,0.3-2.6,1-3.3,1.1c-0.6,0.1-0.7,0.2-0.8,0.4c-0.1,0.1-0.2,0.2-0.2,0.2c0,0-0.1,0-0.1-0.1l-0.3-1.8c0.6-0.1,1.2-0.3,1.8-0.4
		v-3.7H0.4v-1.6H2v-3.2l1.9,0.1c0.1,0,0.2,0.1,0.2,0.2c0,0.1-0.1,0.2-0.2,0.3c-0.1,0.1-0.2,0.1-0.2,0.2v2.4h1.7v1.6H3.7v3.3
		c0.5-0.2,1.1-0.3,1.6-0.5v1.3c0.5-0.6,0.8-1,1.2-1.7H4.9v-1.3h8.9v1.3H8.1c-0.1,0.2-0.2,0.4-0.3,0.6h5.8c0,1-0.1,1.9-0.3,2.9
		c-0.1,0.8-0.4,1.9-1,2.4s-1.4,0.6-2.2,0.6l-0.6-1.6c-0.6,0.7-1.2,1.2-2,1.7l-1.2-0.8c1.4-0.9,2.9-2.4,3.7-3.8H9.2
		c-0.4,0.8-0.9,1.5-1.6,2.1c-0.7,0.7-1.7,1.4-2.5,2L3.9,207.7L3.9,207.7z M6.1,200.7v-5h6.5v5H6.1z M11.1,197H7.7v0.7h3.4V197z
		 M7.7,198.8v0.7h3.4v-0.7H7.7z M11.5,204.5c-0.5,1.1-1,1.9-1.8,2.8c0.3,0.1,0.6,0.1,0.9,0.1c0.4,0,0.6-0.1,0.9-0.4
		c0.4-0.7,0.5-1.6,0.5-2.4L11.5,204.5L11.5,204.5z"/>
	<path class="st0" d="M18.8,203.5c-0.2,2-0.5,3.6-1.3,5.4l-1.9-0.3c1.2-2,1.6-5,1.6-7.3v-3h5.5v5.1L18.8,203.5L18.8,203.5z
		 M20.4,208.1c0.9-0.8,1.7-1.5,2.2-2.6c0.7-1.5,0.9-3.5,0.9-5.1c0-1-0.1-2-0.1-3h-6.9v-1.6h6.9v0.5c0.2,0,0.5,0.1,0.7,0.1
		c1.3,0,3.5-0.6,4.7-1.1l0.9,1.5c0.1,0.2,0.1,0.3,0.1,0.3c0,0.1,0,0.1-0.1,0.1c0,0-0.1,0-0.3-0.1c-0.1,0-0.2-0.1-0.3-0.1
		c-0.1,0-0.4,0.1-0.7,0.1c-0.7,0.2-2.5,0.4-3.2,0.5c0,0.7,0,1.4,0,2h4.5v1.6H28v7.6h-1.8v-7.6h-1c-0.1,1.7-0.2,3.2-0.9,4.7
		c-0.5,1.1-1.4,2.1-2.3,2.9L20.4,208.1z M21.1,202v-2.1H19c0,0.7,0,1.4,0,2.1C18.9,202,21.1,202,21.1,202z"/>
	<path class="st0" d="M53.1,196.6c0.5,0,1.2-0.1,1.8-0.1v1.4c0.6-0.9,1-1.9,1.2-2.9l1.5,0.4c0.1,0,0.2,0.1,0.2,0.2
		c0,0.2-0.2,0.2-0.4,0.3c-0.1,0.3-0.2,0.6-0.3,0.9h3c0.6,0,1.5-0.1,2.1-0.1v1.4c-0.7-0.1-1.4-0.1-2.1-0.1h-0.7
		c0.2,0.4,0.4,0.9,0.6,1.3l-1.3,0.7c-0.3-0.9-0.4-1.2-0.8-2h-1.3c-0.4,0.8-0.8,1.4-1.3,2l-1.6-0.7c0.5-0.4,0.8-0.8,1.2-1.4
		c-0.5-0.1-1.2-0.1-1.7-0.1h-0.5c0.2,0.4,0.4,1.3,0.5,1.7l-1.4,0.5c-0.1-0.6-0.4-1.6-0.6-2.2h-0.9c-0.4,0.6-0.8,0.9-1.3,1.4
		l-1.6-0.7c1.2-0.8,2.3-2.4,2.7-3.8l1.6,0.7c0.1,0,0.2,0.1,0.2,0.2c0,0.2-0.2,0.2-0.5,0.2c-0.1,0.3-0.3,0.5-0.4,0.8L53.1,196.6
		L53.1,196.6z M50,202c-0.6,0-1.4,0.1-2,0.1v-1.6c0.6,0.1,1.4,0.1,2,0.1h1.9c0.6,0,1.4,0,2-0.1v1.6c-0.6-0.1-1.4-0.1-2-0.1h-0.1v3.8
		c0.6-0.1,1.5-0.6,2-0.8l0,1.4c-1.2,0.6-3.8,1.4-5.2,1.7c0,0.1-0.1,0.4-0.3,0.4c-0.1,0-0.2-0.1-0.2-0.2l-0.4-1.5
		c0.9-0.1,1.8-0.3,2.6-0.5V202L50,202L50,202z M54.6,208.3c-0.6,0.6-1.4,0.9-2.1,1.2l-1.1-1.2c3-0.7,3.5-2.4,3.5-5.2
		c0-0.9-0.1-1.9-0.2-2.8c0.6,0,1.2,0.1,1.9,0.1h1.8c0.6,0,1.2,0,1.8-0.1c-0.1,0.6-0.1,2.3-0.1,3l-0.1,4.3c0,0.5,0,0.6,0.5,0.6
		c0.5,0,0.6-0.4,0.6-2.3l1.5,0.8c-0.1,0.6-0.3,1.8-0.6,2.2c-0.4,0.5-0.6,0.5-1.7,0.5c-1.2,0-1.8-0.1-1.8-1.5l0-2.6l-0.9,0.7
		c-0.2-0.6-1-1.7-1.5-2.1C56.1,205.6,55.9,207.1,54.6,208.3L54.6,208.3z M57,202.8c0.6,0.6,1.1,1.2,1.6,1.9l0-3h-2.4
		c0,0.6,0,1.2,0,1.8L57,202.8z"/>
	<path class="st0" d="M67.2,200.6l-0.6,1.5c-0.7-0.6-1.9-1.3-2.8-1.4l0.7-1.4C65.6,199.5,66.3,199.9,67.2,200.6L67.2,200.6z
		 M67.1,202.3l1,1.2c-0.7,2.2-1.2,3.3-2.4,5.4c0,0.1,0,0.2,0,0.3c0,0.1,0,0.2-0.1,0.2c-0.1,0-0.2,0-0.2-0.1l-1.1-1.2
		C65.6,206.5,66.6,204.3,67.1,202.3L67.1,202.3z M68.4,196.4l-0.6,1.4c-0.7-0.6-1.8-1.1-2.7-1.3l0.6-1.3
		C66.8,195.4,67.5,195.8,68.4,196.4L68.4,196.4z M76.7,201.2l0.4,0.4c-0.5,1.7-1.1,3.3-2.2,4.7c1.1,0.8,2.1,1.2,3.4,1.6l-1.1,1.4
		c-1.2-0.4-2.3-1-3.3-1.9c-0.7,0.7-1.8,1.6-2.7,1.9l-1.5-1.2c1.2-0.4,2.1-0.9,3.1-1.7c-1-1.1-1.7-2.4-1.9-3.9h-0.6
		c-0.1,3.1-0.3,4.2-2.1,6.9l-1.6-0.6c1.8-2.3,2.3-4.3,2.3-7.2c0-1.4-0.1-2.9-0.3-4.3c1,0.1,1.9,0.1,2.9,0.1h0.9
		c0-0.8-0.1-1.6-0.1-2.4l1.7,0.1c0.2,0,0.3,0.1,0.3,0.2c0,0.1-0.2,0.3-0.3,0.3c-0.1,0.6-0.1,1.2-0.1,1.8h1c0.8,0,2-0.1,2.8-0.2
		l0.7,0.6c-0.6,1-1.2,2.1-1.7,3.1l-1.5-0.5c0.4-0.5,0.8-1.1,1.1-1.7H74v2.6C74.9,201.3,75.8,201.3,76.7,201.2L76.7,201.2z
		 M72.6,198.8h-2.2v2.6h2.2V198.8z M73.9,205.4c0.7-0.9,1.1-1.7,1.4-2.8h-2.9C72.6,203.7,73.2,204.6,73.9,205.4L73.9,205.4z"/>
	<path class="st0" d="M89.4,199.2c1.5,0,3,0,4.6-0.1v1.6c-1.5-0.1-3-0.1-4.6-0.1h-1.5c0.2,2,1.2,3.8,2.7,5.2c1,0.9,2.3,1.7,3.6,2.1
		l-1.2,1.5c-1.2-0.5-2.8-1.6-3.7-2.5c-1-1-1.8-2.3-2.3-3.6c-0.6,1.6-1.2,2.7-2.4,3.9c-1.1,1.1-2.1,1.7-3.6,2.3L80,208
		c1.9-0.6,3.3-1.5,4.5-3.1c1-1.5,1.4-2.7,1.7-4.4h-1.4c-1.5,0-3,0-4.5,0.1V199c1.5,0.1,3,0.1,4.5,0.1h1.5c0.1-0.7,0.1-1.4,0.1-2.2
		c0-0.6,0-1.2-0.1-1.8l1.9,0.2c0.2,0,0.5,0.1,0.5,0.3s-0.4,0.4-0.6,0.4c0,1-0.1,2-0.1,3L89.4,199.2L89.4,199.2z"/>
	<path class="st0" d="M101.6,209.4c-0.1,0-0.3,0-0.4,0l-0.7-1.7c0.2,0,1.4,0.2,1.5,0.2c0.5,0,0.5-0.3,0.5-1.1v-1.3h-1.9
		c-1.6,0-3.2,0-4.7,0.1v-1.5c1.6,0.1,3.2,0.1,4.7,0.1h1.9c0-0.5-0.1-1.1-0.2-1.7l1.1,0.3c0.5-0.4,0.9-0.7,1.3-1.1h-3.9
		c-0.6,0-1.2,0-1.8,0.1l0-1.4c0.6,0,2.5,0.1,3,0.1h1.8c0.7,0,2.3-0.1,2.9-0.2l0.6,0.8c-0.3,0.3-1.2,1.1-1.5,1.4l-1.8,1.8h1.4
		c1.6,0,3.2,0,4.8-0.1v1.5c-1.6-0.1-3.2-0.1-4.8-0.1H104v0.6c0,0.7,0.1,1.3,0.1,1.9C104.1,209.3,103.2,209.4,101.6,209.4
		L101.6,209.4z M101.3,198h3c0.7,0,1.4,0,2.1-0.1l-1-0.4c0.6-0.7,1-1.5,1.3-2.4l1.4,0.6c0.1,0,0.3,0.1,0.3,0.2
		c0,0.3-0.3,0.4-0.5,0.4c-0.2,0.4-0.8,1.3-1,1.6c1,0,1.9-0.1,2.9-0.1c-0.1,0.6-0.1,1.2-0.1,1.8c0,0.6,0,1.1,0.1,1.7h-1.7
		c0-0.4,0-0.9,0-1.3v-0.8H97.9c0,0.7,0,1.4,0.1,2.1h-1.8c0.1-0.7,0.2-1.4,0.2-2.1c0-0.5,0-0.9-0.1-1.4c0.7,0.1,2.1,0.1,2.9,0.1
		c-0.3-0.8-0.8-1.4-1.4-1.9l1.3-0.8c0.6,0.4,1.2,1.4,1.4,2.1l-1.2,0.7C100,197.9,100.7,198,101.3,198L101.3,198z M102.7,194.8
		c0.7,0.6,1.2,1.3,1.4,2.2l-1.3,0.7c-0.3-0.9-0.7-1.6-1.3-2.2C101.5,195.6,102.7,194.8,102.7,194.8z"/>
	<path class="st0" d="M123,206.4c0,1,0.1,2.1,0.1,3.1h-1.7c0-0.2,0.1-0.4,0.1-0.6h-4.8c0,0.2,0,0.4,0.1,0.6h-1.6
		c0.1-1,0.1-2.1,0.1-3.1v-2.2c-0.8,0.7-1.7,1.2-2.7,1.7l-1.3-1.1c1.6-0.7,3.3-1.7,4.4-3.1c-1.3,0-2.6,0-3.8,0.1v-1.4
		c1.5,0.1,3.1,0.1,4.6,0.1c0.2-0.3,0.3-0.7,0.5-1c-1.2,0-2.3,0-3.5,0.1v-1.4c1.2,0.1,2.5,0.1,3.7,0.1h0.2c0.1-0.3,0.1-0.5,0.2-0.8
		h-0.7c-1.5,0-2.9,0-4.4,0.1v-1.4c1.5,0.1,3,0.1,4.4,0.1h0.9c0.1-0.5,0.1-1,0.1-1.5l1.7,0.1c0.2,0,0.3,0.1,0.3,0.2
		c0,0.1-0.1,0.2-0.4,0.3c-0.1,0.3-0.1,0.6-0.2,0.8h2c1.5,0,2.9,0,4.4-0.1v1.4c-1.5-0.1-3-0.1-4.4-0.1h-2.2c-0.1,0.3-0.1,0.5-0.2,0.8
		h2c1.2,0,2.5,0,3.7-0.1v1.4c-1.2-0.1-2.3-0.1-3.5-0.1c0.1,0.4,0.3,0.7,0.4,1c1.6,0,3.2-0.1,4.8-0.1v1.4c-1.3-0.1-2.7-0.1-4-0.1
		c1.1,1.3,2.8,2.4,4.3,2.8l-1.2,1.3c-0.9-0.4-1.7-0.9-2.5-1.5L123,206.4L123,206.4z M120.6,201.8h-3.2c-0.3,0.4-0.6,0.9-1,1.3h5.2
		C121.2,202.7,120.9,202.3,120.6,201.8z M116.7,205.4h4.9v-1.2h-4.9V205.4z M116.7,207.8h4.9v-1.2h-4.9V207.8z M118.5,199.6
		c-0.1,0.3-0.3,0.7-0.4,1h1.9c-0.1-0.3-0.3-0.7-0.4-1H118.5z"/>
	<path class="st0" d="M133.5,196.2h3.5c1,0,1.8-0.1,2.9-0.1c-0.1,1.2-0.1,2.5-0.1,3.8v4.4c0,1.3,0.1,3.4,0.2,4.7h-1.8
		c0-0.4,0-0.7,0.1-1.1h-6.1c0,0.4,0.1,0.8,0.1,1.1h-1.8c0.1-1.5,0.1-3.1,0.1-4.6v-4c0-1.4,0-2.8-0.1-4.2
		C131.4,196.2,132.5,196.2,133.5,196.2L133.5,196.2z M138.1,197.7h-6.1v3.6h6.1V197.7z M132.1,202.7v3.7h6.1v-3.7H132.1z"/>
	<path class="st0" d="M157.1,205.9v1.6c-1.5-0.1-3.4-0.1-6.1-0.1s-4.8,0.1-6.1,0.1v-1.6c1.9,0.1,3.8,0.1,5.4,0.1v-7.3
		c-1.4,0-2.8,0.1-4.2,0.1v-1.5c1.1,0.1,2.4,0.1,3.6,0.1h2.8c1.1,0,2.5,0,3.7-0.1v1.5c-1.5-0.1-2.7-0.1-4.2-0.1v7.3
		C153.6,206,155.2,206,157.1,205.9L157.1,205.9z"/>
	<path class="st0" d="M164.9,196.4c0,0.2-0.1,0.3-0.4,0.5c0,0.5,0,1.2,0,2.3c0,1.9,0.1,3.5,0.1,4.7h-1.8c0.1-0.9,0.1-2.2,0.1-3.5
		v-1.8c0-0.8,0-1.7-0.1-2.5l1.6,0.1C164.7,196.1,164.9,196.2,164.9,196.4L164.9,196.4z M171.7,196.1c0,0.2-0.1,0.3-0.4,0.5
		c0,0.6-0.1,1.7-0.1,2.5c0,3.1-0.2,4.8-1.1,6.4c-0.9,1.5-2.7,2.8-4.4,3.5l-1.3-1.4c1.8-0.4,3.6-1.5,4.4-2.9c0.7-1.2,0.9-2.1,0.9-5.7
		c0-1.1,0-2.4-0.1-3.2l1.7,0.1C171.6,195.9,171.7,195.9,171.7,196.1L171.7,196.1z"/>
	<path class="st0" d="M181.1,197c1.3,0,2.7,0,4-0.1c1.1,0,2.7-0.1,3.7-0.3l1.2,1.5c-0.6,0.3-0.8,0.6-1.1,1.1
		c-0.9,1.4-2.4,3.2-3.5,4.1l-1.3-1.1c1.3-0.8,2.8-2.5,3.7-4.1c-2.1,0-4.4,0.1-6.4,0.1c-1.6,0-3.1,0.1-4.7,0.2v-1.6
		C178.2,197,179.6,197,181.1,197L181.1,197z M180.9,204.9c0.9-1.5,1.1-3.4,1.1-4.7c0-0.4,0-0.8,0-1.1l1.7,0.2c0.3,0,0.4,0.1,0.4,0.3
		c0,0.2-0.1,0.3-0.4,0.4c-0.2,2.1-0.4,3.8-1.5,5.7c-0.7,1.2-1.6,2.2-2.8,3.1l-1.6-1C179.1,207,180.2,206,180.9,204.9L180.9,204.9z"
		/>
	<path class="st0" d="M196.8,198.3v-1.6h8.1v1.6c-1.3,1.2-2.2,2.6-3,4.2c-0.9,1.9-1.6,3.8-1.7,5.9h-1.8c0.2-2.1,1.1-4.4,2.1-6.2
		c0.8-1.4,1.6-2.6,2.6-3.9L196.8,198.3L196.8,198.3z"/>
	<path class="st0" d="M205.6,208.4l4.2-11.7h2l4.2,11.7h-1.9l-1.1-3.2h-4.3l-1.1,3.2H205.6z M209.2,203.5h3.2l-1.6-4.8L209.2,203.5z
		"/>
	<path class="st0" d="M216.8,208.4c0.1-0.8,0.1-1.5,0.5-2.3c0.2-0.5,0.5-0.9,0.9-1.3c0.7-0.7,1.5-1.4,2.3-1.9
		c0.5-0.4,1.8-1.4,2.1-1.9c0.2-0.4,0.3-0.8,0.3-1.2c0-1.2-0.9-1.9-2-1.9c-1.7,0-2,1.2-2.1,2.6h-1.7c0.1-1.2,0.3-2.3,1.1-3.2
		c0.7-0.7,1.7-1,2.7-1c2,0,3.7,1.4,3.7,3.5c0,0.9-0.3,1.7-0.9,2.3c-0.6,0.6-1.6,1.4-2.3,1.9c-1.1,0.8-2.3,1.6-2.7,2.9h5.9v1.6
		L216.8,208.4L216.8,208.4z"/>
	<path class="st0" d="M226.6,198c0.7-1.2,1.6-1.7,3-1.7s2.4,0.5,3,1.7c0.7,1.4,0.9,3,0.9,4.5s-0.2,3.1-0.9,4.5
		c-0.7,1.2-1.6,1.7-3,1.7s-2.4-0.5-3-1.7c-0.7-1.3-0.9-3-0.9-4.5S225.9,199.3,226.6,198z M227.9,206.2c0.3,0.7,1,1.1,1.7,1.1
		s1.4-0.4,1.7-1.1c0.5-1.1,0.5-2.5,0.5-3.7s-0.1-2.6-0.5-3.7c-0.3-0.7-1-1.1-1.7-1.1s-1.4,0.4-1.7,1.1c-0.5,1.1-0.5,2.5-0.5,3.7
		S227.4,205.1,227.9,206.2z"/>
	<path class="st0" d="M234.6,208.4c0.1-0.8,0.1-1.5,0.5-2.3c0.2-0.5,0.5-0.9,0.9-1.3c0.7-0.7,1.5-1.4,2.3-1.9
		c0.5-0.4,1.8-1.4,2.1-1.9c0.2-0.4,0.3-0.8,0.3-1.2c0-1.2-0.9-1.9-2-1.9c-1.7,0-2,1.2-2.1,2.6h-1.7c0.1-1.2,0.3-2.3,1.1-3.2
		c0.7-0.7,1.7-1,2.7-1c2,0,3.7,1.4,3.7,3.5c0,0.9-0.3,1.7-0.9,2.3c-0.6,0.6-1.6,1.4-2.3,1.9c-1.1,0.8-2.3,1.6-2.7,2.9h5.9v1.6
		L234.6,208.4L234.6,208.4z"/>
	<path class="st0" d="M251.8,198h-0.5c-0.5,0-1.1,0.1-1.6,0.1v-1.4c0.5,0.1,1.1,0.1,1.6,0.1h0.5v-0.1c0-0.4,0-1.3-0.1-1.7l1.7,0.2
		c0.2,0,0.3,0.1,0.3,0.2s-0.1,0.2-0.2,0.3c-0.1,0.1-0.1,0.1-0.3,0.1c-0.1,0.3-0.1,0.7-0.1,1c0.5,0,0.9,0,1.4-0.1v0.8
		c0.3-0.5,0.5-0.9,0.7-1.4l1.4,0.8c0.1,0.1,0.1,0.1,0.1,0.2c0,0.3-0.3,0.3-0.5,0.3c-0.4,0.5-1,1.7-1.5,2.3c0.4,0,0.8-0.1,1.2-0.1
		v1.4c-0.7-0.1-1.3-0.1-2-0.1c-0.3,0.4-0.6,0.8-0.9,1.1h0.4c0.4,0,1.3-0.1,1.7-0.2l0.4,1c-0.3,0.4-0.7,0.7-1,1
		c-0.4,0.3-0.8,0.7-1.1,1v0.4c1-0.1,2.1-0.3,3.1-0.5l-0.3,1.1c-0.4,0.1-2.2,0.4-2.8,0.5v1.4c0,1.6-0.8,1.6-2.6,1.7l-0.5-1.7
		c0.4,0.1,0.9,0.3,1.2,0.3c0.3,0,0.4,0,0.4-0.6v-0.8c-0.8,0.1-1.5,0.3-2.3,0.4c-0.1,0.1-0.2,0.4-0.4,0.4c-0.1,0-0.2-0.1-0.2-0.2
		l-0.1-1.5c1,0,2-0.2,3-0.3c0-0.4,0-1.4-0.1-1.7l0.8,0.2c0.4-0.3,0.6-0.5,0.8-1H252c-0.8,0.7-1.6,1.3-2.5,1.8l-1.1-1.1
		c1.4-0.6,2.9-1.8,4-2.9h-1c-0.7,0-1.6,0-2.3,0.1v-1.4c0.7,0.1,1.6,0.1,2.3,0.1h0.4V198L251.8,198z M253.3,199.7
		c0.3-0.5,0.7-1,1-1.6c-0.3-0.1-0.8-0.1-1.2-0.1v1.7H253.3L253.3,199.7z M260.5,206c0.9,1.1,1.8,1.8,3.1,2.3l-1,1.3
		c-1.2-0.8-2-1.4-3-2.5c-1.1,1.2-2.5,1.8-4,2.4l-1.3-1.3c1.6-0.5,3.3-1,4.4-2.4c-0.7-1.3-1.2-2.7-1.4-4.1c-0.2,0.4-0.4,0.5-0.6,0.9
		l-1.5-0.7c0.6-0.6,1.1-1.2,1.5-2.1c0.6-1.3,1.1-2.9,1.1-4.3c0-0.2,0-0.4,0-0.5l1.9,0.2c0.1,0,0.2,0.1,0.2,0.2
		c0,0.2-0.1,0.2-0.6,0.4c-0.1,0.7-0.2,1.5-0.4,2.2h2.6c0.6,0,1.3-0.1,1.9-0.1v1.5c-0.4-0.1-0.8-0.1-1.2-0.1
		C262.2,201.5,261.7,204,260.5,206L260.5,206z M258.6,199.2c-0.2,0.4-0.4,0.9-0.6,1.3l0.6-0.2c0.1,1.5,0.4,2.9,1,4.3
		c0.9-1.6,1.1-3.6,1.1-5.4L258.6,199.2L258.6,199.2z"/>
	<path class="st0" d="M273,204.9h0.8c1,0,2.1,0,3.2-0.1v1.6c-1.1-0.1-2.1-0.1-3.2-0.1H273v1.6h2.7c1.2,0,2.4-0.1,3.6-0.2v1.5
		c-1.5-0.1-3-0.1-4.5-0.1h-4.7c-1.6,0-3.2,0.1-4.8,0.1v-1.4c1.1,0.1,2.4,0.1,3.5,0.1h2.7v-1.6h-0.8c-1.1,0-2.1,0-3.1,0.1v-1.6
		c1,0.1,2.1,0.1,3.1,0.1h0.8v-1.5c-1,0.1-2,0.2-3.1,0.3c-0.1,0.3-0.2,0.4-0.3,0.4s-0.2-0.1-0.2-0.2l-0.4-1.5c0.5,0,1,0,1.6-0.1
		c0.5-0.6,1-1.3,1.4-2c-0.8,0-1.9,0.1-2.7,0.1v-1.6c0.9,0.1,2,0.1,3,0.1h2.9c1,0,2,0,3-0.1v1.6c-1-0.1-2-0.1-3-0.1h-1.5
		c-0.3,0.7-0.7,1.3-1.1,1.9c1.2-0.1,2.3-0.1,3.5-0.2c-0.3-0.3-0.6-0.5-1-0.7l1.1-0.9c1.1,0.9,1.9,1.8,2.8,2.9l-1.2,1.1
		c-0.2-0.4-0.5-0.9-0.8-1.2c-0.8,0.1-1.7,0.2-2.5,0.3L273,204.9L273,204.9z M274.4,196.7c1.7,0,3.1-0.1,4.7-0.1c0,0.5,0,1,0,1.5
		c0,0.7,0,1.3,0.1,2h-1.5c0.1-0.7,0.1-1.5,0.1-2.2h-10.8c0,0.8,0,1.5,0,2.3h-1.5c0.1-0.9,0.2-2,0.2-2.9c0-0.2,0-0.5,0-0.7
		c1.5,0.1,3,0.1,4.5,0.1h1.5c0-0.6,0-1.1-0.1-1.7l1.8,0.2c0.1,0,0.2,0.1,0.2,0.2s-0.2,0.3-0.5,0.4c0,0.3,0,0.6,0,0.9H274.4
		L274.4,196.7z"/>
</g>
<g>
	<path class="st0" d="M4.6,245.1H2.9V241c-0.3,0.7-0.9,1.6-1.5,2.1L0,242.3c1.2-1.3,2.2-2.9,2.6-4.6H0.3v-1.5h2.6v-4.8l1.4,0.1
		c0.2,0,0.5,0.1,0.5,0.2c0,0.1-0.1,0.1-0.1,0.2c-0.1,0.1-0.2,0.1-0.2,0.2v4.1h2.2v1.5H4.6c0.5,0.9,1.3,1.7,2.1,2.3l-0.9,1.2
		c-0.4-0.4-0.8-0.8-1.2-1.3V245.1z M1.7,232.5c0.4,0.8,0.6,1.6,0.8,2.5L1,235.5c-0.1-0.8-0.4-1.7-0.8-2.4L1.7,232.5L1.7,232.5z
		 M7.1,232.7c0.3,0.1,0.4,0.1,0.4,0.2c0,0.1-0.1,0.1-0.2,0.2c-0.1,0.1-0.2,0.1-0.2,0.2c-0.2,0.7-0.4,1.5-0.8,2.1L5,235
		c0.3-0.8,0.6-1.7,0.7-2.5L7.1,232.7L7.1,232.7z M13.9,239l0.1,1.6l-1.4,0.4v4.2h-1.7v-3.8l-4,1l-0.2-1.5l4.2-1.1v-8.3l1.7,0.2
		c0.2,0,0.4,0.1,0.4,0.2c0,0.1-0.1,0.1-0.2,0.2s-0.2,0.2-0.2,0.2v7.1L13.9,239L13.9,239z M8.4,236.3c0.7,0.5,1.3,1.2,1.8,1.9
		l-1.1,1.1c-0.5-0.7-1.1-1.4-1.8-1.9L8.4,236.3L8.4,236.3z M8.7,232.7c0.6,0.5,1.2,1,1.6,1.7l-1.1,1.1c-0.4-0.7-1-1.2-1.7-1.7
		L8.7,232.7z"/>
	<path class="st0" d="M24.1,231.5c0.1,0,0.1,0.1,0.1,0.1c0,0.1,0,0.1-0.1,0.2c0.8,1,1.9,1.8,3,2.5c1.1,0.7,2.1,1.1,3.3,1.6l-1.2,1.5
		c-1.2-0.4-2.1-0.8-3.1-1.6v1.4H24v1.1h4.2v1.6H24v3.4h2l-1.3-0.7c0.6-0.8,1-1.6,1.3-2.5l1.7,0.8c0.1,0,0.1,0.1,0.1,0.2
		c0,0,0,0.1-0.2,0.1c-0.2,0-0.2,0.1-0.3,0.2c-0.3,0.6-0.7,1.2-1,1.9h2.7v1.7h-12v-1.7h2.6c-0.3-0.8-0.7-1.6-1.2-2.3l1.5-1
		c0.5,0.8,0.9,1.6,1.2,2.4l-1.3,0.8h2.4v-3.4H18v-1.6h4.2v-1.1H20v-1.2c-0.9,0.6-1.7,1.1-2.8,1.6l-1.5-1.4c1.4-0.6,2.3-1,3.6-1.9
		s1.9-1.6,2.7-3L24.1,231.5L24.1,231.5z M25.8,235.6c-1-0.8-1.8-1.5-2.6-2.5c-0.8,1-1.5,1.7-2.5,2.5
		C20.6,235.6,25.7,235.6,25.8,235.6z"/>
	<path class="st0" d="M59.6,236.5c0.9,0,1.8-0.1,2.7-0.1v1.4c-0.9-0.1-1.8-0.1-2.7-0.1v2.5c0.8,0,1.5-0.1,2.3-0.1v1.3
		c-1.2-0.1-3.4-0.1-4.9-0.1H53c-1.6,0-3.2,0.1-4.7,0.2v-1.4c0.8,0.1,1.6,0.1,2.4,0.1v-2.5c-0.9,0-1.8,0-2.7,0.1v-1.4
		c0.9,0.1,1.8,0.1,2.7,0.1v-1.8c-0.5,0.6-0.5,0.6-1.1,1.1L48,235c1.5-0.8,2.8-2.5,3.2-4.1l1.6,0.7c0.1,0,0.2,0.1,0.2,0.2
		c0,0.2-0.4,0.3-0.6,0.3c-0.1,0.3-0.2,0.5-0.4,0.8h6.2c0.8,0,2-0.1,2.8-0.1v1.5c-0.5-0.1-1-0.1-1.6-0.1L59.6,236.5L59.6,236.5z
		 M48.2,244.5c0.9-0.7,1.7-1.7,2-2.8l1.4,0.8c0.1,0.1,0.1,0.1,0.1,0.2c0,0.2-0.3,0.2-0.5,0.2c-0.3,0.8-1.2,1.9-1.8,2.5L48.2,244.5
		L48.2,244.5z M52,236.6h1.1V234H52V236.6z M52,237.7v2.6h1.1v-2.6H52z M52.7,245.2c0-0.4,0.1-0.8,0.1-1.2c0-0.7,0-1.2-0.2-1.9
		L54,242c0.2,0.5,0.3,1.7,0.3,2.2c0,0.3,0,0.6,0,1L52.7,245.2L52.7,245.2z M54.5,236.5h1.1V234h-1.1V236.5z M54.5,237.7v2.6h1.1
		v-2.6H54.5z M56,245.2c-0.1-1.1-0.3-2.1-0.9-3l1.4-0.3c0.5,0.9,0.8,2,0.9,3L56,245.2L56,245.2z M57,236.5h1.2V234H57V236.5z
		 M57,237.7v2.6h1.2v-2.6H57z M60.4,245.5c-0.5-1.1-1.5-2.4-2.3-3.2l1.1-0.6c1.2,1.2,1.5,1.6,2.3,3.1L60.4,245.5L60.4,245.5z"/>
	<path class="st0" d="M66.3,237.3c-0.7,0-1.5,0.1-2.2,0.1v-1.6c0.7,0.1,1.5,0.1,2.2,0.1H67v-0.9c0-1.4,0-2.7-0.1-4.1l1.6,0.2
		c0.1,0,0.3,0,0.3,0.2c0,0.1-0.1,0.2-0.4,0.4c-0.1,1.1-0.1,2.1-0.1,3.2v1h0.1c0.7,0,1.5,0,2.2-0.1v1.6c-0.7-0.1-1.5-0.1-2.2-0.1
		h-0.1v0.3c0.7,1.2,1.4,1.9,2.5,2.8l-0.8,1.3c-0.6-0.6-1.2-1.1-1.8-1.8v1.3c0,1.4,0.1,2.9,0.1,4.3h-1.5c0.1-1.4,0.1-2.9,0.1-4.3
		v-1.3c-0.6,1.1-1.2,2.2-2.2,3.1l-1.3-1c1.5-1.1,2.6-2.8,3.2-4.6L66.3,237.3L66.3,237.3z M66.4,234.7l-1.3,0.7
		c-0.3-0.9-0.6-1.8-1.2-2.5l1.2-0.8C65.8,233,66.1,233.7,66.4,234.7z M71.1,232.9c0.1,0,0.1,0.1,0.1,0.2c0,0.2-0.2,0.3-0.5,0.3
		c-0.3,0.8-0.6,1.5-1.1,2.1l-1.3-0.6c0.6-0.9,0.9-1.6,1.2-2.6L71.1,232.9L71.1,232.9z M75.3,234.7c0-1.2,0-2.5-0.1-3.7l1.7,0.2
		c0.2,0,0.2,0.2,0.2,0.3c0,0.2-0.1,0.2-0.3,0.4c0,0.9-0.1,1.9-0.1,2.8v3.1c0.6-0.2,1.1-0.4,1.7-0.5l0.2,1.7
		c-0.6,0.1-1.2,0.2-1.9,0.3v1.4c0,1.6,0.1,3.3,0.1,4.9h-1.6c0.1-1.6,0.1-3.3,0.1-5v-1l-1.7,0.5c-0.8,0.2-1.5,0.5-2.3,0.7l-0.3-1.8
		c0.9-0.1,1.7-0.2,2.5-0.4l1.8-0.4L75.3,234.7L75.3,234.7z M74.2,236.5l-0.9,1.1c-0.7-0.7-1.2-1-2.1-1.4l1-1.1
		C73,235.4,73.6,235.8,74.2,236.5L74.2,236.5z M74.5,233.1l-0.9,1.2c-0.6-0.7-1.2-1-2.1-1.3l0.9-1.3
		C73.2,232.1,73.8,232.5,74.5,233.1z"/>
</g>
<g>
	<path class="st0" d="M13.5,270v1.6H8v2.7h4.2v1.6H8v3.2h5.8v1.7H0.3v-1.7h5.8V276H2v-1.6h4.2v-2.7H0.7V270h6.2
		c-0.6-0.6-1.5-1.3-2.2-1.8l1.1-1.3c0.9,0.6,2,1.5,2.8,2.2L7.9,270L13.5,270L13.5,270z"/>
	<path class="st0" d="M26.5,271.8c0.2,0.1,0.4,0.2,0.4,0.3c0,0.1-0.1,0.1-0.2,0.2c-0.1,0-0.2,0-0.3,0.2c-0.1,0.1-0.2,0.3-0.3,0.5h4
		v1.4h-3.8v0.8H29v1.3h-2.8v0.8H29v1.3h-2.8v0.9H30v1.4h-7.4v0.4h-1.7v-5.8c-0.1,0.2-0.3,0.3-0.5,0.5l-0.9-0.8v6.1h-1.8v-8
		c-0.3,0.3-0.5,0.6-0.8,1l-1.6-1.2c1.7-1.7,2.6-3.3,3.2-5.6l1.4,0.5c0.2,0.1,0.5,0.1,0.7,0.3v-0.3l1.4,0.1c0.4,0,0.7,0,0.7,0.2
		c0,0.1-0.1,0.1-0.2,0.2c-0.1,0.1-0.2,0.2-0.2,0.2v1.5h1.7v-2.7l1.4,0.1c0.5,0,0.6,0.1,0.6,0.2c0,0.1-0.1,0.2-0.2,0.2
		s-0.2,0.1-0.2,0.2v2h1.8v-2.2l1.5,0.1c0.4,0,0.6,0.1,0.6,0.2c0,0.1-0.1,0.2-0.2,0.2c-0.1,0-0.2,0.1-0.2,0.2v2.9h-3.7L26.5,271.8
		L26.5,271.8z M20.8,268.4c0,0-0.1,0.1-0.2,0.1c-0.1,0.1-0.2,0.1-0.3,0.3c-0.1,0.2-0.2,0.5-0.4,0.9c-0.1,0.2-0.2,0.4-0.3,0.6
		c0.2,0.1,0.4,0.2,0.4,0.4c0,0.1-0.1,0.2-0.2,0.3c-0.1,0.1-0.2,0.1-0.2,0.2v3c1-1,1.6-1.7,2.2-2.9h-1L20.8,268.4L20.8,268.4z
		 M24.5,274.3h-2v0.8h2V274.3z M24.5,276.4h-2v0.8h2V276.4z M22.6,278.5v0.9h2v-0.9H22.6z M23.5,271.7c0.1,0.1,0.3,0.2,0.3,0.3
		c0,0.2-0.2,0.2-0.3,0.2c-0.3,0.1-0.3,0.1-0.5,0.4c-0.1,0.1-0.1,0.2-0.2,0.3h1.3c0.4-0.5,0.7-1,1-1.5h-2.2
		C22.9,271.4,23.5,271.7,23.5,271.7z"/>
	<path class="st0" d="M53.1,268.6c0.5,0,1.2,0,1.8-0.1v1.4c0.6-0.9,1-1.9,1.2-2.9l1.5,0.4c0.1,0,0.2,0.1,0.2,0.2
		c0,0.2-0.2,0.2-0.4,0.3c-0.1,0.3-0.2,0.6-0.3,0.9h3c0.6,0,1.5,0,2.1-0.1v1.4c-0.7-0.1-1.4-0.1-2.1-0.1h-0.7
		c0.2,0.4,0.4,0.9,0.6,1.3l-1.3,0.7c-0.3-0.9-0.4-1.2-0.8-2h-1.3c-0.4,0.8-0.8,1.4-1.3,2l-1.6-0.7c0.5-0.5,0.8-0.8,1.2-1.4
		c-0.5-0.1-1.2-0.1-1.7-0.1h-0.5c0.2,0.4,0.4,1.3,0.5,1.7l-1.4,0.5c-0.1-0.6-0.4-1.6-0.6-2.2h-0.9c-0.4,0.6-0.8,0.9-1.3,1.4
		l-1.6-0.7c1.2-0.8,2.3-2.4,2.7-3.8l1.6,0.7c0.1,0,0.2,0.1,0.2,0.2c0,0.2-0.2,0.2-0.5,0.2c-0.1,0.3-0.3,0.5-0.4,0.8L53.1,268.6
		L53.1,268.6z M50,274c-0.6,0-1.4,0-2,0.1v-1.5c0.6,0.1,1.4,0.1,2,0.1h1.9c0.6,0,1.4,0,2-0.1v1.5c-0.6-0.1-1.4-0.1-2-0.1h-0.1v3.8
		c0.6-0.1,1.5-0.6,2-0.8l0,1.4c-1.2,0.6-3.8,1.4-5.2,1.7c0,0.1-0.1,0.4-0.3,0.4c-0.1,0-0.2-0.1-0.2-0.2l-0.4-1.5
		c0.9-0.1,1.8-0.3,2.6-0.5v-4.2L50,274L50,274z M54.6,280.3c-0.6,0.6-1.4,0.9-2.1,1.2l-1.1-1.2c3-0.7,3.5-2.4,3.5-5.2
		c0-0.9-0.1-1.9-0.2-2.8c0.6,0,1.2,0.1,1.9,0.1h1.8c0.6,0,1.2,0,1.8-0.1c-0.1,0.6-0.1,2.3-0.1,3l-0.1,4.3c0,0.5,0,0.6,0.5,0.6
		c0.5,0,0.6-0.4,0.6-2.3l1.5,0.8c-0.1,0.6-0.3,1.8-0.6,2.2c-0.4,0.5-0.6,0.5-1.7,0.5c-1.2,0-1.8-0.1-1.8-1.5l0-2.6l-0.9,0.7
		c-0.2-0.6-1-1.7-1.5-2.1C56.1,277.6,55.9,279.1,54.6,280.3L54.6,280.3z M57,274.8c0.6,0.6,1.1,1.2,1.6,1.9l0-3h-2.4
		c0,0.6,0,1.2,0,1.8L57,274.8L57,274.8z"/>
	<path class="st0" d="M67.2,272.5l-0.6,1.5c-0.7-0.6-1.9-1.3-2.8-1.4l0.7-1.4C65.6,271.5,66.3,271.9,67.2,272.5L67.2,272.5z
		 M67.1,274.3l1,1.2c-0.7,2.2-1.2,3.3-2.4,5.4c0,0.1,0,0.2,0,0.3c0,0.1,0,0.2-0.1,0.2c-0.1,0-0.2,0-0.2-0.1l-1.1-1.2
		C65.6,278.5,66.6,276.3,67.1,274.3L67.1,274.3z M68.4,268.4l-0.6,1.4c-0.7-0.6-1.8-1.1-2.7-1.3l0.6-1.3
		C66.8,267.4,67.5,267.8,68.4,268.4L68.4,268.4z M76.7,273.2l0.4,0.5c-0.5,1.7-1.1,3.3-2.2,4.7c1.1,0.8,2.1,1.2,3.4,1.5l-1.1,1.4
		c-1.2-0.4-2.3-1-3.3-1.9c-0.7,0.7-1.8,1.6-2.7,2l-1.5-1.2c1.2-0.5,2.1-0.9,3.1-1.7c-1-1.1-1.7-2.4-1.9-3.9h-0.6
		c-0.1,3.1-0.3,4.2-2.1,6.9l-1.6-0.6c1.8-2.3,2.3-4.3,2.3-7.2c0-1.4-0.1-2.9-0.3-4.3c1,0,1.9,0.1,2.9,0.1h0.9c0-0.8-0.1-1.6-0.1-2.4
		l1.7,0.1c0.2,0,0.3,0.1,0.3,0.2c0,0.1-0.2,0.3-0.3,0.3c-0.1,0.6-0.1,1.2-0.1,1.8h1c0.8,0,2-0.1,2.8-0.2l0.7,0.6
		c-0.6,1-1.2,2.1-1.7,3.1l-1.5-0.5c0.4-0.5,0.8-1.1,1.1-1.7H74v2.6C74.9,273.3,75.8,273.3,76.7,273.2L76.7,273.2z M72.6,270.8h-2.2
		v2.6h2.2V270.8z M73.9,277.4c0.7-0.9,1.1-1.7,1.4-2.8h-2.9C72.6,275.7,73.2,276.6,73.9,277.4L73.9,277.4z"/>
	<path class="st0" d="M89.4,271.2c1.5,0,3,0,4.6-0.1v1.6c-1.5-0.1-3-0.1-4.6-0.1h-1.5c0.2,2,1.2,3.8,2.7,5.2c1,0.9,2.3,1.7,3.6,2.1
		l-1.2,1.5c-1.2-0.5-2.8-1.6-3.7-2.5c-1-1-1.8-2.3-2.3-3.6c-0.6,1.6-1.2,2.7-2.4,3.9c-1.1,1.1-2.1,1.7-3.6,2.3L80,280
		c1.9-0.6,3.3-1.5,4.5-3.1c1-1.5,1.4-2.7,1.7-4.4h-1.4c-1.5,0-3,0-4.5,0.1V271c1.5,0.1,3,0.1,4.5,0.1h1.5c0.1-0.7,0.1-1.4,0.1-2.2
		c0-0.6,0-1.2-0.1-1.8l1.9,0.2c0.2,0,0.5,0,0.5,0.3s-0.4,0.4-0.6,0.4c0,1-0.1,2-0.1,3L89.4,271.2L89.4,271.2z"/>
	<path class="st0" d="M101.6,281.4c-0.1,0-0.3,0-0.4,0l-0.7-1.7c0.2,0,1.4,0.2,1.5,0.2c0.5,0,0.5-0.3,0.5-1.1v-1.3h-1.9
		c-1.6,0-3.2,0-4.7,0.1v-1.5c1.6,0.1,3.2,0.1,4.7,0.1h1.9c0-0.5-0.1-1.1-0.2-1.7l1.1,0.3c0.5-0.4,0.9-0.7,1.3-1.1h-3.9
		c-0.6,0-1.2,0-1.8,0.1l0-1.4c0.6,0,2.5,0.1,3,0.1h1.8c0.7,0,2.3-0.1,2.9-0.2l0.6,0.8c-0.3,0.3-1.2,1.1-1.5,1.4l-1.8,1.8h1.4
		c1.6,0,3.2,0,4.8-0.1v1.5c-1.6-0.1-3.2-0.1-4.8-0.1H104v0.6c0,0.7,0.1,1.3,0.1,2C104.1,281.3,103.2,281.4,101.6,281.4L101.6,281.4z
		 M101.3,270h3c0.7,0,1.4,0,2.1,0l-1-0.5c0.6-0.7,1-1.5,1.3-2.4l1.4,0.6c0.1,0,0.3,0.1,0.3,0.2c0,0.3-0.3,0.4-0.5,0.4
		c-0.2,0.4-0.8,1.3-1,1.6c1,0,1.9-0.1,2.9-0.1c-0.1,0.6-0.1,1.2-0.1,1.8c0,0.6,0,1.1,0.1,1.7h-1.7c0-0.4,0-0.9,0-1.3v-0.8H97.9
		c0,0.7,0,1.4,0.1,2.1h-1.8c0.1-0.7,0.2-1.4,0.2-2.1c0-0.5,0-0.9-0.1-1.4c0.7,0.1,2.1,0.1,2.9,0.1c-0.3-0.8-0.8-1.4-1.4-2l1.3-0.8
		c0.6,0.5,1.2,1.4,1.4,2.1l-1.2,0.7C100,269.9,100.7,270,101.3,270L101.3,270z M102.7,266.8c0.7,0.6,1.2,1.3,1.4,2.2l-1.3,0.7
		c-0.3-0.9-0.7-1.5-1.3-2.2C101.5,267.6,102.7,266.8,102.7,266.8z"/>
	<path class="st0" d="M118.8,270.7v0.3c0,0.9-0.2,3.1-0.6,3.8l-1.4-0.5c0.4-0.9,0.7-2.4,0.7-3.4c0-0.2,0-0.3,0-0.5L118.8,270.7
		L118.8,270.7z M125.6,272.3h0.8v-0.9h-0.5c-0.7,0-1.5,0-2.3,0.1v-1.4c0.7,0.1,1.6,0.1,2.3,0.1h0.5v-0.9h-0.7c-0.9,0-1.8,0-2.8,0.1
		v-1.3c0.9,0.1,1.8,0.1,2.8,0.1h0.7c0-0.4,0-0.9,0-1.3l1.7,0.1c0.1,0,0.3,0,0.3,0.2c0,0.1-0.1,0.2-0.2,0.3c-0.1,0-0.1,0.1-0.2,0.1
		c0,0.2,0,0.4,0,0.6h0.6c0.9,0,1.9,0,2.8-0.1v1.3c-0.9-0.1-1.9-0.1-2.8-0.1h-0.6v0.9h0.3c0.7,0,1.6,0,2.3-0.1v1.4
		c-0.8-0.1-1.5-0.1-2.3-0.1h-0.3v0.9h0.8c1,0,2.1,0,3.1-0.1v1.4c-1-0.1-2.1-0.1-3.1-0.1h-3c-1,0-2.1,0-3.1,0.1v-1.3l-1,0.4
		c-0.2-0.9-0.5-1.6-0.9-2.4c0,0.4,0,0.7,0,1v4.8c0,0.8,0.1,4.8,0.1,5.3l-1.8,0c0.1-0.8,0.2-1.7,0.2-2.5c0.1-0.9,0.1-1.8,0.1-2.8
		v-4.7c0-1.5,0-3,0-4.4l1.5,0.2c0.3,0,0.4,0,0.4,0.2c0,0.1-0.1,0.2-0.4,0.4c-0.1,0.9-0.1,1.7-0.1,2.6l1.2-0.6
		c0.5,0.6,0.9,1.7,1.1,2.4l-0.3,0.1C123.6,272.3,124.6,272.3,125.6,272.3L125.6,272.3z M128,281.6l-0.5-1.4c0.5,0,0.8,0.1,1.3,0.1
		c0.3,0,0.3-0.1,0.3-0.6v-0.4h-4c0,0.7,0,1.4,0,2.1h-1.5c0.1-0.4,0.1-0.7,0.1-1c0-0.5,0-0.7,0-1.1v-4c0-0.4,0-0.8,0-1.2
		c0.6,0,1.3,0,1.9,0.1h2.8c0.2,0,1.7-0.1,2.1-0.1c0,0.5-0.1,1.9-0.1,2.4v2.3c0,0,0.1,1.2,0.1,1.6c0,0.6-0.2,0.9-0.8,1
		C129.2,281.5,128.4,281.6,128,281.6L128,281.6z M125,276.3h4v-0.9h-4C125,275.4,125,276.3,125,276.3z M125,278.2h4v-0.9h-4
		C125,277.4,125,278.2,125,278.2z"/>
	<path class="st0" d="M137.9,281.5h-1.7c0-0.2,0.1-2.5,0.1-2.7v-0.1h-0.5c-0.7,0-1.5,0.1-2.2,0.1v-1.4c0.6,0.1,1.6,0.1,2.3,0.1h0.5
		V276h-0.5c-0.5,0-1.6,0.1-2.2,0.2v-1.5c0.4,0.1,1,0.1,1.4,0.1c-0.3-0.7-0.6-1.2-0.9-1.8c-0.3,0-0.7,0-1,0.1v-1.5
		c0.8,0.1,1.8,0.1,2.6,0.1h0.6V270h-0.3c-0.4,0-1.8,0.1-2.1,0.1v-1.4c0.4,0.1,1.9,0.1,2.3,0.1h0.2c0-0.6,0-1.2,0-1.9l1.4,0.1
		c0.3,0,0.5,0,0.5,0.3c0,0.2-0.3,0.4-0.5,0.5c0,0.3,0,0.7,0,1h0.4c0.8,0,1.6-0.1,2.4-0.1v1.4c-0.8-0.1-1.5-0.1-2.3-0.1h-0.5v1.7h0.7
		c0.6,0,1.9,0,2.5-0.1v1.5c-0.4,0-0.7-0.1-1.1-0.1c-0.2,0.6-0.5,1.2-0.7,1.8c0.3,0,1.2-0.1,1.4-0.1v1.4c-0.7,0-1.7-0.1-2.4-0.1h-0.4
		v1.5h0.5c0.5,0,1.8,0,2.3-0.1v1.4c-0.7,0-1.7-0.1-2.2-0.1h-0.5v0.1C137.8,279.6,137.8,280.8,137.9,281.5L137.9,281.5z M137.8,274.8
		c0.2-0.6,0.4-1.2,0.6-1.9h-2.8c0.3,0.5,0.6,1.3,0.9,1.9H137.8L137.8,274.8z M148,280.4l-1,1c-0.6-0.4-1.2-0.8-1.7-1.4
		c-0.4,0.6-0.8,1-1.3,1.4l-1-1c0,0.4,0.1,0.7,0.1,1h-1.7c0.1-1.1,0.1-3.8,0.1-5v-5.5c0-0.7-0.1-3-0.1-3.6c0.7,0.1,1.5,0.1,2.2,0.1
		h1.5c0.7,0,1.5,0,2.2-0.1c0,1.1,0,3.1-0.6,4c-0.4,0.6-1.1,0.8-1.8,0.8c-0.2,0-0.4,0-0.7,0l-0.6-1.5c0.5,0.1,1,0.1,1.4,0.1
		c0.7,0,0.8-0.6,0.9-2.1h-3v4.2h2.2c0.8,0,1.6,0,2.5-0.1c-0.1,1.9-0.5,4.3-1.4,6C146.6,279.4,147.3,279.9,148,280.4L148,280.4z
		 M145.9,274.1h-3.2v2.5c0,1.3,0.1,2.5,0.1,3.8c0.5-0.5,1-0.9,1.4-1.4c-0.7-1.1-1.3-2.9-1.4-4.2l1.2-0.6c0.1,1.1,0.4,2.3,1,3.3
		C145.5,276.4,145.8,275.2,145.9,274.1L145.9,274.1z"/>
	<path class="st0" d="M154.9,281.4c-0.1,0-0.3,0-0.4,0l-0.7-1.7c0.2,0,1.4,0.2,1.5,0.2c0.5,0,0.5-0.3,0.5-1.1v-1.3h-1.9
		c-1.6,0-3.2,0-4.7,0.1v-1.5c1.6,0.1,3.1,0.1,4.7,0.1h1.9c0-0.5-0.1-1.1-0.2-1.7l1.1,0.3c0.5-0.4,0.9-0.7,1.3-1.1h-3.9
		c-0.6,0-1.2,0-1.8,0.1l0-1.4c0.6,0,2.5,0.1,3,0.1h1.8c0.7,0,2.3-0.1,2.9-0.2l0.6,0.8c-0.3,0.3-1.2,1.1-1.5,1.4l-1.8,1.8h1.4
		c1.6,0,3.2,0,4.8-0.1v1.5c-1.6-0.1-3.2-0.1-4.8-0.1h-1.5v0.6c0,0.7,0.1,1.3,0.1,2C157.4,281.3,156.5,281.4,154.9,281.4L154.9,281.4
		z M154.7,270h3c0.7,0,1.4,0,2.1,0l-1-0.5c0.6-0.7,1-1.5,1.3-2.4l1.4,0.6c0.1,0,0.3,0.1,0.3,0.2c0,0.3-0.3,0.4-0.5,0.4
		c-0.2,0.4-0.8,1.3-1,1.6c1,0,1.9-0.1,2.9-0.1c-0.1,0.6-0.1,1.2-0.1,1.8c0,0.6,0,1.1,0.1,1.7h-1.7c0-0.4,0-0.9,0-1.3v-0.8h-10.4
		c0,0.7,0,1.4,0.1,2.1h-1.8c0.1-0.7,0.2-1.4,0.2-2.1c0-0.5,0-0.9-0.1-1.4c0.7,0.1,2.1,0.1,2.9,0.1c-0.3-0.8-0.8-1.4-1.4-2l1.3-0.8
		c0.6,0.5,1.2,1.4,1.4,2.1l-1.2,0.7C153.4,269.9,154,270,154.7,270L154.7,270z M156.1,266.8c0.7,0.6,1.1,1.3,1.4,2.2l-1.3,0.7
		c-0.3-0.9-0.7-1.5-1.3-2.2L156.1,266.8z"/>
	<path class="st0" d="M168.5,281.3H167c0.1-0.5,0.1-1.5,0.1-2v-1.2c-0.4,0.5-0.6,0.8-1.1,1.1l-1.3-1c1.4-1,2.6-2.6,3-4.3h-0.1
		c-0.6,0-1.1,0-1.7,0v-1.2c0.7,0,1.3,0.1,2,0.1c0-0.3,0-0.6,0-1v-0.4h-0.4c-0.5,0-1.7,0-2.2,0.1v-1.2c0.7,0,1.5,0.1,2.2,0.1h0.4V269
		c-0.7,0-1.4,0-2.1,0v-1.2c0.7,0,1.4,0,2.1,0h1.9c0.7,0,1.3,0,2,0c-0.1,0.6-0.1,1.2-0.1,1.8v0.7c0.2,0,0.3,0,0.4,0v1.1h-0.4v1.6
		c0,0.3,0,0.6,0,0.9h-2.6c-0.1,0.5-0.2,1-0.4,1.4h1.3c0.4,0,1.3,0,1.7,0c0,0.5,0,1.4,0,2v1.7c0,0.7,0,1.3,0,2h-1.4
		c0-0.3,0.1-0.4,0.1-0.7h-1.9c0,0,0,0.1,0,0.1C168.5,280.6,168.5,281.1,168.5,281.3L168.5,281.3z M168.5,279.2h1.9v-2.6h-1.9V279.2z
		 M170.5,272.8v-1.4h-1.2v0.2c0,0.4,0,0.8,0,1.2H170.5z M170.5,270.4V269h-1.2v1.4H170.5z M176.7,281.5h-1.6
		c0.2-1.3,0.2-3.1,0.2-4.4v-0.2h-0.6c-0.8,0-1.7,0-2.5,0.1v-1.6c0.8,0.1,1.7,0.1,2.5,0.1h0.6v-1.7h-0.3c-0.7,0-1.4,0-2.2,0v-1.2
		c0.3,0,0.5,0,0.9,0h0.3c0.3,0,0.7,0,1,0h0.3v-1.8h-0.4c-0.7,0-1.8,0-2.5,0.1v-1.3c0.5,0,1.1,0,1.6,0c-0.2-0.9-0.5-1.5-1.1-2.2
		l1.3-0.6c0.6,0.6,0.9,1.3,1.2,2.1l-1.3,0.6h3.1l-0.9-0.4c0.4-0.6,0.9-1.7,1-2.5l1.5,0.6c0.1,0,0.3,0.1,0.3,0.3
		c0,0.2-0.4,0.3-0.5,0.3c-0.2,0.5-0.5,1.2-0.8,1.7c0.6,0,1.2,0,1.8-0.1v1.3c-0.1,0-0.3,0-0.4,0c-0.7,0-1.3,0-2,0h-0.4v1.8h0.4
		c0.8,0,1.2,0,2.1-0.1v1.2c-0.8,0-1.3,0-2,0h-0.5v1.7h0.5c0.8,0,1.7,0,2.5-0.1v1.6c-0.8-0.1-1.7-0.1-2.5-0.1h-0.5v0.2
		c0,0.1,0,0.6,0,0.7C176.6,278.6,176.6,280.7,176.7,281.5L176.7,281.5z"/>
	<path class="st0" d="M188.1,270.7v0.3c0,0.9-0.2,3.1-0.6,3.8l-1.4-0.5c0.4-0.9,0.7-2.4,0.7-3.4c0-0.2,0-0.3,0-0.5L188.1,270.7
		L188.1,270.7z M194.9,272.3h0.8v-0.9h-0.5c-0.7,0-1.5,0-2.3,0.1v-1.4c0.7,0.1,1.6,0.1,2.3,0.1h0.5v-0.9H195c-0.9,0-1.8,0-2.8,0.1
		v-1.3c0.9,0.1,1.8,0.1,2.8,0.1h0.7c0-0.4,0-0.9,0-1.3l1.7,0.1c0.1,0,0.3,0,0.3,0.2c0,0.1-0.1,0.2-0.2,0.3c-0.1,0-0.1,0.1-0.2,0.1
		c0,0.2,0,0.4,0,0.6h0.6c0.9,0,1.9,0,2.8-0.1v1.3c-0.9-0.1-1.9-0.1-2.8-0.1h-0.6v0.9h0.3c0.7,0,1.6,0,2.3-0.1v1.4
		c-0.8-0.1-1.5-0.1-2.3-0.1h-0.3v0.9h0.8c1,0,2.1,0,3.1-0.1v1.4c-1-0.1-2.1-0.1-3.1-0.1h-3c-1,0-2.1,0-3.1,0.1v-1.3l-1,0.4
		c-0.2-0.9-0.5-1.6-0.9-2.4c0,0.4,0,0.7,0,1v4.8c0,0.8,0.1,4.8,0.1,5.3l-1.8,0c0.1-0.8,0.2-1.7,0.2-2.5c0.1-0.9,0.1-1.8,0.1-2.8
		v-4.7c0-1.5,0-3,0-4.4l1.5,0.2c0.3,0,0.4,0,0.4,0.2c0,0.1-0.1,0.2-0.4,0.4c-0.1,0.9-0.1,1.7-0.1,2.6l1.2-0.6
		c0.5,0.6,0.9,1.7,1.1,2.4l-0.3,0.1C192.9,272.3,193.9,272.3,194.9,272.3L194.9,272.3z M197.3,281.6l-0.5-1.4c0.5,0,0.8,0.1,1.3,0.1
		c0.3,0,0.3-0.1,0.3-0.6v-0.4h-4c0,0.7,0,1.4,0,2.1h-1.5c0.1-0.4,0.1-0.7,0.1-1c0-0.5,0-0.7,0-1.1v-4c0-0.4,0-0.8,0-1.2
		c0.6,0,1.3,0,1.9,0.1h2.8c0.2,0,1.7-0.1,2.1-0.1c0,0.5-0.1,1.9-0.1,2.4v2.3c0,0,0.1,1.2,0.1,1.6c0,0.6-0.2,0.9-0.8,1
		C198.6,281.5,197.8,281.6,197.3,281.6L197.3,281.6z M194.3,276.3h4v-0.9h-4V276.3z M194.3,278.2h4v-0.9h-4V278.2z"/>
	<path class="st0" d="M207.3,281.5h-1.7c0-0.2,0.1-2.5,0.1-2.7v-0.1h-0.5c-0.7,0-1.5,0.1-2.2,0.1v-1.4c0.6,0.1,1.6,0.1,2.3,0.1h0.5
		V276h-0.5c-0.5,0-1.6,0.1-2.2,0.2v-1.5c0.4,0.1,1,0.1,1.4,0.1c-0.3-0.7-0.6-1.2-0.9-1.8c-0.3,0-0.7,0-1,0.1v-1.5
		c0.8,0.1,1.8,0.1,2.6,0.1h0.6V270h-0.3c-0.4,0-1.8,0.1-2.1,0.1v-1.4c0.4,0.1,1.9,0.1,2.3,0.1h0.2c0-0.6,0-1.2,0-1.9l1.4,0.1
		c0.3,0,0.5,0,0.5,0.3c0,0.2-0.3,0.4-0.5,0.5c0,0.3,0,0.7,0,1h0.4c0.8,0,1.6-0.1,2.4-0.1v1.4c-0.8-0.1-1.5-0.1-2.3-0.1h-0.5v1.7h0.7
		c0.6,0,1.9,0,2.5-0.1v1.5c-0.4,0-0.7-0.1-1.1-0.1c-0.2,0.6-0.5,1.2-0.7,1.8c0.3,0,1.2-0.1,1.4-0.1v1.4c-0.7,0-1.7-0.1-2.4-0.1h-0.4
		v1.5h0.5c0.5,0,1.8,0,2.3-0.1v1.4c-0.7,0-1.7-0.1-2.2-0.1h-0.5v0.1C207.1,279.6,207.2,280.8,207.3,281.5L207.3,281.5z M207.1,274.8
		c0.2-0.6,0.4-1.2,0.6-1.9H205c0.3,0.5,0.6,1.3,0.9,1.9H207.1L207.1,274.8z M217.3,280.4l-1,1c-0.6-0.4-1.2-0.8-1.7-1.4
		c-0.4,0.6-0.8,1-1.3,1.4l-1-1c0,0.4,0.1,0.7,0.1,1h-1.7c0.1-1.1,0.1-3.8,0.1-5v-5.5c0-0.7-0.1-3-0.1-3.6c0.7,0.1,1.5,0.1,2.2,0.1
		h1.5c0.7,0,1.5,0,2.2-0.1c0,1.1,0,3.1-0.6,4c-0.4,0.6-1.1,0.8-1.8,0.8c-0.2,0-0.4,0-0.7,0l-0.6-1.5c0.5,0.1,1,0.1,1.4,0.1
		c0.7,0,0.8-0.6,0.9-2.1h-3v4.2h2.2c0.8,0,1.6,0,2.5-0.1c-0.1,1.9-0.5,4.3-1.4,6C215.9,279.4,216.7,279.9,217.3,280.4L217.3,280.4z
		 M215.2,274.1h-3.2v2.5c0,1.3,0.1,2.5,0.1,3.8c0.5-0.5,1-0.9,1.4-1.4c-0.7-1.1-1.3-2.9-1.4-4.2l1.2-0.6c0.1,1.1,0.4,2.3,1,3.3
		C214.9,276.4,215.2,275.2,215.2,274.1L215.2,274.1z"/>
	<path class="st0" d="M229.5,277.1l-1.2,1.3c-0.6-0.9-1.4-1.9-2.4-2.8c-1.6,2.1-3.6,3.8-5.8,5.2l-1.6-1.3c2.6-0.9,5.4-3.7,6.3-5
		c-0.8-0.8-2.2-1.7-3.1-2.2l0.9-1.4c1.1,0.7,2.1,1.4,3.1,2.3c0.8-1.4,1.9-3.8,2-5.5l1.8,0.8c0.3,0.1,0.3,0.2,0.3,0.3
		c0,0.2-0.2,0.2-0.5,0.3c-0.4,1.1-1.2,3.2-2.3,5.3C228.1,275.3,229.1,276.5,229.5,277.1L229.5,277.1z"/>
	<path class="st0" d="M232,273.9v-1.6c1.4,0.1,2.8,0.1,4.2,0.1h4.2c1.4,0,2.9,0,4.3-0.1v1.6c-1.4-0.1-2.9-0.1-4.3-0.1h-0.9
		c-0.1,2-0.4,3.7-1.4,5c-0.9,1.1-2.3,1.8-3.6,2.2l-1.4-1.3c1.5-0.3,3.1-1,4-2.3c0.7-1,0.8-2.4,0.8-3.6h-1.7
		C234.9,273.8,233.4,273.8,232,273.9L232,273.9z M239.7,269.8H237c-0.9,0-1.9,0-2.8,0.1v-1.7c0.9,0.1,1.9,0.1,2.8,0.1h2.7
		c0.9,0,1.9,0,2.8-0.1v1.7C241.6,269.9,240.6,269.8,239.7,269.8z M245.3,270.6l-0.9,0.7c-0.4-0.6-0.8-1.2-1.3-1.6l0.8-0.7
		C244.4,269.4,244.9,270,245.3,270.6L245.3,270.6z M246.3,268.7l-0.8,0.7c-0.4-0.6-0.9-1.1-1.4-1.6l0.7-0.7
		C245.3,267.6,246,268.2,246.3,268.7z"/>
	<path class="st0" d="M252.2,281.3h-1.6c0.1-0.9,0.1-1.7,0.1-2.6v-3.6c-1.1,0.8-2.4,1.5-3.5,2l-1.3-1.1c3.3-1.2,6.1-3.2,8-5.8
		l1.1,0.8c0.2,0.2,0.3,0.3,0.3,0.4c0,0.2-0.2,0.3-0.7,0.3c-0.6,0.6-1.2,1.4-2.6,2.5v4.1C252.1,279.4,252.1,280.4,252.2,281.3
		L252.2,281.3z"/>
	<path class="st0" d="M261.9,269c1.3,0,2.7,0,4,0c1.1,0,2.7-0.1,3.7-0.3l1.2,1.5c-0.6,0.3-0.8,0.6-1.1,1.1c-0.9,1.4-2.4,3.2-3.5,4.1
		l-1.3-1.1c1.3-0.8,2.8-2.5,3.7-4.1c-2.1,0-4.4,0-6.4,0.1c-1.6,0-3.1,0.1-4.7,0.2v-1.6C258.9,269,260.3,269,261.9,269L261.9,269z
		 M261.7,276.9c0.9-1.5,1.1-3.4,1.1-4.7c0-0.4,0-0.8,0-1.1l1.7,0.2c0.3,0,0.4,0.1,0.4,0.3c0,0.2-0.1,0.3-0.4,0.5
		c-0.2,2.1-0.4,3.8-1.5,5.7c-0.7,1.2-1.6,2.2-2.8,3.1l-1.6-1C259.9,279,261,278,261.7,276.9L261.7,276.9z"/>
	<path class="st0" d="M279.3,271.8c-0.5,0-1.1-0.1-1.6-0.1h-1.6c-0.5,0-1.1,0-1.6,0.1V271c-0.7,0.6-1.3,1-2.1,1.4l-1-1.1
		c2.2-0.9,3.6-2.3,4.6-4.4l1.6,0.5c0.1,0,0.3,0.1,0.3,0.2c0,0.1-0.1,0.2-0.2,0.2c0.8,1.1,2.5,2,3.7,2.5l-0.9,1.1
		c-0.5-0.2-0.8-0.4-1.3-0.7V271.8L279.3,271.8z M273.4,280.7l-1.4-0.5c1.2-1.3,1.8-2.9,1.8-4.7v-1.6c0-0.2,0-1.2-0.1-1.4
		c0.8,0,1.5,0,2.3,0h2.5c0.6,0,1.5-0.1,2.1-0.2c0,0.5,0,0.9,0,1.4v1.9c0,0.5,0,1,0.1,1.4c-0.7,0-1.5,0-2.2,0h-3.6
		c0,0.2-0.1,0.4-0.1,0.6c0.4,0,0.8,0,1.2,0h3.1c0.2,0,1.3-0.1,1.6-0.1c0,0.4,0,0.8,0,1.1v1.3c0,0.3,0.1,1.1,0.1,1.4h-1.5
		c0-0.1,0-0.3,0-0.4h-3.2c0,0.2,0,0.3,0,0.5h-1.6c0-0.4,0.1-1.1,0.1-1.5v-1.1c0-0.2,0-0.5-0.1-0.6
		C274.2,279.2,274,279.8,273.4,280.7L273.4,280.7z M275,276.1h4.3v-0.9H275C275,275.5,275,275.8,275,276.1z M275,274.4h4.2v-0.9H275
		V274.4z M276.8,268.5c-0.5,0.7-0.9,1.3-1.5,1.9c0.3,0,0.6,0,1,0h1.6c0.4,0,0.8,0,1.1,0C278.2,270,277.3,269.2,276.8,268.5z
		 M276,280.1h3.3v-1.4H276V280.1z M283.4,277.8h-1.7c0.1-0.9,0.1-1.9,0.1-2.9v-3.3c0-0.9,0-2.3-0.1-3.1l1.6,0.2c0.2,0,0.3,0,0.3,0.2
		c0,0.1-0.1,0.2-0.4,0.4c0,0.1,0,0.5,0,0.7v4.7C283.2,275.8,283.3,276.9,283.4,277.8L283.4,277.8z M286,267.5c0.2,0,0.4,0,0.4,0.2
		c0,0.2-0.2,0.3-0.4,0.4c0,1.2,0,2.7,0,4.2v4.2c0,1.1,0,2.2,0,3.3c0,0.6-0.1,1.1-0.7,1.3c-0.4,0.2-1.1,0.2-1.6,0.2
		c-0.2,0-0.4,0-0.5,0l-0.7-1.5c0.4,0.1,0.8,0.1,1.2,0.1c0.7,0,0.8-0.1,0.8-0.5v-7.3c0-0.8,0-1.5,0-2.3c0-0.9,0-1.7-0.1-2.6
		L286,267.5L286,267.5z"/>
	<path class="st0" d="M299.2,272.5l1.7,0.8c0.2,0.1,0.3,0.1,0.3,0.3c0,0.1-0.1,0.2-0.3,0.2c-0.1,0-0.2,0-0.3,0.1
		c-0.1,0.2-0.7,1.5-0.8,1.8c-0.3,0.8-0.8,1.5-1.3,2.1c0.3,0.5,1.1,1.9,1.7,1.9s1.1-1.4,1.2-2l1.2,1.3c-0.3,0.8-1.2,2.7-2.2,2.7
		c-1,0-2.5-1.9-3-2.6c-1.1,1-2.4,2-3.8,2.4l-1.2-1.3c1.7-0.4,3-1.1,4.2-2.4c-1-1.9-1.3-4.3-1.6-6.4h-4.4v2.1h3.7c0,0.6,0,1,0,1.3
		c0,0.5,0,1.2-0.2,2.2c-0.1,0.6-0.3,1.2-0.6,1.8c-0.5,0.7-1.3,0.8-2.1,0.8c-0.2,0-0.3,0-0.4,0l-0.4-1.6c0.6,0.1,1,0.2,1.3,0.2
		c0.7,0,1-1.4,1-2.7c0-0.2,0-0.3,0-0.5h-2.2c0,1.6-0.6,4.8-1.4,6.2l-1.5-0.7c1.1-1.8,1.5-4.8,1.5-6.9c0-1.1-0.1-2.6-0.4-3.6
		c1.1,0.2,2.6,0.1,3.8,0.2h2.3c-0.1-1-0.1-2-0.2-3l1.7,0.1c0.2,0,0.4,0,0.4,0.3c0,0.1,0,0.1-0.2,0.3c-0.1,0.1-0.2,0.1-0.2,0.2
		c0,0.7,0,1.4,0,2.1h1.9c0.7,0,2.8-0.1,3.4-0.2v1.7c-1.2-0.1-2.4-0.1-3.5-0.1h-1.8c0.1,1.8,0.4,3.3,1.2,5
		C298.4,275.1,298.9,273.8,299.2,272.5L299.2,272.5z M300.4,268.8l-1.2,0.9c-0.4-0.8-0.9-1.4-1.6-1.9l1.1-0.9
		C299.4,267.4,300.1,268.1,300.4,268.8L300.4,268.8z"/>
	<path class="st0" d="M309.7,281.4c-0.1,0-0.3,0-0.4,0l-0.7-1.7c0.2,0,1.4,0.2,1.5,0.2c0.5,0,0.5-0.3,0.5-1.1v-1.3h-1.9
		c-1.6,0-3.2,0-4.7,0.1v-1.5c1.6,0.1,3.1,0.1,4.7,0.1h1.9c0-0.5,0-1.1-0.2-1.7l1.1,0.3c0.5-0.4,0.9-0.7,1.3-1.1h-3.9
		c-0.6,0-1.2,0-1.8,0.1l0-1.4c0.6,0,2.5,0.1,3,0.1h1.8c0.7,0,2.3-0.1,3-0.2l0.6,0.8c-0.3,0.3-1.2,1.1-1.5,1.4l-1.8,1.8h1.4
		c1.6,0,3.2,0,4.8-0.1v1.5c-1.6-0.1-3.2-0.1-4.8-0.1h-1.5v0.6c0,0.7,0,1.3,0,2C312.2,281.3,311.3,281.4,309.7,281.4L309.7,281.4z
		 M309.4,270h3c0.7,0,1.4,0,2.1,0l-1-0.5c0.6-0.7,1-1.5,1.3-2.4l1.4,0.6c0.1,0,0.3,0.1,0.3,0.2c0,0.3-0.3,0.4-0.5,0.4
		c-0.2,0.4-0.8,1.3-1,1.6c1,0,2-0.1,3-0.1c0,0.6-0.1,1.2-0.1,1.8c0,0.6,0,1.1,0.1,1.7h-1.7c0-0.4,0-0.9,0-1.3v-0.8H306
		c0,0.7,0,1.4,0.1,2.1h-1.8c0.1-0.7,0.2-1.4,0.2-2.1c0-0.5,0-0.9-0.1-1.4c0.7,0.1,2.1,0.1,2.9,0.1c-0.3-0.8-0.8-1.4-1.4-2l1.3-0.8
		c0.6,0.5,1.2,1.4,1.4,2.1l-1.2,0.7C308.1,269.9,308.8,270,309.4,270L309.4,270z M310.8,266.8c0.7,0.6,1.1,1.3,1.4,2.2l-1.3,0.7
		c-0.3-0.9-0.7-1.5-1.3-2.2L310.8,266.8L310.8,266.8z"/>
	<path class="st0" d="M324.3,274.4h-1.5c0-0.6,0.1-1.3,0.1-1.9c-0.6,0.8-1.3,1.4-2.1,2l-1.1-0.9c1.1-0.6,2.1-1.4,2.8-2.5h-0.1
		c-0.8,0-1.6,0-2.4,0.1v-1.4c0.8,0.1,1.6,0.1,2.4,0.1h0.5v-0.4c0-0.8,0-1.7-0.1-2.5l1.6,0.2c0.1,0,0.3,0,0.3,0.2s-0.3,0.3-0.4,0.3
		c0,0.5,0,1.2,0,1.7v0.4h0.5c0.8,0,1.6,0,2.4-0.1v1.4c-0.8-0.1-1.6-0.1-2.4-0.1h-0.1c0.7,0.8,1.5,1.5,2.5,2l-0.9,1.1
		c-0.9-0.5-1.5-1.1-2.1-1.8C324.2,273,324.2,273.7,324.3,274.4L324.3,274.4z M322.3,277.3c-0.8,0-1.6,0-2.4,0.1V276
		c0.8,0.1,1.6,0.1,2.4,0.1h0.3c0-0.5,0-0.9,0-1.4l1.6,0.2c0.1,0,0.2,0.1,0.2,0.2s-0.1,0.2-0.4,0.3c0,0.3,0,0.5,0,0.8h0.6
		c0.8,0,1.6,0,2.4-0.1v1.4c-0.8-0.1-1.6-0.1-2.4-0.1H324c0,0.1,0,0.1,0,0.2c0.7,0.9,1.6,1.7,2.5,2.4l-1.1,1.1
		c-0.7-0.6-1.4-1.3-1.9-2.1c-0.6,1.2-1.2,2-2.3,2.7l-1.2-1c0.8-0.4,1.4-1,1.9-1.7c0.4-0.5,0.5-1,0.6-1.6H322.3z M322.5,268.9
		l-1.2,0.9c-0.4-0.7-0.8-1.2-1.4-1.7l1.1-0.8C321.7,267.8,322.1,268.2,322.5,268.9L322.5,268.9z M330.3,279.2c0.1,0,0.1,0.1,0.1,0.2
		c0,0.2-0.2,0.2-0.4,0.2c0,0-0.1,0-0.1,0c-0.7,0.9-1.4,1.6-2.4,2.2l-1.1-1c1.1-0.5,2-1.2,2.6-2.3c-0.5,0-1,0-1.5,0.1
		c0.1-0.9,0.1-1.9,0.1-2.8v-2.8c0-1,0-1.9-0.1-2.9c0.7,0.1,1.4,0.1,2.1,0.1l0.3-1.4h-0.4c-0.9,0-1.8,0-2.7,0.1v-0.6
		c-0.1,0.1-0.2,0.1-0.4,0.1c-0.2,0.5-0.5,1.1-0.9,1.5l-1.2-0.5c0.4-0.5,0.9-1.3,1.1-1.9l1.4,0.6v-0.4c0.9,0.1,1.8,0.1,2.6,0.1h2.2
		c0.9,0,1.9-0.1,2.7-0.2v1.4c-0.9-0.1-1.8-0.1-2.7-0.1h-0.3l-0.4,1.4h0.8c0.7,0,1.4,0,2.2-0.1c0,0.9-0.1,1.9-0.1,2.9v2.8
		c0,0.9,0,1.9,0.1,2.8c-0.7-0.1-1.4-0.1-2.2-0.1h-2.2c-0.2,0-0.4,0-0.6,0L330.3,279.2L330.3,279.2z M329,272.5h3.5v-1.1H329V272.5z
		 M329,274.9h3.5v-1.1H329V274.9z M329,277.2h3.5V276H329V277.2z M331.5,279.4l1.1-0.9c0.6,1,1.4,1.6,2.4,2.1l-1.1,1
		C332.9,281,332.1,280.4,331.5,279.4L331.5,279.4z"/>
</g>
<g>
	<path class="st0" d="M177.3,141.5l-0.7-0.9c3.6-2.6,5.7-5.3,6.1-8.1c-1.3,0.8-2.5,1.2-3.6,1.2c-1.3,0-2.4-0.4-3.2-1.3
		s-1.3-1.9-1.3-3.2c0-1.3,0.4-2.4,1.3-3.3s2-1.3,3.3-1.3c1.6,0,2.8,0.5,3.7,1.5s1.4,2.4,1.4,4.2C184.3,134.5,182,138.1,177.3,141.5z
		 M183,131c0-0.2,0-0.5,0-0.7c0-1.4-0.3-2.5-1-3.3s-1.6-1.2-2.7-1.2c-1,0-1.8,0.3-2.5,1s-1,1.4-1,2.4c0,1,0.3,1.8,1,2.4s1.5,1,2.4,1
		C180.6,132.6,181.9,132,183,131z"/>
	<path class="st0" d="M188.8,128.5v2.3h-1.6v-2.3H188.8z M188.8,136.9v2.3h-1.6v-2.3H188.8z"/>
	<path class="st0" d="M196.6,124.7c1.5,0,2.7,0.7,3.7,2.2s1.5,3.6,1.5,6.3c0,2.5-0.5,4.5-1.5,6s-2.2,2.3-3.7,2.3
		c-1.5,0-2.8-0.7-3.8-2.2s-1.5-3.4-1.5-5.9c0-3,0.5-5.2,1.6-6.6S195.2,124.7,196.6,124.7z M196.5,140.3c1.2,0,2.2-0.7,2.9-2.1
		s1.1-3.1,1.1-5.2c0-2.1-0.4-3.8-1.1-5.2s-1.7-2.1-2.9-2.1c-1.2,0-2.1,0.7-2.9,2s-1.1,3.1-1.1,5.2c0,2.2,0.4,3.9,1.1,5.2
		S195.4,140.3,196.5,140.3z"/>
	<path class="st0" d="M209.1,124.7c1.5,0,2.7,0.7,3.7,2.2s1.5,3.6,1.5,6.3c0,2.5-0.5,4.5-1.5,6s-2.2,2.3-3.7,2.3
		c-1.5,0-2.8-0.7-3.8-2.2s-1.5-3.4-1.5-5.9c0-3,0.5-5.2,1.6-6.6S207.7,124.7,209.1,124.7z M209,140.3c1.2,0,2.2-0.7,2.9-2.1
		s1.1-3.1,1.1-5.2c0-2.1-0.4-3.8-1.1-5.2s-1.7-2.1-2.9-2.1c-1.2,0-2.1,0.7-2.9,2s-1.1,3.1-1.1,5.2c0,2.2,0.4,3.9,1.1,5.2
		S207.8,140.3,209,140.3z"/>
	<path class="st0" d="M218,132.9h12.3v0.8H218V132.9z"/>
	<path class="st0" d="M236.5,124.9v16.4h-1.2v-16.4H236.5z"/>
	<path class="st0" d="M250.5,124.9l-7.5,16.6l-1.1-0.4l6.8-15h-8.9v-1.1H250.5z"/>
	<path class="st0" d="M253.7,128.5v2.3h-1.6v-2.3H253.7z M253.7,136.9v2.3h-1.6v-2.3H253.7z"/>
	<path class="st0" d="M261.5,124.7c1.5,0,2.7,0.7,3.7,2.2s1.5,3.6,1.5,6.3c0,2.5-0.5,4.5-1.5,6s-2.2,2.3-3.7,2.3
		c-1.5,0-2.8-0.7-3.8-2.2s-1.5-3.4-1.5-5.9c0-3,0.5-5.2,1.6-6.6S260.2,124.7,261.5,124.7z M261.5,140.3c1.2,0,2.2-0.7,2.9-2.1
		s1.1-3.1,1.1-5.2c0-2.1-0.4-3.8-1.1-5.2s-1.7-2.1-2.9-2.1c-1.2,0-2.1,0.7-2.9,2s-1.1,3.1-1.1,5.2c0,2.2,0.4,3.9,1.1,5.2
		S260.3,140.3,261.5,140.3z"/>
	<path class="st0" d="M273.8,124.7c1.5,0,2.7,0.7,3.7,2.2s1.5,3.6,1.5,6.3c0,2.5-0.5,4.5-1.5,6s-2.2,2.3-3.7,2.3
		c-1.5,0-2.8-0.7-3.8-2.2s-1.5-3.4-1.5-5.9c0-3,0.5-5.2,1.6-6.6S272.4,124.7,273.8,124.7z M273.7,140.3c1.2,0,2.2-0.7,2.9-2.1
		s1.1-3.1,1.1-5.2c0-2.1-0.4-3.8-1.1-5.2s-1.7-2.1-2.9-2.1c-1.2,0-2.1,0.7-2.9,2s-1.1,3.1-1.1,5.2c0,2.2,0.4,3.9,1.1,5.2
		S272.6,140.3,273.7,140.3z"/>
</g>
<g>
	<path class="st0" d="M170.5,91.6V108h-1.2V91.6H170.5z"/>
	<path class="st0" d="M174.8,93.6v-1.2c1-0.7,2.1-1.1,3.4-1.1c1.4,0,2.6,0.4,3.5,1.2s1.4,1.8,1.4,3c0,0.9-0.3,1.6-0.8,2.3
		s-1.2,1.2-2.2,1.5v0c2.1,0.7,3.2,2.1,3.2,4.2c0,1.4-0.5,2.6-1.4,3.4s-2.1,1.3-3.5,1.3c-1.4,0-2.6-0.3-3.8-0.8v-1.1
		c1.1,0.5,2.3,0.8,3.6,0.8c1.1,0,2.1-0.3,2.8-1s1.1-1.5,1.1-2.5c0-1.1-0.4-2-1.1-2.7s-1.8-1-3.1-1v-1.1c1.2,0,2.2-0.3,2.9-0.9
		s1.1-1.4,1.1-2.2c0-0.9-0.4-1.6-1.1-2.2s-1.6-0.9-2.7-0.9C177,92.5,175.9,92.9,174.8,93.6z"/>
	<path class="st0" d="M188,95.2v2.3h-1.6v-2.3H188z M188,103.6v2.3h-1.6v-2.3H188z"/>
	<path class="st0" d="M195.8,91.4c1.5,0,2.7,0.7,3.7,2.2s1.5,3.6,1.5,6.3c0,2.5-0.5,4.5-1.5,6s-2.2,2.3-3.7,2.3
		c-1.5,0-2.8-0.7-3.8-2.2s-1.5-3.4-1.5-5.9c0-3,0.5-5.2,1.6-6.6S194.4,91.4,195.8,91.4z M195.7,107c1.2,0,2.2-0.7,2.9-2.1
		s1.1-3.1,1.1-5.2c0-2.1-0.4-3.8-1.1-5.2s-1.7-2.1-2.9-2.1c-1.2,0-2.1,0.7-2.9,2s-1.1,3.1-1.1,5.2c0,2.2,0.4,3.9,1.1,5.2
		S194.6,107,195.7,107z"/>
	<path class="st0" d="M208.3,91.4c1.5,0,2.7,0.7,3.7,2.2s1.5,3.6,1.5,6.3c0,2.5-0.5,4.5-1.5,6s-2.2,2.3-3.7,2.3
		c-1.5,0-2.8-0.7-3.8-2.2s-1.5-3.4-1.5-5.9c0-3,0.5-5.2,1.6-6.6S206.9,91.4,208.3,91.4z M208.2,107c1.2,0,2.2-0.7,2.9-2.1
		s1.1-3.1,1.1-5.2c0-2.1-0.4-3.8-1.1-5.2s-1.7-2.1-2.9-2.1c-1.2,0-2.1,0.7-2.9,2s-1.1,3.1-1.1,5.2c0,2.2,0.4,3.9,1.1,5.2
		S207.1,107,208.2,107z"/>
	<path class="st0" d="M217.7,99.6H230v0.8h-12.3V99.6z"/>
	<path class="st0" d="M236.5,91.6V108h-1.2V91.6H236.5z"/>
	<path class="st0" d="M242.4,108.2l-0.7-0.9c3.6-2.6,5.7-5.3,6.1-8.1c-1.3,0.8-2.5,1.2-3.6,1.2c-1.3,0-2.4-0.4-3.2-1.3
		s-1.3-1.9-1.3-3.2c0-1.3,0.4-2.4,1.3-3.3s2-1.3,3.3-1.3c1.6,0,2.8,0.5,3.7,1.5s1.4,2.4,1.4,4.2
		C249.4,101.2,247.1,104.9,242.4,108.2z M248.1,97.8c0-0.2,0-0.5,0-0.7c0-1.4-0.3-2.5-1-3.3s-1.6-1.2-2.7-1.2c-1,0-1.8,0.3-2.5,1
		s-1,1.4-1,2.4c0,1,0.3,1.8,1,2.4s1.5,1,2.4,1C245.7,99.3,247,98.8,248.1,97.8z"/>
	<path class="st0" d="M253.4,95.2v2.3h-1.6v-2.3H253.4z M253.4,103.6v2.3h-1.6v-2.3H253.4z"/>
	<path class="st0" d="M261.2,91.4c1.5,0,2.7,0.7,3.7,2.2s1.5,3.6,1.5,6.3c0,2.5-0.5,4.5-1.5,6s-2.2,2.3-3.7,2.3
		c-1.5,0-2.8-0.7-3.8-2.2s-1.5-3.4-1.5-5.9c0-3,0.5-5.2,1.6-6.6S259.9,91.4,261.2,91.4z M261.2,107c1.2,0,2.2-0.7,2.9-2.1
		s1.1-3.1,1.1-5.2c0-2.1-0.4-3.8-1.1-5.2s-1.7-2.1-2.9-2.1c-1.2,0-2.1,0.7-2.9,2s-1.1,3.1-1.1,5.2c0,2.2,0.4,3.9,1.1,5.2
		S260,107,261.2,107z"/>
	<path class="st0" d="M273.7,91.4c1.5,0,2.7,0.7,3.7,2.2s1.5,3.6,1.5,6.3c0,2.5-0.5,4.5-1.5,6s-2.2,2.3-3.7,2.3
		c-1.5,0-2.8-0.7-3.8-2.2s-1.5-3.4-1.5-5.9c0-3,0.5-5.2,1.6-6.6S272.3,91.4,273.7,91.4z M273.7,107c1.2,0,2.2-0.7,2.9-2.1
		s1.1-3.1,1.1-5.2c0-2.1-0.4-3.8-1.1-5.2s-1.7-2.1-2.9-2.1c-1.2,0-2.1,0.7-2.9,2s-1.1,3.1-1.1,5.2c0,2.2,0.4,3.9,1.1,5.2
		S272.5,107,273.7,107z"/>
</g>
<g>
	<path class="st0" d="M137.3,93.2v12.3h-2.2V93.2H137.3z"/>
	<path class="st0" d="M148.5,93v7.2h1v1.8h-1v3.5h-2.2V102h-5v-1.4l6-7.5H148.5z M146.2,96.8l-2.7,3.4h2.8L146.2,96.8L146.2,96.8z"
		/>
	<path class="st0" d="M152.7,102.9c0.4,0,0.7,0.1,0.9,0.4s0.4,0.6,0.4,1c0,0.4-0.1,0.7-0.4,0.9s-0.6,0.4-1,0.4c-0.4,0-0.7-0.1-1-0.4
		s-0.4-0.6-0.4-0.9c0-0.4,0.1-0.7,0.4-1S152.3,102.9,152.7,102.9z"/>
	<path class="st0" d="M137.3,125.7V138h-2.2v-12.3H137.3z"/>
	<path class="st0" d="M148.7,125.7v2.1h-3.9v2.6l0.2,0h0.2c0.8,0,1.4,0.2,2,0.5s1.1,0.8,1.4,1.4s0.5,1.2,0.5,2
		c0,1.2-0.4,2.1-1.2,2.8s-1.8,1.1-3.1,1.1c-1.1,0-2.1-0.2-3-0.7v-2.1c0.9,0.6,1.8,0.8,2.6,0.8c0.7,0,1.2-0.2,1.6-0.5
		s0.7-0.8,0.7-1.4c0-0.6-0.3-1.1-0.8-1.5s-1.2-0.5-2.1-0.5c-0.4,0-0.9,0.1-1.4,0.2v-6.7H148.7z"/>
	<path class="st0" d="M152.7,135.4c0.4,0,0.7,0.1,0.9,0.4s0.4,0.6,0.4,1c0,0.4-0.1,0.7-0.4,0.9s-0.6,0.4-1,0.4c-0.4,0-0.7-0.1-1-0.4
		s-0.4-0.6-0.4-0.9c0-0.4,0.1-0.7,0.4-1S152.3,135.4,152.7,135.4z"/>
</g>
</svg>
