<?xml version="1.0" encoding="UTF-8"?><svg id="b" xmlns="http://www.w3.org/2000/svg" viewBox="0 0 335.01 281.76"><defs><style>.d{stroke:#fff;stroke-miterlimit:10;}.d,.e{fill:#fff;}.e{stroke-width:0px;}</style></defs><g id="c"><path class="e" d="m.32,7.6v-1.57c1.41.1,2.83.13,4.24.13h4.18c1.42,0,2.87-.03,4.29-.14v1.6c-1.42-.1-2.87-.14-4.29-.14h-.88c-.06,2-.4,3.73-1.42,5.03-.85,1.07-2.32,1.84-3.63,2.18l-1.36-1.26c1.5-.32,3.15-.96,4-2.31.66-1.04.77-2.43.78-3.63h-1.67c-1.41,0-2.83.03-4.24.13Zm7.68-4.08h-2.74c-.9,0-1.86.05-2.75.14v-1.7c.86.1,1.89.13,2.75.13h2.74c.88,0,1.92-.03,2.79-.13v1.7c-.9-.1-1.87-.14-2.79-.14Zm5.59.77l-.85.72c-.35-.58-.82-1.17-1.33-1.63l.77-.7c.56.46,1.01,1.01,1.41,1.62Zm1.04-1.87l-.82.69c-.42-.58-.9-1.12-1.44-1.57l.74-.69c.54.4,1.15,1.04,1.52,1.57Z"/><path class="e" d="m23.73,15.01h-1.55c.05-.86.08-1.7.08-2.56v-3.65c-1.15.78-2.4,1.5-3.46,2l-1.33-1.15c3.31-1.17,6.11-3.22,7.97-5.76l1.09.82c.22.16.34.32.34.43,0,.18-.19.26-.67.26-.56.62-1.23,1.36-2.58,2.45v4.13c0,1.07.05,2.1.11,3.04Z"/><path class="e" d="m36.27,6.55l-.74,1.28c-.85-.53-2.51-1.33-3.58-1.65l.67-1.34c1.39.48,2.61,1.06,3.65,1.71Zm3.25,4.66c-1.26,1.07-2.98,2.18-4.88,3.2-.14.29-.27.46-.43.46-.1,0-.14-.03-.34-.29l-1.1-1.46c1.87-.46,4.1-1.79,5.62-2.99,1.65-1.28,3.46-3.23,4.53-5.04l.98,1.39c-1.06,1.65-2.82,3.39-4.37,4.72Zm-1.52-8.39l-.62,1.23c-.8-.54-2.72-1.49-3.65-1.81l.66-1.3c1.12.42,2.66,1.18,3.62,1.87Zm4.85-.16l-.8.82c-.54-.58-1.1-.99-1.76-1.39l.74-.82c.66.38,1.33.9,1.83,1.39Zm1.76-1.25l-.79.82c-.58-.54-1.2-1.02-1.9-1.46l.75-.77c.72.42,1.33.83,1.94,1.41Z"/><path class="e" d="m57.84,10.44l-1.09,1.34c-.37-.4-.79-.8-1.22-1.14-1.6,2.13-3.68,3.49-6.05,4.18l-1.2-1.33c2.42-.5,4.48-1.68,6.02-3.73-1.01-.66-2.05-1.17-3.12-1.63l.8-1.01c.77.26,2.42.98,3.12,1.36.62-1.07,1.07-2.31,1.3-3.41-1.42,0-3.04.02-4.55.06-1.04,1.52-1.97,2.61-3.15,3.46l-1.54-.93c2.18-1.23,4.13-4.13,4.83-6.5l1.74.69c.19.08.29.16.29.29,0,.26-.32.32-.66.37-.27.5-.56.99-.78,1.36.58,0,1.39-.02,2.29-.05.82-.03,1.81-.08,2.72-.51l1.18,1.15c-.54.48-.67.64-.86,1.22-.38,1.2-.9,2.51-1.5,3.62.5.35.96.72,1.42,1.14Z"/><path class="e" d="m66.92,3.04c0,.24-.21.37-.53.54-.02,2.19-.05,4.58-.82,6.53-.56,1.46-1.55,2.64-3.14,3.54l-1.26-1.34c1.38-.58,2.27-1.5,2.85-2.75.59-1.3.69-3.14.69-4.45,0-.9-.08-1.74-.21-2.64l1.89.26c.35.05.53.1.53.32Zm3.95-.35c0,.19-.13.3-.45.53-.1,1.47-.11,2.88-.11,4.77v3.2c1.49-.77,3.22-2.51,4.31-4.56l1.07,1.28c-1.58,2.5-3.44,4.21-5.92,5.55l-1.14-.85c.1-1.12.11-2.56.11-3.68v-3.27c0-.98-.03-2.46-.1-3.47l1.79.19c.29.03.43.13.43.3Z"/><path class="e" d="m83.03,3.28h2.91c1.28,0,2.56-.02,3.83-.05-.06.93-.1,2.19-.1,3.2v2.71c0,1.3.08,3.04.19,3.91h-1.94c.02-.19.03-.45.05-.82h-3.65c-1.7,0-3.7.05-5.14.18v-1.74c1.71.13,3.42.14,5.15.14h3.71v-6.11h-3.65c-1.5,0-3.68,0-5.39.19v-1.73c1.33.11,2.67.13,4.02.13Z"/><path class="e" d="m107.31,5.41l.64,1.55c-2.69,3.12-6.45,5.3-10.37,6.72-.1.4-.19.54-.34.54s-.22-.16-.34-.38l-.86-1.67c3.75-.7,8.85-3.52,11.27-6.77Zm-6.61-1.33l-.91,1.42c-.98-.85-2.34-1.71-3.49-2.21l.88-1.44c1.25.56,2.51,1.3,3.52,2.23Z"/><path class="e" d="m111.63,7.54v-1.66c1.41.11,2.82.14,4.23.14h4.16c1.42,0,2.85-.03,4.27-.14v1.66c-1.42-.11-2.85-.14-4.27-.14h-.77c-.06,1.95-.42,3.73-1.44,5.01-1.02,1.26-2.29,1.89-3.57,2.27l-1.47-1.26c1.52-.26,2.95-.86,3.78-1.97.67-.88,1.06-2.13,1.06-4.05h-1.75c-1.41,0-2.82.03-4.23.14Zm7.62-4.15h-2.67c-.88,0-1.86.05-2.72.14v-1.78c.8.1,1.89.14,2.72.14h2.67c.83,0,1.94-.05,2.75-.14v1.78c-.88-.11-1.86-.14-2.75-.14Z"/><path class="e" d="m139.11,5.41l.64,1.55c-2.69,3.12-6.45,5.3-10.37,6.72-.1.4-.19.54-.34.54s-.22-.16-.34-.38l-.86-1.67c3.75-.7,8.85-3.52,11.27-6.77Zm-6.61-1.33l-.91,1.42c-.98-.85-2.34-1.71-3.49-2.21l.88-1.44c1.25.56,2.51,1.3,3.52,2.23Z"/><path class="e" d="m146.25,6.53l-1.52.53c-.4-1.17-.91-2.22-1.7-3.23l1.49-.56c.8.98,1.31,1.98,1.73,3.27Zm9.48-2.83c0,.18-.19.3-.64.45-.66,2.08-1.5,4.31-2.85,6.05-1.34,1.76-3.59,3.54-5.57,4.24l-1.41-1.31c2.05-.61,4.23-2,5.68-3.86,1.04-1.33,1.79-3.07,2.23-4.66.19-.7.27-1.26.32-1.95l1.78.7c.29.11.46.19.46.34Zm-5.49,2.1l-1.57.5c-.3-1.18-.86-2.4-1.63-3.35l1.55-.5c.74.9,1.41,2.23,1.65,3.35Z"/><path class="e" d="m167.89,10.07c1.06-.3,2.67-.98,3.51-1.71l1.22,1.28s.06.11.06.16c0,.1-.1.18-.24.18-.1,0-.34-.03-.66-.1-1.01.43-1.98.96-3.04,1.3,1.23,1.3,2.83,2.15,4.56,2.64l-.86,1.44c-1.68-.7-3.38-1.68-4.63-3.01-.96-1.02-1.62-2.22-2.13-3.51-.37.51-.83,1.01-1.33,1.41v2.75c.93-.21,1.87-.38,2.79-.66l-.19,1.33c-1.09.34-2.19.59-3.31.86-1.01.26-2.05.46-3.07.72-.14.29-.24.48-.48.48-.18,0-.19-.03-.26-.27l-.42-1.55c1.12-.05,2.37-.32,3.47-.59v-2.13c-1.02.53-2.37,1.1-3.49,1.33l-1.01-1.36c2.1-.16,4.69-1.3,6.05-2.91h-.83c-1.62,0-3.23.03-4.83.13v-1.55c1.6.1,3.22.13,4.83.13h1.65v-1.22h-1.41c-1.23,0-2.48.03-3.73.1v-1.33c1.25.05,2.5.08,3.73.08h1.41v-1.04h-1.42c-1.47,0-2.93.03-4.4.08v-1.33c1.47.06,2.93.1,4.4.1h1.42c-.02-.54-.05-1.1-.06-1.65l1.83.22c.13.02.22.06.22.21s-.11.21-.38.38c-.02.27-.03.56-.05.83h1.44c1.47,0,2.95-.03,4.42-.1v1.33c-1.47-.05-2.95-.08-4.42-.08h-1.44v1.04h.77c1.25,0,2.5-.03,3.75-.08v1.33c-1.25-.06-2.5-.1-3.75-.1h-.77v1.22h1.63c1.63,0,3.26-.03,4.9-.13v1.55c-1.63-.1-3.27-.13-4.9-.13h-1.46c.21.67.51,1.33.91,1.92Z"/><path class="e" d="m181.36,5.84v1.57c-.53-.1-1.07-.13-1.62-.14v3.19c.72-.18,1.23-.38,1.92-.64v1.22c-.93.43-3.86,1.62-4.85,1.98-.11.35-.22.53-.4.53-.19,0-.27-.26-.3-.42l-.38-1.6c.58-.08,2.02-.38,2.53-.59v-3.67h-.18c-.56,0-1.14.06-1.7.14v-1.57c.56.08,1.14.13,1.7.13h.18v-3.22c-.78,0-1.55.02-2.34.05v-1.39c.61.05,2.03.1,2.62.1h1.2c.43,0,1.46-.06,1.92-.1v1.39c-.54-.05-1.38-.06-1.92-.05v3.22c.46,0,1.15-.05,1.62-.13Zm6.02,7.43c0,.43.06.61.56.61h.64c.64,0,.86-.8,1.02-1.87l1.18,1.04c-.5,1.94-.74,2.11-1.94,2.11h-1.55c-1.31,0-1.33-.74-1.33-1.73v-2.79h-.54c-1.02,2.85-2.74,4.42-5.78,4.83l-1.02-1.44c.13.02.26.03.38.03.37,0,1.25-.1,1.6-.19.54-.16,1.1-.48,1.55-.83.77-.61,1.31-1.47,1.68-2.39-.37,0-1.31,0-1.62.08.13-.74.1-2.46.1-3.3v-2.71c0-.56-.03-3.31-.1-3.68.74.05,1.79.1,2.53.1h1.78c.96,0,1.92-.05,2.87-.1-.02.27-.08,2.98-.08,3.39v2.5c0,1.22.02,2.59.11,3.79-.75-.05-1.28-.08-2.05-.08v2.61Zm-3.54-9.44h3.99v-1.52h-3.99v1.52Zm0,1.22v1.52h3.99v-1.52h-3.99Zm0,2.75v1.57h3.99v-1.57h-3.99Z"/><path class="e" d="m194.29,15.29l-.94-1.55c2.38-.02,4.4-.77,5.68-2.9h-.77c-1.44,0-2.9.03-4.35.1v-1.34c1.46.05,2.91.08,4.35.08h1.26c.11-.4.16-.8.18-1.22h-.94c-1.14,0-2.06,0-3.14.1v-1.44c.99.1,2.13.13,3.14.13h1.01v-1.34h-1.01c-1.1,0-2.19.03-3.3.1v-1.34c1.1.05,2.19.08,3.3.08h.94c-.02-.37-.05-.72-.08-1.09l1.75.16c.13.02.24.02.24.19,0,.14-.29.34-.42.42,0,.1-.02.21-.02.32h.88c1.1,0,2.21-.03,3.3-.08v1.34c-1.09-.06-2.19-.1-3.3-.1h-.88c-.02.45-.02.9-.02,1.34h.72c1.09,0,2.16-.05,3.25-.13v1.44c-1.09-.08-2.16-.1-3.25-.1h-.77c-.03.4-.06.83-.14,1.22h1.67c1.44,0,2.9-.03,4.35-.08v1.34c-1.46-.06-2.91-.1-4.35-.1h-.61c1.55,1.89,3.5,2.64,5.87,2.93l-1.06,1.46c-2.47-.38-5.15-1.82-6.31-4.13-1.15,2.58-3.54,3.84-6.24,4.19Zm8.56-13.16c1.84,0,3.23,0,4.61-.1-.06.58-.06,1.01-.06,1.58,0,.61,0,1.2.06,1.81h-1.71c.06-.58.06-1.49.06-2.08h-10.87v.85c0,.43,0,.86.06,1.23h-1.63c.11-.53.11-1.5.11-2.06,0-.45-.02-.9-.06-1.36.99.13,3.22.13,4.31.13h1.87c0-.46,0-.94-.03-1.41l1.57.11c.19.02.45.03.45.21,0,.16-.29.37-.42.45,0,.21-.02.43-.02.64h1.7Z"/><path class="e" d="m213.98,15.19h-1.57c.03-.93.06-1.84.06-2.75v-1.86c0-.64-.03-1.66-.06-2.29,1.02.05,2.59.06,3.63.06h.88c.05-.26.1-.51.16-.77-.59.24-1.23.27-1.87.27-.14,0-.27-.02-.42-.03l-.7-1.44c-.59.37-1.42.77-2.08,1.04-.02.14-.06.4-.27.4-.1,0-.16-.08-.21-.16l-.79-1.44c1.87-.46,3.25-1.12,4.83-2.21v1.46c-.27.19-1.01.62-1.34.82.45.11.93.16,1.38.16.29,0,.4-.08.4-.35v-3.63h-2.34c-.46,0-.93,0-1.39.02.74.26,1.42.64,2,1.15l-.75,1.22c-.74-.61-1.46-1.02-2.4-1.22l.75-1.15c-.37.02-.72.03-1.09.05v-1.42c.7.05,1.41.08,2.11.08h2.13c.83,0,1.67-.05,2.48-.08-.03.61-.06,1.6-.06,2.22v3.31l1.55.29-.77-1.01c.7-.27,1.83-.82,2.51-1.17-.69-.62-1.47-.93-2.35-1.17l.69-1.15c-.37.02-.72.02-1.07.03v-1.36c.7.03,1.41.05,2.13.06h2.1c.74,0,1.49-.05,2.22-.06-.03.32-.06,1.54-.06,1.84v3.14c0,1.26-.24,1.7-2.18,1.7-.27,0-.53,0-.78-.05l-.69-1.42c.46.06,1.17.18,1.62.18s.62-.08.62-.45v-3.63h-2.18c-.4,0-.82.02-1.22.02.71.29,1.3.61,1.84,1.17l-.64,1.15c.61-.32,1.07-.62,1.65-.96v1.39c-.85.61-1.87,1.22-2.77,1.76,0,.24-.05.48-.24.48-.06,0-.11-.03-.21-.11-.19.05-.24.06-.42.14l-.34.91h1.28c1.07-.02,2.16-.03,3.23-.06-.02.48-.06,1.62-.06,2.05v1.98c0,.93.02,1.84.06,2.77h-1.57c0-.16,0-.32.02-.48h-7.49c.02.19.02.38.03.58Zm-.03-4.26h7.49v-1.34h-7.49v1.34Zm0,2.5h7.49v-1.33h-7.49v1.33Z"/><path class="e" d="m239.62,15.08h-1.75c.06-.72.14-4.42.14-5.3v-.29h-1.7v2.06c0,.93.05,1.84.1,2.77h-1.6c.1-.67.14-1.54.14-2.21v-2.11c0-.61-.02-1.2-.06-1.81.88.08,1.78.08,2.67.08h.45v-1.41h-.78c-.93,0-1.91.03-2.83.13v-1.57c.9.1,1.94.13,2.83.13h.78v-.54c0-.27,0-.56-.02-.85h-1.91c-.19.4-.38.75-.66,1.09l-1.5-.56c.88-1.01,1.3-2.26,1.5-3.55l1.47.4c.29.08.37.11.37.21,0,.11-.29.26-.37.29-.1.27-.19.56-.27.83h1.34c-.02-.74-.03-1.46-.06-2.19l1.54.19c.3.03.45.03.45.19,0,.1-.1.18-.45.37-.02.16-.02.32-.02.48v.96h.7c.72,0,1.62-.05,2.34-.14v1.58c-.75-.11-1.6-.14-2.34-.14h-.7v1.39h.59c.93,0,1.97-.03,2.88-.13v1.57c-.94-.1-1.92-.13-2.88-.13h-.59v1.41h.62c.82,0,1.67-.05,2.48-.14-.05.37-.03.75-.03,1.14v1.76c.02.59.05,1.36.05,1.94,0,1.12-.64,1.2-1.57,1.2-.11,0-.24-.02-.35-.03l-.88-1.62c.35.05.72.1,1.07.1.29,0,.3-.05.3-.53v-2.59h-1.7v.26c0,1.06.08,4.39.18,5.33Zm5.44-12.93c.29.03.56.05.56.24,0,.18-.42.43-.54.51-.03.69-.03,1.38-.03,2.06v2.74c0,.64.03,2.66.1,3.2h-1.65c.06-.61.11-2.24.1-2.9v-3.47c0-.85-.03-1.7-.06-2.54l1.54.16Zm2.96-1.39c.27.02.35.03.35.16,0,.08-.03.13-.32.4-.03.74-.03,1.49-.03,2.24v3.97c0,1.39-.02,2.79.03,4.16.03.53.05,1.06.05,1.58,0,1.71-.67,1.83-2.08,1.83-.27,0-.56,0-.83-.03l-.72-1.6c.19.02,1.26.08,1.42.08.53,0,.58-.1.58-.91V3.33c0-.9.02-1.79-.03-2.67l1.58.1Z"/><path class="e" d="m255.41,4.64c.11.1.18.18.18.26,0,.16-.16.24-.29.29-.03.4-.06.82-.06,1.22v4.29c0,1.5.03,3.01.06,4.51h-1.58c.05-1.5.06-3.01.06-4.51v-4c-.53.7-.99,1.28-1.65,1.87l-1.38-.91c1.82-1.3,3.95-4.83,4.51-6.98l1.57.7c.1.05.21.11.21.22,0,.21-.4.3-.54.32-.35.9-.78,1.74-1.28,2.56l.19.16Zm5.81,10.56h-1.63c.05-1.15.06-2.3.06-3.44v-6.8h-.86c-.51.75-1.07,1.47-1.68,2.11l-1.44-.8c1.71-1.46,2.82-3.41,3.44-5.54l1.62.61c.13.05.32.18.32.34,0,.24-.26.27-.64.26-.26.62-.53,1.18-.85,1.78h3.11c1.1,0,2.21-.02,3.3-.06v1.38c-1.09-.03-2.18-.06-3.28-.06h-1.52v2.11h2.31c.69,0,1.38-.02,2.06-.06v1.41c-.69-.03-1.36-.06-2.05-.06h-2.32v2.02h2.23c.72,0,1.44-.02,2.14-.06v1.44c-.7-.05-1.42-.06-2.13-.06h-2.24c.02,1.17.03,2.34.06,3.52Z"/><path class="e" d="m282.87,8.84v1.44c-.83-.06-1.65-.08-2.48-.1l1.14.66c.08.05.11.11.11.18,0,.27-.32.3-.7.29-.58.46-1.17.85-1.81,1.2,1.17.64,2.54.9,3.86.98l-.94,1.66c-1.71-.46-3.15-.98-4.59-2.06l-.19.85c-1.26.43-3.78.9-5.14,1.07-.05.18-.14.4-.35.4-.13,0-.18-.13-.21-.24l-.38-1.54c.82-.02,1.31-.06,2.11-.18v-3.25c-.46.02-.93.03-1.41.08v-1.44c.86.08,1.73.1,2.58.11v-1.44c-.62,0-1.26.02-1.91.08v-1.44c.64.06,1.28.1,1.91.11v-1.28h-2.8v1.92c0,1.57-.13,3.19-.59,4.69-.3.99-.64,2-1.22,2.9l-1.65-.62c1.6-2.14,1.95-4.4,1.95-7.01V2.74c0-.53,0-1.06-.08-1.58,1.5.1,3.03.1,4.53.1h3.22c1.15,0,3.22-.03,4.32-.14-.03.43-.05.85-.05,1.28v1.28c0,.45.02.94.06,1.39-.91-.06-1.83-.06-2.74-.06v1.28c.82-.02,1.65-.05,2.46-.13v1.44c-.82-.08-1.65-.1-2.46-.1v1.47c1.15-.02,2.3-.03,3.46-.13Zm-11.22-4.96h8.98v-1.42h-8.98v1.42Zm3.06,6.31v3.06c.8-.1,1.6-.26,2.4-.43-.85-.72-1.55-1.55-1.91-2.62h-.5Zm3.2-3.91v-1.3h-1.95v1.3h1.95Zm0,2.69v-1.47h-1.95v1.47h1.95Zm.13,2.79c.66-.4,1.34-.91,1.79-1.57h-3.12c.32.59.83,1.14,1.33,1.57Z"/><path class="e" d="m4.66,43.66v11.16h-1.7v-12.84h7.22v1.68h-5.52Z"/><path class="e" d="m36.39,43.28l1.51-1.2c.89.48,1.61,1.08,2.28,1.82l-1.27.98c1.03-.02,2.06-.12,3.1-.19v2.18c-2.23-.1-4.44-.07-6.67-.1.1,1.58.46,3,1.13,4.44.6-1.03,1.06-2.18,1.37-3.34l2.26.77c.14.05.24.12.24.26,0,.29-.38.31-.58.34-.6,1.34-1.18,2.74-2.02,3.96.41.43,1.25,1.25,1.87,1.25s.82-1.22.94-2.11l1.8,1.42c-.24,1.13-1.1,3.48-2.5,3.48-1.13,0-2.86-1.49-3.6-2.3-.91.94-2.02,1.97-3.17,2.54l-1.99-1.56c.5-.14.74-.24,1.2-.46-.84-.02-1.97-.05-2.78-.05h-2.21l.02.77h-2.18c.02-.46.14-2.38.14-2.71v-.82c-.02-.67-.02-1.34-.1-2.02.86.07,1.44.1,2.3.12h2.4c.86-.02,1.7-.07,2.54-.12-.05.6-.07,1.13-.07,1.73v1.32c0,.5,0,1.2.02,1.7.96-.55,1.87-1.3,2.62-2.14-1.2-2.09-1.63-4.15-1.92-6.53h-8.62c-.02,3.36-.58,7.13-2.28,9.98l-2.5-.84c1.97-2.16,2.47-5.71,2.47-8.52,0-.84-.07-1.68-.14-2.52,2.23.1,4.46.14,6.7.14h4.18c-.07-.84-.14-1.68-.19-2.52l2.42.14c.24.02.46.05.46.29,0,.14-.12.26-.46.5.02.53.05,1.06.1,1.58,1.08-.05,2.14-.02,3.22-.07-.55-.6-1.37-1.2-2.04-1.63Zm-10.87,15.72c.12.07.26.17.26.31,0,.26-.31.31-.67.34-.77,1.51-1.56,2.69-2.76,3.91l-2.16-1.32c1.51-1.15,2.42-2.71,3.12-4.44l2.21,1.2Zm6.96-9.22c-.84-.07-1.68-.12-2.52-.12h-2.57c-.82,0-1.66.05-2.5.12v-1.94c.74.12,1.25.12,2.5.12h2.57c1.34,0,1.75,0,2.52-.12v1.94Zm-3.77,7.68c.24.02.43.02.43.26s-.31.41-.5.48v2.5c0,1.08.31,1.15,1.32,1.15h3.38c.72,0,1.18-.02,1.58-.72.38-.65.46-1.44.6-2.18l2.04,1.44c-.31,1.22-.62,1.99-.98,2.47-.62.89-1.46.89-2.88.89h-4.46c-1.03,0-1.75,0-2.33-.72-.46-.58-.46-1.32-.46-2.02v-1.99c0-.62-.02-1.08-.07-1.68l2.33.12Zm-1.44-3.6h3.07v-1.61h-3.07v1.61Zm6.82,5.42l-1.63,1.66c-.86-1.2-1.56-1.8-2.86-2.52l1.66-1.56c.94.53,2.21,1.56,2.83,2.42Zm4.94-1.68c.98.84,2.45,2.88,3.02,4.06l-2.04,1.54c-.58-1.51-1.73-3.24-2.9-4.32l1.92-1.27Z"/><path class="e" d="m67.2,54.87c.36-1.58.48-3.26.55-4.92h-.31c-.84,0-1.66.05-2.47.1v-2.06c.72.07,1.73.1,2.47.1h.36v-1.56c0-1.18-.05-2.47-.26-3.62l2.64.17c.24.02.41.07.41.31s-.43.5-.65.62v.65c0,1.13,0,2.21-.05,3.43h.48c1.08,0,2.14-.1,3.22-.19,0,4.1,0,8.93-.86,12.91-.55,2.5-1.03,3.19-3.67,3.19-.19,0-.38,0-.58-.02l-1.03-2.52c.58.12,1.15.22,1.75.22.94,0,1.3-.26,1.68-2.23.43-2.28.7-7.1.67-9.48h-1.73c-.02,1.39-.07,2.47-.29,3.89-.24,1.54-.67,3.26-1.22,4.73-.74,1.99-2.23,4.27-3.96,5.54l-2.42-1.15c.72-.46,1.25-.84,1.87-1.42-1.58.26-3.19.5-4.8.72-1.85.24-3.7.46-5.57.67-.12.29-.29.7-.65.7-.24,0-.34-.26-.36-.46l-.22-2.35c.31.02.6.02.94.02,1.51,0,3.14-.14,4.68-.31v-1.54h-1.08c-1.34,0-2.69.05-4.03.12v-1.85c1.34.1,2.69.14,4.03.14h1.08v-1.22h-.46c-.86,0-2.71.07-3.55.14.1-.91.1-1.82.1-2.74v-1.8c0-.36-.05-2.09-.1-2.5,1.03.05,2.06.07,3.1.07h.91v-1.03h-1.13c-1.39,0-2.76.07-4.15.14v-1.9c1.39.1,2.76.14,4.15.14h1.13v-1.2c-.77.05-1.54.1-2.28.1-.58,0-1.13-.02-1.68-.05l-1.01-1.9c.89.19,1.82.24,2.76.24,2.47,0,5.21-.24,7.46-1.32l1.2,1.58c.07.1.1.19.1.31,0,.19-.1.31-.31.31-.24,0-.53-.17-.72-.29-1.03.38-2.52.7-3.62.77v1.44h.79c1.37,0,2.74-.05,4.13-.14v1.9c-1.37-.1-2.76-.14-4.13-.14h-.79v1.03h.74c1.18,0,2.35,0,3.5-.07-.07,1.08-.1,1.73-.1,1.94v2.47c0,.82.02,1.8.1,2.62-1.22-.12-2.45-.14-3.7-.14h-.55v1.22h.41c1.34,0,2.69-.05,4.03-.14v1.85c-1.34-.07-2.69-.12-4.03-.12h-.41v1.34c1.56-.14,3.12-.31,4.66-.6l-.24,1.49c1.66-1.7,2.54-4.08,3.07-6.36Zm-9.38-4.01h-2.04v1.15h2.04v-1.15Zm0,2.57h-2.04v1.27h2.04v-1.27Zm1.9-1.42h2.3v-1.15h-2.3v1.15Zm0,2.69h2.3v-1.27h-2.3v1.27Z"/><path class="e" d="m100.75,57.8c1.08-1.27,1.66-3,1.66-4.94,0-3.17-2.83-6.07-6.46-6.07-.41,3.74-1.25,7.46-2.86,11.09-.82,1.82-1.85,3.43-3,3.43-.67,0-1.39-.29-1.99-.79-1.78-1.51-2.76-3.77-2.76-6.22,0-4.58,3.24-7.97,7.1-9.17.94-.29,1.97-.43,2.95-.43,2.83,0,5.54.96,7.2,2.76,1.49,1.61,2.11,3.5,2.11,5.64,0,2.74-.94,5.11-2.66,6.77-1.37,1.32-2.86,2.11-4.58,2.59l-1.85-2.02c2.16-.46,4.06-1.37,5.14-2.64Zm-11.67-8.11c-.98,1.2-1.56,2.9-1.56,4.61,0,1.87,1.15,4.1,2.14,4.1.26,0,.46-.14.67-.31.58-.6,1.3-2.47,1.61-3.34.84-2.3,1.58-5.3,1.8-7.78-1.82.22-3.38,1.18-4.66,2.71Z"/><path class="e" d="m136.73,62.39c.65,0,1.3-.02,1.94-.05l-1.13,1.78c-3.5-.02-7.78-.58-10.73-2.57l-.41,1.51c-2.52.41-6.1.53-8.71.67-.05.19-.19.53-.46.53-.17,0-.24-.19-.29-.36l-.6-2.02c.82.1,1.66.12,2.52.12.65,0,1.3,0,1.94-.02v-2.78c0-.84,0-1.7-.02-2.57-1.22.36-2.54.72-3.79.91l-1.39-1.66c1.8-.17,3.98-.6,5.71-1.13,1.87-.58,3.7-1.42,5.38-2.45l1.8.34c.22.05.36.1.36.29,0,.14-.17.22-.29.26,1.54.79,2.83,1.34,4.54,1.73,1.34.29,3.46.53,4.83.53.17,0,.31,0,.48-.02l-1.13,1.85c-1.37-.1-2.71-.31-4.08-.58-.02.41-.02.84-.02,1.27v1.39c0,.36.02.72.02,1.06.48-.46.82-.89,1.2-1.42l1.44,1.03c.1.07.17.17.17.26,0,.34-.53.26-.74.24-.58.58-1.15,1.13-1.78,1.66,1.08.12,2.16.19,3.24.19Zm-18.79-7.06l-1.78-1.06c1.94-1.01,3.22-1.9,4.22-3.86-.46.1-2.57.41-3.14.48-.17.34-.26.53-.46.53s-.24-.19-.29-.34l-.53-1.66h1.34c.58-.5,1.1-1.06,1.63-1.61-.91-.74-1.82-1.49-2.83-2.11l1.13-1.15c.29.19.6.38.89.6.72-.94,1.18-1.7,1.63-2.81l1.61.77c.14.07.29.17.29.31,0,.26-.43.26-.58.26-.53.84-1.08,1.61-1.7,2.38.22.19.46.36.7.53.55-.62,1.51-1.75,1.9-2.47l1.49,1.03.12.12c0-.38-.02-.77-.02-1.15.5.05,1.78.1,2.28.1h.17c.26-.58.48-1.18.67-1.78l1.7.5c.17.05.36.12.36.29,0,.22-.36.34-.7.41-.07.22-.14.38-.24.58h.82c.74,0,1.46,0,2.21-.02-.02.22-.1,1.82-.1,1.97v.98c0,.43.02,1.06.02,1.49-.22-.02-2.26-.07-2.54-.07h-2.11c-.24,0-.48.02-.72.02v.65h4.3c.36,0,.72-.02,1.08-.05v1.08c-.79-.02-1.56-.02-2.35-.02h-3.02v.72h3.22c.36,0,.79-.02,1.08-.02.36,0,.72-.02,1.08-.05v1.1c-.79-.02-1.56-.02-2.35-.02h-3.02c.02.29.02.72.1.96h-1.99c.1-.38.1-1.13.1-1.54v-5.86c-.14.17-.43.14-.62.12-.41.53-.84,1.06-1.27,1.54l1.56.58c.14.05.31.14.31.31,0,.26-.41.34-.6.36-.86,3.1-2.09,5.33-5.02,6.89Zm1.58-6.02c.5-.05,1.01-.12,1.51-.17.22-.5.48-1.25.5-1.78-.5.53-1.46,1.46-2.02,1.94Zm10.68,6.46v.38c-.77-.02-1.56-.02-2.35-.02h-1.73c-.86,0-1.75,0-2.64.02v-.38c-.79.31-1.63.58-2.47.82.6.02,3.22.07,3.89.07h4.18c1.27,0,2.54,0,3.82-.02-.91-.24-1.8-.53-2.69-.86Zm.91,1.82h-8.26v.7h8.26v-.7Zm-8.26,1.61v.72h8.26v-.72h-8.26Zm0,1.68v1.01c1.27-.1,2.54-.17,3.79-.46-.24-.17-.43-.34-.65-.55h-3.14Zm6.1-5.66c-.7-.36-1.25-.7-1.92-1.1-.7.38-1.39.77-2.14,1.08.43.02.89.02,1.27.02h2.78Zm-3.58-9.24h3.65v-.74h-3.65v.74Zm0,1.61h3.65v-.77h-3.65v.77Zm7.32,13.37c-.91-.05-1.82-.07-2.71-.07h-1.32c.86.53,1.92.79,2.9,1.01.38-.31.74-.62,1.13-.94Zm.74-17.69h2.35c.31,0,.48-.02.96-.1l.91,1.08c-.67,1.15-1.39,2.26-2.16,3.34,1.25.91,1.87,2.28,1.87,3.79s-.48,2.71-2.21,2.71c-.29,0-.53-.02-.82-.07l-.48-1.87c.29.17.84.43,1.2.43.55,0,.6-.72.6-1.32,0-1.56-.79-2.66-2.04-3.5.7-.96,1.32-1.97,1.92-3h-2.4v5.88c0,1.2.07,2.4.14,3.6h-1.9c.07-1.2.17-2.4.17-3.62v-3.41c0-.55-.07-3.6-.14-3.98.67.02,1.34.05,2.02.05Z"/><path class="e" d="m165.7,64.35c-1.58-1.15-3.22-2.11-5.02-2.9-3.29,2.5-6.34,2.71-10.3,2.71l-1.08-2.26c.98.1,1.94.17,2.93.17,2.18,0,4.2-.29,6.07-1.49-.98-.31-1.99-.58-3-.79-.22.24-.43.5-.65.77l-2.33-1.03c.94-.74,1.54-1.34,2.28-2.28-2.04.02-4.08.07-6.12.14v-1.8c2.3.07,4.63.12,6.94.12h.26c.22-.36.41-.72.6-1.08-1.18,0-2.35,0-3.53.05.07-.62.14-2.11.14-2.74v-1.85c0-.84-.02-1.68-.14-2.5,1.32.02,2.62.02,3.94.02h6.75c.58,0,1.15,0,1.75-.02-.1.65-.12,1.9-.12,2.57v2.09c0,.48.05,1.97.12,2.42-.86-.05-2.59-.07-3.91-.07h-2.52c-.19.38-.38.74-.6,1.1h4.37c2.33,0,4.68-.05,7.01-.12v1.8c-1.9-.07-3.79-.12-5.69-.12-.38,1.01-.94,1.87-1.63,2.74,1.7.65,3.34,1.51,4.94,2.4l-1.46,1.94Zm-1.92-19.61c1.34,0,4.22,0,5.47-.07-.07.77-.1,1.49-.1,2.26,0,.82.02,1.61.14,2.42h-2.33c.05-.36.05-.67.05-1.01v-1.8h-15.84c0,.94,0,1.87.05,2.81h-2.3c.12-.91.14-1.85.14-2.76,0-.67-.02-1.3-.14-1.97,2.09.12,4.22.12,6.31.12h2.71c0-.77-.05-1.51-.17-2.26l2.64.26c.22.02.53.12.53.41,0,.31-.48.48-.74.55-.02.14-.02.29-.02.43,0,.19,0,.41.02.6h3.58Zm-8.83,5.59h8.04v-1.2h-8.04v1.2Zm0,2.78h8.04v-1.25h-8.04v1.25Zm2.26,4.13c-.22.31-.43.62-.67.94,1.2.26,2.35.6,3.5,1.01.55-.58,1.06-1.22,1.37-1.94h-4.2Z"/><path class="e" d="m185.47,63.25v-11.16h1.7v12.84h-7.22v-1.68h5.52Z"/><path class="e" d="m3.3,89.38v19.1h-1.42v-19.1h1.42Z"/><path class="e" d="m10.86,92.55v-1.68c1.41-1.16,2.9-1.74,4.46-1.74s2.88.53,3.96,1.59c1.08,1.06,1.63,2.36,1.63,3.89,0,3.04-2.34,7.22-7.03,12.55h8.89v1.31h-12.13c5.9-5.68,8.85-10.29,8.85-13.84,0-1.18-.41-2.16-1.23-2.97-.82-.8-1.84-1.2-3.05-1.2-.8,0-1.52.16-2.16.49-.64.33-1.37.86-2.19,1.59Z"/><path class="e" d="m152.79,121.8v19.1h-1.42v-19.1h1.42Z"/><path class="e" d="m157.81,124.15v-1.37c1.11-.82,2.45-1.23,4.02-1.23,1.67,0,3.03.45,4.09,1.35,1.06.9,1.59,2.06,1.59,3.46,0,1-.3,1.9-.89,2.68-.59.78-1.45,1.35-2.58,1.7v.05c2.47.83,3.71,2.45,3.71,4.87,0,1.69-.56,3.02-1.69,4.01-1.13.98-2.47,1.48-4.03,1.48s-3.05-.31-4.4-.94v-1.31c1.31.61,2.72.92,4.24.92,1.32,0,2.39-.37,3.21-1.12.82-.75,1.23-1.73,1.23-2.94,0-1.3-.44-2.34-1.31-3.11-.87-.77-2.08-1.14-3.62-1.11v-1.34c1.4,0,2.54-.36,3.4-1.09.87-.72,1.3-1.6,1.3-2.62s-.42-1.86-1.25-2.55c-.83-.69-1.88-1.03-3.12-1.03-1.37,0-2.67.42-3.91,1.26Z"/><path class="e" d="m173.12,126.32v2.72h-1.82v-2.72h1.82Zm0,9.86v2.72h-1.82v-2.72h1.82Z"/><path class="e" d="m182.8,121.56c1.71,0,3.16.86,4.33,2.58,1.18,1.72,1.76,4.15,1.76,7.31,0,2.94-.58,5.29-1.73,7.05-1.15,1.77-2.59,2.65-4.31,2.65s-3.28-.87-4.43-2.6-1.72-4.02-1.72-6.86c0-3.53.62-6.1,1.85-7.71,1.23-1.61,2.65-2.42,4.25-2.42Zm-.05,18.25c1.42,0,2.57-.8,3.43-2.41.87-1.6,1.3-3.64,1.3-6.1s-.42-4.41-1.26-6.01c-.84-1.6-1.98-2.4-3.41-2.4-1.35,0-2.47.79-3.35,2.36-.88,1.57-1.33,3.61-1.33,6.1s.43,4.56,1.29,6.12c.86,1.55,1.97,2.33,3.33,2.33Z"/><path class="e" d="m197.36,121.56c1.71,0,3.16.86,4.33,2.58,1.18,1.72,1.76,4.15,1.76,7.31,0,2.94-.58,5.29-1.73,7.05-1.15,1.77-2.59,2.65-4.31,2.65s-3.28-.87-4.43-2.6-1.72-4.02-1.72-6.86c0-3.53.62-6.1,1.85-7.71s2.65-2.42,4.25-2.42Zm-.05,18.25c1.42,0,2.57-.8,3.43-2.41.87-1.6,1.3-3.64,1.3-6.1s-.42-4.41-1.26-6.01-1.98-2.4-3.41-2.4c-1.35,0-2.47.79-3.35,2.36s-1.33,3.61-1.33,6.1.43,4.56,1.29,6.12c.86,1.55,1.97,2.33,3.33,2.33Z"/><path class="e" d="m208.12,131.45h14.33v.9h-14.33v-.9Z"/><path class="e" d="m229.98,121.8v19.1h-1.42v-19.1h1.42Z"/><path class="e" d="m237.24,141.15l-.78-1.03c4.21-3.04,6.6-6.18,7.16-9.45-1.49.96-2.88,1.44-4.2,1.44-1.5,0-2.77-.5-3.79-1.51-1.02-1.01-1.53-2.25-1.53-3.73,0-1.55.5-2.82,1.51-3.82s2.29-1.5,3.86-1.5c1.81,0,3.25.6,4.3,1.79,1.05,1.19,1.58,2.83,1.58,4.89,0,4.75-2.71,9.05-8.12,12.91Zm6.63-12.17c.03-.29.04-.57.04-.85,0-1.64-.38-2.92-1.14-3.85-.76-.92-1.83-1.39-3.21-1.39-1.13,0-2.08.37-2.86,1.11-.78.74-1.17,1.67-1.17,2.78s.38,2.08,1.13,2.84c.75.76,1.69,1.14,2.82,1.14,1.6,0,3.07-.6,4.39-1.79Z"/><path class="e" d="m250.03,126.32v2.72h-1.82v-2.72h1.82Zm0,9.86v2.72h-1.82v-2.72h1.82Z"/><path class="e" d="m259.15,121.56c1.71,0,3.16.86,4.33,2.58,1.18,1.72,1.76,4.15,1.76,7.31,0,2.94-.58,5.29-1.73,7.05-1.15,1.77-2.59,2.65-4.31,2.65s-3.28-.87-4.43-2.6-1.72-4.02-1.72-6.86c0-3.53.62-6.1,1.85-7.71s2.65-2.42,4.25-2.42Zm-.05,18.25c1.42,0,2.57-.8,3.43-2.41.87-1.6,1.3-3.64,1.3-6.1s-.42-4.41-1.26-6.01-1.98-2.4-3.41-2.4c-1.35,0-2.47.79-3.35,2.36s-1.33,3.61-1.33,6.1.43,4.56,1.29,6.12c.86,1.55,1.97,2.33,3.33,2.33Z"/><path class="e" d="m273.71,121.56c1.71,0,3.16.86,4.33,2.58,1.18,1.72,1.76,4.15,1.76,7.31,0,2.94-.58,5.29-1.73,7.05-1.15,1.77-2.59,2.65-4.31,2.65s-3.28-.87-4.43-2.6-1.72-4.02-1.72-6.86c0-3.53.62-6.1,1.85-7.71,1.23-1.61,2.65-2.42,4.25-2.42Zm-.05,18.25c1.42,0,2.57-.8,3.43-2.41.87-1.6,1.3-3.64,1.3-6.1s-.42-4.41-1.26-6.01c-.84-1.6-1.98-2.4-3.41-2.4-1.35,0-2.47.79-3.35,2.36-.88,1.57-1.33,3.61-1.33,6.1s.43,4.56,1.29,6.12c.86,1.55,1.97,2.33,3.33,2.33Z"/><path class="e" d="m38.87,113.62v27.29h-2.03v-27.29h2.03Z"/><path class="e" d="m62.91,113.27v15.47h3.81v1.64h-3.81v10.53h-2.03v-10.53h-12.44v-.66l13.71-16.45h.76Zm-2.03,15.47v-11.51l-9.62,11.51h9.62Z"/><path class="e" d="m89.98,113.62v27.29h-2.03v-27.29h2.03Z"/><path class="e" d="m114.43,113.62v1.89h-9.65v8.63c.74-.12,1.47-.18,2.19-.18,2.72,0,4.91.77,6.56,2.29,1.65,1.53,2.48,3.58,2.48,6.16s-.84,4.63-2.52,6.31-3.78,2.52-6.31,2.52c-2.11,0-4.3-.6-6.56-1.8v-2.32c2.54,1.47,4.75,2.21,6.64,2.21s3.56-.64,4.82-1.91c1.26-1.28,1.89-2.89,1.89-4.84,0-2.14-.67-3.81-2.01-5.01-1.34-1.2-3.12-1.81-5.35-1.81-1.21,0-2.46.2-3.75.59v-12.73h11.56Z"/><line class="d" x1="6.81" y1="135.07" x2="51.07" y2="89.24"/><path class="e" d="m3.91,207.72c1.41-.64,2.96-1.92,3.81-3.2h-.74c-.66.77-1.33,1.42-2.14,2.03l-1.26-.85c.54-.34.93-.64,1.41-1.06-.75.29-2.64.96-3.31,1.12-.64.14-.69.18-.83.35-.11.14-.16.18-.22.18-.03,0-.1-.03-.11-.11l-.29-1.79c.59-.11,1.18-.27,1.78-.42v-3.73H.43v-1.65h1.55v-3.19l1.86.14c.14.02.21.1.21.18,0,.11-.08.19-.18.26-.08.05-.21.13-.21.24v2.37h1.67v1.65h-1.67v3.27c.54-.16,1.09-.32,1.62-.51v1.33c.53-.56.83-1.01,1.17-1.71h-1.52v-1.3h8.88v1.3h-5.73c-.08.19-.18.38-.29.58h5.83c-.02.98-.1,1.94-.27,2.93-.13.75-.37,1.87-.98,2.37s-1.44.56-2.18.56l-.64-1.57c-.64.67-1.2,1.17-1.97,1.68l-1.2-.8c1.44-.85,2.87-2.37,3.65-3.84h-.8c-.45.78-.93,1.47-1.57,2.1-.74.72-1.65,1.44-2.51,1.98l-1.25-.88Zm2.21-7.01v-5.04h6.5v5.04h-6.5Zm4.95-3.7h-3.39v.67h3.39v-.67Zm-3.39,1.81v.69h3.39v-.69h-3.39Zm3.87,5.7c-.5,1.14-1.02,1.89-1.84,2.8.29.06.58.1.86.1.38,0,.64-.06.85-.45.35-.66.46-1.62.51-2.45h-.38Z"/><path class="e" d="m18.82,203.53c-.22,1.98-.5,3.55-1.31,5.39l-1.89-.3c1.17-1.97,1.57-5.01,1.57-7.27v-2.96h5.51v5.14h-3.87Zm1.54,4.59c.93-.77,1.7-1.5,2.24-2.61.74-1.52.85-3.47.85-5.14,0-.98-.06-2.02-.13-2.96h-6.88v-1.62h6.93v.46c.22.03.48.05.7.05,1.28,0,3.46-.61,4.67-1.06l.93,1.54c.13.21.14.26.14.34,0,.1-.05.13-.13.13-.05,0-.13-.02-.29-.06-.1-.03-.24-.06-.3-.06-.08,0-.35.06-.66.14-.71.18-2.5.45-3.23.54.03.67.05,1.36.05,2.03h4.55v1.65h-1.76v7.6h-1.78v-7.6h-1.02c-.11,1.66-.21,3.2-.94,4.74-.54,1.12-1.36,2.13-2.27,2.95l-1.67-1.06Zm.72-6.11v-2.11h-2.1c0,.7,0,1.41-.03,2.11h2.13Z"/><path class="e" d="m53.11,196.65c.54,0,1.23-.05,1.78-.13v1.38c.58-.86.96-1.92,1.18-2.93l1.55.37c.13.03.24.06.24.19,0,.18-.22.24-.42.3-.1.3-.21.59-.34.9h3.01c.61,0,1.46-.05,2.06-.14v1.44c-.69-.1-1.38-.1-2.06-.1h-.7c.21.43.4.88.56,1.34l-1.33.67c-.26-.85-.4-1.25-.82-2.02h-1.3c-.38.75-.8,1.39-1.34,2.03l-1.57-.67c.48-.45.83-.82,1.23-1.36-.53-.08-1.2-.08-1.74-.08h-.51c.16.43.43,1.31.53,1.74l-1.38.46c-.1-.62-.37-1.65-.62-2.21h-.88c-.43.58-.78.93-1.26,1.44l-1.57-.7c1.17-.78,2.34-2.43,2.66-3.81l1.62.66c.08.03.18.1.18.21,0,.18-.24.21-.45.24-.13.27-.27.51-.42.77h2.11Zm-3.14,5.39c-.59,0-1.38.05-1.95.13v-1.55c.58.1,1.36.13,1.95.13h1.94c.59,0,1.38-.03,1.97-.13v1.55c-.59-.08-1.38-.13-1.97-.13h-.14v3.76c.56-.14,1.55-.56,2.05-.83l.02,1.42c-1.2.61-3.84,1.41-5.19,1.73-.05.13-.14.4-.3.4-.11,0-.18-.11-.21-.22l-.42-1.5c.88-.08,1.76-.27,2.61-.54v-4.21h-.35Zm4.58,6.29c-.61.58-1.36.94-2.13,1.23l-1.07-1.23c2.99-.74,3.52-2.37,3.52-5.22,0-.94-.06-1.89-.19-2.82.62.03,1.25.11,1.86.11h1.78c.61,0,1.22-.03,1.84-.08-.08.59-.11,2.32-.11,2.98l-.06,4.31c0,.46.05.58.53.58.51,0,.62-.37.64-2.32l1.55.8c-.1.58-.27,1.78-.62,2.21-.42.51-.64.51-1.68.51-1.17,0-1.84-.1-1.81-1.46l.05-2.56-.94.66c-.19-.64-.99-1.68-1.5-2.15-.13,1.73-.3,3.2-1.63,4.45Zm2.45-5.52c.59.58,1.14,1.22,1.63,1.87l.05-2.98h-2.42c0,.59-.02,1.18-.05,1.78l.79-.67Z"/><path class="e" d="m67.23,200.55l-.58,1.47c-.69-.58-1.92-1.26-2.82-1.36l.67-1.41c1.09.29,1.82.64,2.72,1.3Zm-.11,1.79l.98,1.23c-.74,2.23-1.23,3.33-2.45,5.35,0,.1.02.21.02.29,0,.1-.03.22-.14.22-.1,0-.16-.03-.24-.13l-1.09-1.22c1.36-1.54,2.37-3.79,2.93-5.75Zm1.31-5.91l-.64,1.38c-.69-.59-1.84-1.14-2.72-1.34l.62-1.34c1.09.27,1.84.66,2.74,1.31Zm8.31,4.82l.43.45c-.46,1.68-1.12,3.33-2.19,4.72,1.09.82,2.13,1.25,3.44,1.55l-1.12,1.44c-1.23-.43-2.32-1.04-3.33-1.86-.72.74-1.78,1.57-2.72,1.95l-1.54-1.25c1.25-.45,2.13-.86,3.14-1.74-.96-1.09-1.7-2.42-1.9-3.87h-.56c-.11,3.12-.32,4.24-2.08,6.87l-1.55-.64c1.83-2.31,2.27-4.32,2.27-7.2,0-1.44-.1-2.9-.26-4.34.98.05,1.95.11,2.93.11h.9c-.02-.82-.06-1.62-.13-2.42l1.68.11c.21.02.32.06.32.18,0,.14-.22.26-.35.32-.08.59-.08,1.22-.1,1.81h1.01c.77,0,2-.06,2.75-.16l.66.64c-.58,1.04-1.17,2.08-1.74,3.11l-1.5-.54c.42-.54.77-1.12,1.1-1.73h-2.29v2.61c.91-.05,1.83-.06,2.74-.11Zm-4.15-2.5h-2.19v2.61h2.19v-2.61Zm1.3,6.66c.69-.88,1.07-1.71,1.42-2.77h-2.9c.22,1.04.8,1.97,1.47,2.77Z"/><path class="e" d="m89.4,199.18c1.52,0,3.04-.03,4.55-.13v1.57c-1.5-.1-3.03-.13-4.55-.13h-1.46c.16,1.98,1.22,3.83,2.67,5.17.99.93,2.3,1.74,3.62,2.11l-1.15,1.5c-1.22-.51-2.77-1.58-3.7-2.51-1.01-1.01-1.81-2.26-2.35-3.57-.61,1.57-1.22,2.66-2.4,3.87-1.1,1.14-2.11,1.74-3.55,2.34l-1.12-1.39c1.9-.59,3.31-1.46,4.48-3.11,1.02-1.46,1.44-2.67,1.68-4.42h-1.38c-1.5,0-3.01.03-4.51.13v-1.57c1.5.1,3.01.13,4.51.13h1.49c.05-.72.08-1.44.08-2.16,0-.59-.02-1.18-.05-1.78l1.86.19c.16.02.46.05.46.29s-.42.37-.61.43c-.03,1.01-.08,2.02-.08,3.02h1.5Z"/><path class="e" d="m101.59,209.39c-.13,0-.27,0-.4-.02l-.69-1.7c.22.03,1.36.22,1.54.22.51-.02.51-.27.51-1.06v-1.28h-1.94c-1.58,0-3.17.03-4.74.13v-1.54c1.57.11,3.15.13,4.74.13h1.92c.02-.54-.05-1.15-.18-1.7l1.06.26c.46-.35.9-.72,1.31-1.14h-3.89c-.59,0-1.17.03-1.76.06l-.02-1.44c.58.03,2.48.11,3.01.11h1.79c.69,0,2.27-.08,2.95-.16l.56.83c-.29.26-1.22,1.12-1.49,1.39l-1.78,1.78h1.42c1.6,0,3.2-.02,4.79-.13v1.54c-1.58-.1-3.19-.13-4.79-.13h-1.47v.56c0,.66.05,1.3.05,1.95,0,1.28-.86,1.31-2.51,1.31Zm-.26-11.41h2.98c.7,0,1.42-.03,2.13-.05l-.98-.45c.56-.67,1.02-1.52,1.28-2.37l1.41.58c.08.03.34.14.34.24,0,.27-.34.35-.54.38-.21.38-.77,1.28-1.01,1.6.98-.02,1.95-.06,2.95-.13-.05.61-.06,1.2-.06,1.81,0,.56.03,1.15.14,1.71h-1.71c.02-.43.03-.88.03-1.33v-.78h-10.4c0,.7.03,1.42.1,2.11h-1.81c.14-.7.18-1.41.18-2.13,0-.46-.03-.91-.06-1.38.7.1,2.11.1,2.88.11-.34-.75-.82-1.38-1.41-1.95l1.33-.8c.56.45,1.2,1.39,1.44,2.08l-1.18.69c.67.02,1.33.05,2,.05Zm1.41-3.15c.69.56,1.15,1.34,1.39,2.19l-1.31.72c-.3-.86-.67-1.55-1.34-2.19l1.26-.72Z"/><path class="e" d="m123,206.4c0,1.02.05,2.05.13,3.07h-1.66c.03-.21.05-.37.06-.58h-4.83c.02.21.03.42.05.62h-1.62c.11-1.02.11-2.06.11-3.11v-2.18c-.85.72-1.68,1.23-2.66,1.74l-1.33-1.12c1.62-.66,3.31-1.71,4.43-3.06-1.28.02-2.56.02-3.83.08v-1.41c1.54.1,3.09.14,4.64.14.18-.32.32-.66.46-.99-1.15,0-2.32,0-3.47.1v-1.41c1.23.1,2.46.13,3.71.13h.16c.08-.27.14-.54.21-.82h-.67c-1.47,0-2.95,0-4.43.1v-1.41c1.49.1,2.96.13,4.43.13h.88c.06-.48.11-.96.13-1.46l1.7.13c.16.02.29.05.29.19,0,.13-.14.22-.37.3-.05.29-.11.56-.16.83h1.97c1.47,0,2.95-.03,4.43-.13v1.41c-1.49-.1-2.96-.1-4.43-.1h-2.23c-.06.27-.13.54-.21.82h2c1.23,0,2.46-.03,3.7-.13v1.41c-1.17-.1-2.35-.1-3.52-.1.13.35.27.66.45.99,1.62,0,3.23-.05,4.85-.14v1.41c-1.34-.06-2.69-.06-4.03-.08,1.06,1.26,2.77,2.35,4.35,2.75l-1.23,1.33c-.9-.37-1.7-.91-2.47-1.52v2.03Zm-2.37-4.59h-3.22c-.29.45-.61.88-.98,1.26h5.19c-.38-.4-.69-.8-.99-1.26Zm-3.97,3.6h4.9v-1.18h-4.9v1.18Zm0,2.34h4.9v-1.23h-4.9v1.23Zm1.86-8.12c-.13.34-.26.67-.42.99h1.86c-.14-.34-.29-.66-.4-.99h-1.04Z"/><path class="e" d="m133.49,196.18h3.47c1.04-.03,1.79-.05,2.85-.11-.08,1.25-.08,2.51-.1,3.76v4.39c0,1.34.05,3.38.16,4.71h-1.79c.02-.37.03-.74.05-1.12h-6.08c.02.38.05.77.06,1.15h-1.79c.06-1.54.14-3.09.14-4.64v-4.03c0-1.39,0-2.8-.08-4.19,1.02.06,2.07.06,3.11.1Zm4.64,1.49h-6.08v3.57h6.08v-3.57Zm-6.08,5.03v3.67h6.08v-3.67h-6.08Z"/><path class="e" d="m157.08,205.85v1.58c-1.5-.1-3.41-.13-6.13-.13s-4.79.05-6.15.13v-1.58c1.95.13,3.79.13,5.38.13v-7.27c-1.39-.02-2.79.05-4.18.13v-1.52c1.15.08,2.45.11,3.6.11h2.75c1.12,0,2.54-.03,3.7-.11v1.52c-1.49-.1-2.71-.13-4.19-.13v7.27c1.74,0,3.38-.02,5.22-.13Z"/><path class="e" d="m164.87,196.38c0,.16-.11.29-.45.46-.02.46-.03,1.2-.02,2.26.02,1.87.06,3.49.11,4.74h-1.81c.08-.85.13-2.24.13-3.47v-1.82c0-.83-.02-1.7-.05-2.53l1.6.1c.27.02.48.05.48.27Zm6.87-.26c0,.21-.14.34-.42.53-.03.64-.05,1.68-.05,2.46-.03,3.15-.18,4.8-1.12,6.37-.91,1.52-2.66,2.79-4.35,3.51l-1.34-1.41c1.76-.42,3.57-1.5,4.39-2.93.67-1.17.85-2.13.85-5.7,0-1.06-.02-2.45-.05-3.23l1.67.11c.27.02.43.1.43.29Z"/><path class="e" d="m181.14,196.98c1.28,0,2.69-.02,3.97-.05,1.09-.03,2.71-.08,3.67-.27l1.2,1.49c-.58.29-.77.59-1.14,1.14-.93,1.36-2.43,3.19-3.52,4.13l-1.28-1.14c1.3-.83,2.75-2.51,3.7-4.1-2.13,0-4.35.05-6.37.1-1.58.03-3.14.08-4.71.18v-1.57c1.54.08,2.93.1,4.48.1Zm-.19,7.89c.91-1.46,1.15-3.44,1.15-4.67,0-.38-.02-.77-.03-1.15l1.73.18c.29.03.43.11.43.3,0,.21-.13.29-.43.45-.19,2.08-.4,3.83-1.47,5.67-.72,1.25-1.65,2.21-2.79,3.07l-1.57-1.01c1.18-.67,2.26-1.7,2.98-2.83Z"/><path class="e" d="m196.78,198.26v-1.6h8.13v1.6c-1.34,1.2-2.23,2.61-2.99,4.21-.9,1.87-1.57,3.81-1.73,5.87h-1.79c.16-2.06,1.14-4.35,2.11-6.18.75-1.42,1.58-2.64,2.61-3.91h-6.34Z"/><path class="e" d="m205.62,208.35l4.19-11.68h1.97l4.19,11.68h-1.92l-1.09-3.23h-4.32l-1.1,3.23h-1.92Zm3.55-4.82h3.25l-1.62-4.77-1.63,4.77Z"/><path class="e" d="m216.82,208.35c.08-.83.14-1.49.46-2.27.21-.5.5-.94.88-1.33.69-.67,1.54-1.36,2.3-1.95.54-.42,1.78-1.36,2.1-1.89.22-.37.34-.75.34-1.17,0-1.22-.86-1.89-2.03-1.89-1.68,0-2.02,1.2-2.07,2.62h-1.7c.08-1.2.26-2.31,1.15-3.19.72-.69,1.73-1.01,2.72-1.01,2.03,0,3.67,1.36,3.67,3.47,0,.86-.29,1.67-.88,2.29-.59.61-1.63,1.39-2.34,1.9-1.06.77-2.27,1.55-2.72,2.85h5.89v1.55h-7.78Z"/><path class="e" d="m226.61,198.01c.66-1.25,1.62-1.71,3.01-1.71s2.35.46,3.01,1.71c.7,1.36.93,2.99.93,4.5s-.22,3.15-.93,4.5c-.66,1.25-1.63,1.73-3.01,1.73s-2.35-.46-3.01-1.73c-.72-1.33-.93-2.99-.93-4.5s.21-3.17.93-4.5Zm1.31,8.18c.3.66.96,1.07,1.7,1.07s1.39-.42,1.7-1.07c.48-1.07.54-2.53.54-3.68s-.06-2.61-.54-3.67c-.3-.67-.98-1.09-1.7-1.09s-1.39.42-1.7,1.09c-.5,1.06-.54,2.51-.54,3.67s.05,2.62.54,3.68Z"/><path class="e" d="m234.61,208.35c.08-.83.14-1.49.46-2.27.21-.5.5-.94.88-1.33.69-.67,1.54-1.36,2.3-1.95.54-.42,1.78-1.36,2.1-1.89.22-.37.34-.75.34-1.17,0-1.22-.86-1.89-2.03-1.89-1.68,0-2.02,1.2-2.07,2.62h-1.7c.08-1.2.26-2.31,1.15-3.19.72-.69,1.73-1.01,2.72-1.01,2.03,0,3.67,1.36,3.67,3.47,0,.86-.29,1.67-.88,2.29-.59.61-1.63,1.39-2.34,1.9-1.06.77-2.27,1.55-2.72,2.85h5.89v1.55h-7.78Z"/><path class="e" d="m251.84,198.02h-.51c-.51,0-1.15.05-1.65.13v-1.44c.48.1,1.15.13,1.65.13h.51v-.06c0-.43-.02-1.34-.05-1.74l1.71.18c.19.02.32.08.32.22s-.11.22-.24.27c-.11.05-.14.06-.26.13-.06.34-.1.67-.11,1.01.46-.02.94-.03,1.41-.13v.8c.27-.48.5-.91.7-1.42l1.39.78c.08.05.13.11.13.18,0,.32-.29.26-.51.29-.37.54-1.04,1.68-1.46,2.32.4-.02.78-.05,1.18-.1v1.44c-.67-.08-1.34-.11-2.03-.13-.29.38-.59.77-.93,1.14h.45c.37,0,1.34-.06,1.68-.18l.42.98c-.29.37-.66.72-.99,1.04-.38.34-.77.67-1.1,1.04v.45c1.02-.14,2.05-.34,3.07-.5l-.29,1.12c-.42.11-2.23.43-2.79.54v1.36c0,1.58-.83,1.6-2.58,1.66l-.46-1.66c.43.14.91.29,1.17.29.29,0,.42,0,.42-.62v-.77c-.75.13-1.5.27-2.26.38-.06.14-.18.43-.37.43-.11,0-.21-.11-.22-.24l-.13-1.49c.99-.03,1.97-.18,2.96-.3-.02-.42-.03-1.38-.08-1.7l.82.22c.35-.32.62-.54.83-.98h-1.63c-.78.7-1.6,1.26-2.51,1.81l-1.07-1.14c1.42-.56,2.95-1.76,3.99-2.9h-.98c-.74,0-1.58.03-2.3.13v-1.44c.7.1,1.6.13,2.3.13h.4v-1.66Zm1.5,1.66c.34-.51.66-1.04.96-1.58-.34-.05-.83-.08-1.17-.08v1.66h.21Zm7.17,6.29c.9,1.12,1.81,1.78,3.14,2.31l-1.02,1.31c-1.17-.77-2.05-1.42-2.96-2.5-1.12,1.2-2.46,1.82-3.97,2.42l-1.28-1.3c1.65-.46,3.27-1.01,4.42-2.35-.69-1.26-1.17-2.71-1.42-4.13-.22.35-.35.54-.61.86l-1.47-.69c.64-.62,1.1-1.23,1.47-2.05.59-1.28,1.06-2.91,1.06-4.32,0-.18-.02-.35-.02-.53l1.86.22c.13.02.24.08.24.21,0,.16-.13.22-.59.4-.08.74-.18,1.47-.35,2.19h2.58c.58,0,1.33-.05,1.89-.13v1.47c-.43-.08-.77-.1-1.2-.13-.13,2.24-.56,4.77-1.74,6.72Zm-1.87-6.74c-.18.45-.38.88-.59,1.31l.61-.24c.13,1.54.43,2.9,1.04,4.31.88-1.6,1.15-3.59,1.15-5.38h-2.21Z"/><path class="e" d="m272.98,204.87h.78c1.04,0,2.15-.03,3.19-.13v1.57c-1.06-.1-2.13-.13-3.19-.13h-.78v1.57h2.66c1.22,0,2.43-.06,3.65-.18v1.47c-1.5-.05-2.96-.08-4.51-.08h-4.69c-1.62,0-3.23.05-4.83.13v-1.42c1.1.08,2.4.11,3.52.11h2.72v-1.6h-.83c-1.06,0-2.11.03-3.15.13v-1.57c1.02.1,2.13.13,3.15.13h.83v-1.49c-1.02.1-2.05.19-3.07.29-.13.29-.19.37-.32.37s-.16-.08-.19-.21l-.38-1.49c.53,0,1.04-.03,1.57-.05.53-.64,1.01-1.31,1.41-2.03-.8,0-1.86.05-2.66.13v-1.57c.94.1,2.02.13,2.96.13h2.93c.96,0,2.03-.03,2.99-.13v1.57c-.99-.1-2-.13-2.99-.13h-1.55c-.34.72-.67,1.28-1.15,1.9,1.17-.05,2.34-.11,3.52-.22-.34-.29-.62-.48-.99-.72l1.14-.94c1.1.86,1.92,1.76,2.79,2.87l-1.23,1.07c-.24-.42-.5-.85-.77-1.25-.83.11-1.66.18-2.5.26v1.65Zm1.38-8.21c1.68,0,3.14-.05,4.69-.13-.02.5-.02,1.01-.02,1.52,0,.67.03,1.34.08,2.02h-1.5c.1-.74.1-1.47.1-2.21h-10.84c0,.77,0,1.52.05,2.29h-1.54c.13-.86.16-2.02.16-2.9,0-.24-.02-.48-.03-.72,1.5.11,2.98.13,4.51.13h1.52c-.02-.58-.03-1.15-.06-1.73l1.81.18c.13.02.24.06.24.21s-.19.29-.45.43c-.03.3-.03.61-.05.91h1.33Z"/><path class="e" d="m4.58,245.13h-1.65v-4.1c-.35.7-.93,1.57-1.46,2.15l-1.47-.86c1.18-1.26,2.24-2.95,2.62-4.64H.35v-1.47h2.58v-4.79l1.44.13c.24.02.5.06.5.22,0,.1-.06.14-.13.19-.11.08-.16.11-.16.19v4.05h2.18v1.47h-2.18c.48.88,1.31,1.68,2.06,2.34l-.91,1.23c-.42-.38-.82-.8-1.15-1.26v5.15Zm-2.9-12.65c.37.78.62,1.65.82,2.48l-1.5.54c-.14-.8-.45-1.7-.82-2.42l1.5-.61Zm5.39.26c.3.06.43.13.43.22,0,.06-.08.14-.19.19-.14.06-.16.1-.19.24-.16.69-.43,1.49-.77,2.14l-1.3-.56c.34-.77.56-1.71.67-2.54l1.34.3Zm6.83,6.21l.1,1.55-1.44.37v4.23h-1.73v-3.79l-4.02,1.04-.19-1.52,4.21-1.09v-8.32l1.71.16c.19.02.38.06.38.19,0,.06-.06.13-.19.19s-.18.16-.18.24v7.11l1.34-.35Zm-5.49-2.64c.67.51,1.33,1.22,1.81,1.92l-1.07,1.09c-.48-.7-1.14-1.41-1.79-1.92l1.06-1.09Zm.26-3.65c.64.48,1.22,1.04,1.65,1.7l-1.07,1.1c-.43-.66-1.02-1.23-1.65-1.7l1.07-1.1Z"/><path class="e" d="m24.1,231.48c.1.02.14.08.14.14,0,.05-.02.08-.11.19.82,1.02,1.92,1.84,3.01,2.53,1.14.72,2.06,1.12,3.3,1.62l-1.2,1.47c-1.23-.4-2.06-.83-3.14-1.55v1.36h-2.06v1.1h4.16v1.57h-4.16v3.39h1.97l-1.26-.7c.58-.83.96-1.6,1.31-2.54l1.67.83c.06.03.11.1.11.18,0,.03-.02.11-.16.14-.18.03-.21.11-.27.24-.34.64-.67,1.25-1.04,1.86h2.74v1.66h-12v-1.66h2.61c-.32-.83-.7-1.55-1.23-2.27l1.49-.96c.51.77.91,1.57,1.25,2.43l-1.34.8h2.35v-3.39h-4.24v-1.57h4.24v-1.1h-2.23v-1.17c-.94.62-1.74,1.07-2.79,1.55l-1.47-1.42c1.44-.56,2.34-1.01,3.59-1.95,1.25-.94,1.92-1.65,2.72-3.03l2.07.26Zm1.65,4.16c-1.02-.77-1.79-1.46-2.61-2.46-.78,1.02-1.5,1.7-2.53,2.46h5.14Z"/><path class="e" d="m59.57,236.52c.9-.02,1.78-.05,2.66-.11v1.38c-.88-.05-1.76-.06-2.66-.08v2.54c.79-.03,1.55-.05,2.34-.11v1.34c-1.15-.06-3.42-.11-4.87-.11h-4.07c-1.57,0-3.15.06-4.72.19v-1.44c.82.08,1.62.1,2.42.13v-2.54c-.9.02-1.79.03-2.69.08v-1.38c.9.06,1.79.1,2.69.13v-1.78c-.51.64-.54.61-1.14,1.14l-1.54-.88c1.5-.8,2.77-2.48,3.22-4.13l1.58.66c.08.03.21.11.21.22,0,.19-.42.27-.56.3-.13.27-.24.53-.38.78h6.24c.82,0,2-.06,2.83-.14v1.46c-.53-.05-1.04-.08-1.57-.11v2.46Zm-11.32,7.99c.91-.67,1.65-1.73,2.05-2.77l1.42.77c.11.06.13.13.13.21,0,.24-.32.24-.5.24-.35.8-1.2,1.86-1.82,2.48l-1.28-.93Zm3.79-7.96h1.12v-2.53h-1.12v2.53Zm0,1.15v2.56h1.12v-2.56h-1.12Zm.66,7.48c.03-.4.08-.8.08-1.2,0-.69-.05-1.2-.21-1.87l1.39-.1c.22.48.34,1.66.34,2.21,0,.32-.03.64-.05.96h-1.55Zm1.82-8.63h1.14v-2.53h-1.14v2.53Zm0,1.15v2.56h1.14v-2.56h-1.14Zm1.5,7.48c-.06-1.07-.3-2.08-.86-3.01l1.42-.26c.53.94.83,1.97.93,3.04l-1.49.22Zm.99-8.63h1.2v-2.53h-1.2v2.53Zm0,1.15v2.56h1.2v-2.56h-1.2Zm3.36,7.76c-.5-1.06-1.46-2.42-2.26-3.23l1.14-.56c1.17,1.22,1.47,1.6,2.32,3.06l-1.2.74Z"/><path class="e" d="m66.29,237.34c-.69,0-1.49.05-2.16.14v-1.57c.66.08,1.5.13,2.16.13h.69v-.94c0-1.36-.03-2.72-.08-4.07l1.57.21c.14.02.29.03.29.21,0,.14-.05.18-.4.42-.05,1.06-.08,2.11-.08,3.17v1.01h.14c.67,0,1.52-.03,2.18-.13v1.57c-.67-.1-1.49-.14-2.18-.14h-.14v.26c.7,1.2,1.44,1.95,2.5,2.83l-.75,1.3c-.59-.59-1.2-1.15-1.75-1.78v1.28c0,1.42.05,2.85.1,4.26h-1.5c.06-1.42.11-2.85.11-4.29v-1.33c-.56,1.15-1.23,2.24-2.23,3.06l-1.3-.99c1.54-1.15,2.56-2.79,3.17-4.59h-.34Zm.08-2.62l-1.26.69c-.27-.9-.61-1.78-1.22-2.5l1.25-.77c.62.85.98,1.55,1.23,2.58Zm4.71-1.84c.08.03.13.11.13.18,0,.21-.16.27-.48.34-.3.75-.62,1.46-1.09,2.11l-1.3-.59c.62-.85.94-1.62,1.23-2.61l1.5.58Zm4.27,1.79c0-1.23-.03-2.46-.08-3.68l1.7.18c.18.02.21.19.21.27,0,.18-.13.24-.34.35-.03.94-.08,1.89-.08,2.82v3.07c.58-.16,1.12-.35,1.68-.53l.19,1.67c-.62.1-1.25.19-1.87.32v1.41c0,1.65.06,3.3.11,4.95h-1.62c.06-1.65.1-3.31.1-4.96v-1.01l-1.68.48c-.77.24-1.54.5-2.3.74l-.3-1.81c.86-.11,1.7-.24,2.54-.45l1.75-.43v-3.38Zm-1.18,1.81l-.91,1.12c-.66-.67-1.22-1.01-2.05-1.41l.98-1.1c.78.35,1.39.74,1.98,1.39Zm.29-3.33l-.86,1.2c-.64-.67-1.2-.99-2.05-1.33l.88-1.26c.82.38,1.39.75,2.03,1.39Z"/><path class="e" d="m13.49,270.04v1.65h-5.46v2.72h4.19v1.63h-4.19v3.25h5.79v1.68H.35v-1.68h5.78v-3.25H1.97v-1.63h4.16v-2.72H.7v-1.65h6.19c-.58-.61-1.46-1.34-2.16-1.79l1.1-1.34c.91.56,2.05,1.46,2.79,2.24l-.75.9h5.62Z"/><path class="e" d="m26.5,271.75c.16.06.35.16.35.32,0,.11-.06.14-.24.16-.14.02-.21.03-.29.16-.06.1-.16.26-.34.53h4.03v1.39h-3.76v.83h2.8v1.28h-2.8v.83h2.8v1.28h-2.8v.9h3.76v1.39h-7.43v.35h-1.73v-5.76c-.14.16-.29.34-.45.5l-.86-.82v6.13h-1.75v-8c-.26.34-.51.64-.8.96l-1.57-1.25c1.7-1.71,2.56-3.27,3.2-5.59l1.44.48c.24.08.46.14.67.29v-.32l1.39.1c.42.03.66.05.66.21,0,.1-.08.14-.16.19-.13.08-.19.16-.19.21v1.47h1.7v-2.67l1.42.1c.46.03.62.06.62.19,0,.1-.11.16-.19.21-.08.05-.18.13-.18.22v1.95h1.79v-2.18l1.46.1c.37.03.61.06.61.21,0,.1-.11.18-.19.22-.08.05-.18.1-.18.19v2.85h-3.68l.86.38Zm-5.75-3.33s-.1.06-.18.1c-.14.06-.19.1-.3.32-.08.18-.21.45-.42.93-.1.21-.21.42-.34.61.16.08.43.21.43.4,0,.13-.11.22-.19.27-.1.06-.21.13-.21.24v3.02c.99-.98,1.57-1.7,2.18-2.94h-.98v-2.95Zm3.79,5.89h-1.95v.83h1.95v-.83Zm0,2.11h-1.95v.83h1.95v-.83Zm-1.95,2.11v.9h1.95v-.9h-1.95Zm.91-6.8c.1.06.26.16.26.29,0,.16-.18.19-.3.22-.29.06-.32.11-.5.4-.06.1-.13.19-.19.27h1.34c.38-.5.7-1.01,1.02-1.55h-2.22l.59.37Z"/><path class="e" d="m53.11,268.65c.54,0,1.23-.05,1.78-.13v1.38c.58-.86.96-1.92,1.18-2.93l1.55.37c.13.03.24.06.24.19,0,.18-.22.24-.42.3-.1.3-.21.59-.34.9h3.01c.61,0,1.46-.05,2.06-.14v1.44c-.69-.1-1.38-.1-2.06-.1h-.7c.21.43.4.88.56,1.34l-1.33.67c-.26-.85-.4-1.25-.82-2.02h-1.3c-.38.75-.8,1.39-1.34,2.03l-1.57-.67c.48-.45.83-.82,1.23-1.36-.53-.08-1.2-.08-1.74-.08h-.51c.16.43.43,1.31.53,1.74l-1.38.46c-.1-.62-.37-1.65-.62-2.21h-.88c-.43.58-.78.93-1.26,1.44l-1.57-.7c1.17-.78,2.34-2.43,2.66-3.81l1.62.66c.08.03.18.1.18.21,0,.18-.24.21-.45.24-.13.27-.27.51-.42.77h2.11Zm-3.14,5.39c-.59,0-1.38.05-1.95.13v-1.55c.58.1,1.36.13,1.95.13h1.94c.59,0,1.38-.03,1.97-.13v1.55c-.59-.08-1.38-.13-1.97-.13h-.14v3.76c.56-.14,1.55-.56,2.05-.83l.02,1.42c-1.2.61-3.84,1.41-5.19,1.73-.05.13-.14.4-.3.4-.11,0-.18-.11-.21-.22l-.42-1.5c.88-.08,1.76-.27,2.61-.54v-4.21h-.35Zm4.58,6.29c-.61.58-1.36.94-2.13,1.23l-1.07-1.23c2.99-.74,3.52-2.37,3.52-5.22,0-.94-.06-1.89-.19-2.82.62.03,1.25.11,1.86.11h1.78c.61,0,1.22-.03,1.84-.08-.08.59-.11,2.32-.11,2.98l-.06,4.31c0,.46.05.58.53.58.51,0,.62-.37.64-2.32l1.55.8c-.1.58-.27,1.78-.62,2.21-.42.51-.64.51-1.68.51-1.17,0-1.84-.1-1.81-1.46l.05-2.56-.94.66c-.19-.64-.99-1.68-1.5-2.15-.13,1.73-.3,3.2-1.63,4.45Zm2.45-5.52c.59.58,1.14,1.22,1.63,1.87l.05-2.98h-2.42c0,.59-.02,1.18-.05,1.78l.79-.67Z"/><path class="e" d="m67.23,272.55l-.58,1.47c-.69-.58-1.92-1.26-2.82-1.36l.67-1.41c1.09.29,1.82.64,2.72,1.3Zm-.11,1.79l.98,1.23c-.74,2.23-1.23,3.33-2.45,5.35,0,.1.02.21.02.29,0,.1-.03.22-.14.22-.1,0-.16-.03-.24-.13l-1.09-1.22c1.36-1.54,2.37-3.79,2.93-5.75Zm1.31-5.91l-.64,1.38c-.69-.59-1.84-1.14-2.72-1.34l.62-1.34c1.09.27,1.84.66,2.74,1.31Zm8.31,4.82l.43.45c-.46,1.68-1.12,3.33-2.19,4.72,1.09.82,2.13,1.25,3.44,1.55l-1.12,1.44c-1.23-.43-2.32-1.04-3.33-1.86-.72.74-1.78,1.57-2.72,1.95l-1.54-1.25c1.25-.45,2.13-.86,3.14-1.74-.96-1.09-1.7-2.42-1.9-3.87h-.56c-.11,3.12-.32,4.24-2.08,6.87l-1.55-.64c1.83-2.31,2.27-4.32,2.27-7.2,0-1.44-.1-2.9-.26-4.34.98.05,1.95.11,2.93.11h.9c-.02-.82-.06-1.62-.13-2.42l1.68.11c.21.02.32.06.32.18,0,.14-.22.26-.35.32-.08.59-.08,1.22-.1,1.81h1.01c.77,0,2-.06,2.75-.16l.66.64c-.58,1.04-1.17,2.08-1.74,3.11l-1.5-.54c.42-.54.77-1.12,1.1-1.73h-2.29v2.61c.91-.05,1.83-.06,2.74-.11Zm-4.15-2.5h-2.19v2.61h2.19v-2.61Zm1.3,6.66c.69-.88,1.07-1.71,1.42-2.77h-2.9c.22,1.04.8,1.97,1.47,2.77Z"/><path class="e" d="m89.4,271.18c1.52,0,3.04-.03,4.55-.13v1.57c-1.5-.1-3.03-.13-4.55-.13h-1.46c.16,1.98,1.22,3.83,2.67,5.17.99.93,2.3,1.74,3.62,2.11l-1.15,1.5c-1.22-.51-2.77-1.58-3.7-2.51-1.01-1.01-1.81-2.26-2.35-3.57-.61,1.57-1.22,2.66-2.4,3.87-1.1,1.14-2.11,1.74-3.55,2.34l-1.12-1.39c1.9-.59,3.31-1.46,4.48-3.11,1.02-1.46,1.44-2.67,1.68-4.42h-1.38c-1.5,0-3.01.03-4.51.13v-1.57c1.5.1,3.01.13,4.51.13h1.49c.05-.72.08-1.44.08-2.16,0-.59-.02-1.18-.05-1.78l1.86.19c.16.02.46.05.46.29s-.42.37-.61.43c-.03,1.01-.08,2.02-.08,3.02h1.5Z"/><path class="e" d="m101.59,281.39c-.13,0-.27,0-.4-.02l-.69-1.7c.22.03,1.36.22,1.54.22.51-.02.51-.27.51-1.06v-1.28h-1.94c-1.58,0-3.17.03-4.74.13v-1.54c1.57.11,3.15.13,4.74.13h1.92c.02-.54-.05-1.15-.18-1.7l1.06.26c.46-.35.9-.72,1.31-1.14h-3.89c-.59,0-1.17.03-1.76.06l-.02-1.44c.58.03,2.48.11,3.01.11h1.79c.69,0,2.27-.08,2.95-.16l.56.83c-.29.26-1.22,1.12-1.49,1.39l-1.78,1.78h1.42c1.6,0,3.2-.02,4.79-.13v1.54c-1.58-.1-3.19-.13-4.79-.13h-1.47v.56c0,.66.05,1.3.05,1.95,0,1.28-.86,1.31-2.51,1.31Zm-.26-11.41h2.98c.7,0,1.42-.03,2.13-.05l-.98-.45c.56-.67,1.02-1.52,1.28-2.37l1.41.58c.08.03.34.14.34.24,0,.27-.34.35-.54.38-.21.38-.77,1.28-1.01,1.6.98-.02,1.95-.06,2.95-.13-.05.61-.06,1.2-.06,1.81,0,.56.03,1.15.14,1.71h-1.71c.02-.43.03-.88.03-1.33v-.78h-10.4c0,.7.03,1.42.1,2.11h-1.81c.14-.7.18-1.41.18-2.13,0-.46-.03-.91-.06-1.38.7.1,2.11.1,2.88.11-.34-.75-.82-1.38-1.41-1.95l1.33-.8c.56.45,1.2,1.39,1.44,2.08l-1.18.69c.67.02,1.33.05,2,.05Zm1.41-3.15c.69.56,1.15,1.34,1.39,2.19l-1.31.72c-.3-.86-.67-1.55-1.34-2.19l1.26-.72Z"/><path class="e" d="m118.77,270.66v.29c0,.91-.22,3.06-.64,3.81l-1.39-.53c.42-.93.69-2.35.69-3.36,0-.16,0-.3-.03-.46l1.38.26Zm6.82,1.68h.78v-.88h-.48c-.74,0-1.52,0-2.26.1v-1.44c.69.1,1.57.13,2.26.13h.48v-.85h-.72c-.91,0-1.84.03-2.75.1v-1.31c.91.1,1.84.1,2.75.1h.7c-.02-.43-.02-.86-.02-1.3l1.68.14c.13.02.26.05.26.19,0,.13-.06.18-.24.26-.06.03-.14.08-.19.11,0,.19-.02.38-.02.59h.62c.93,0,1.87,0,2.79-.1v1.31c-.93-.06-1.86-.1-2.79-.1h-.64v.85h.34c.7,0,1.57-.03,2.26-.13v1.44c-.75-.1-1.5-.1-2.26-.1h-.34v.88h.79c1.04,0,2.08-.03,3.12-.1v1.36c-1.04-.06-2.08-.1-3.12-.1h-3.01c-1.04,0-2.08.03-3.12.1v-1.3l-.96.43c-.21-.85-.48-1.58-.91-2.35,0,.35-.02.69-.02,1.02v4.75c0,.75.06,4.75.14,5.27l-1.84-.02c.06-.83.16-1.66.19-2.5.05-.91.14-1.84.14-2.77v-4.74c0-1.47-.03-2.96-.03-4.43l1.5.16c.29.03.37.05.37.19,0,.11-.11.24-.37.43-.06.86-.08,1.73-.1,2.61l1.17-.62c.46.56.94,1.68,1.14,2.37l-.3.14c.99.05,2,.08,2.99.08Zm2.38,9.22l-.54-1.39c.48.03.78.08,1.26.08.34,0,.32-.13.32-.56v-.37h-4.02c0,.7.03,1.39.03,2.1h-1.49c.06-.35.08-.67.08-1.02,0-.45.02-.67.02-1.07v-3.95c0-.4,0-.78-.02-1.17.64.03,1.3.05,1.94.06h2.83c.24,0,1.68-.06,2.07-.06-.03.46-.05,1.86-.05,2.35v2.32s.06,1.22.06,1.62c0,.59-.22.86-.82.96-.42.06-1.22.11-1.68.11Zm-2.98-5.3h4.02v-.85h-4.02v.85Zm0,1.95h4.02v-.86h-4.02v.86Z"/><path class="e" d="m137.95,281.53h-1.73c.03-.24.14-2.45.14-2.72v-.13h-.51c-.74,0-1.47.06-2.21.11v-1.41c.61.1,1.63.1,2.26.1h.46v-1.46h-.51c-.53,0-1.65.13-2.21.18v-1.52c.43.06.98.14,1.42.13-.26-.67-.56-1.23-.88-1.82-.34.02-.67.05-1.01.08v-1.52c.8.1,1.81.13,2.61.13h.61v-1.7h-.34c-.38,0-1.78.06-2.13.13v-1.42c.38.06,1.87.11,2.31.11h.16c0-.62-.02-1.23-.03-1.86l1.42.1c.27.02.5.03.5.27,0,.22-.3.37-.5.45,0,.34-.02.69-.02,1.04h.35c.8,0,1.62-.06,2.43-.11v1.42c-.75-.1-1.52-.13-2.27-.13h-.54v1.7h.67c.64,0,1.89-.05,2.51-.13v1.52c-.37-.05-.7-.06-1.07-.08-.22.62-.46,1.23-.72,1.82.26,0,1.17-.08,1.42-.13v1.42c-.74-.05-1.68-.08-2.42-.08h-.35v1.46h.46c.51,0,1.82-.03,2.3-.1v1.41c-.74-.03-1.71-.11-2.22-.11h-.54v.13c0,.77.08,1.94.16,2.72Zm-.16-6.72c.24-.61.45-1.23.64-1.86h-2.77c.29.54.64,1.28.86,1.86h1.26Zm10.21,5.6l-1.04.99c-.64-.38-1.23-.83-1.74-1.36-.42.56-.78.96-1.28,1.44l-1.02-.99c.02.35.05.69.05,1.04h-1.7c.11-1.09.14-3.78.14-4.96v-5.52c0-.67-.06-3.03-.14-3.62.67.1,1.52.1,2.21.1h1.52c.74,0,1.46-.03,2.19-.1-.03,1.06.02,3.14-.62,3.97-.45.56-1.1.75-1.79.75-.24,0-.43-.02-.66-.05l-.64-1.5c.51.08,1.04.14,1.38.14.7,0,.78-.58.91-2.06h-3.01v4.16h2.21c.82-.03,1.65-.03,2.47-.08-.06,1.94-.53,4.29-1.42,6.02.58.64,1.3,1.14,2,1.63Zm-2.08-6.35h-3.17v2.53c0,1.26.06,2.53.14,3.78.5-.45.99-.91,1.38-1.44-.7-1.1-1.3-2.85-1.39-4.16l1.22-.58c.14,1.15.4,2.31.99,3.31.45-1.1.74-2.26.83-3.44Z"/><path class="e" d="m154.91,281.39c-.13,0-.27,0-.4-.02l-.69-1.7c.22.03,1.36.22,1.54.22.51-.02.51-.27.51-1.06v-1.28h-1.94c-1.58,0-3.17.03-4.74.13v-1.54c1.57.11,3.15.13,4.74.13h1.92c.02-.54-.05-1.15-.18-1.7l1.06.26c.46-.35.9-.72,1.31-1.14h-3.89c-.59,0-1.17.03-1.76.06l-.02-1.44c.58.03,2.48.11,3.01.11h1.79c.69,0,2.27-.08,2.95-.16l.56.83c-.29.26-1.22,1.12-1.49,1.39l-1.78,1.78h1.42c1.6,0,3.2-.02,4.79-.13v1.54c-1.58-.1-3.19-.13-4.79-.13h-1.47v.56c0,.66.05,1.3.05,1.95,0,1.28-.86,1.31-2.51,1.31Zm-.26-11.41h2.98c.7,0,1.42-.03,2.13-.05l-.98-.45c.56-.67,1.02-1.52,1.28-2.37l1.41.58c.08.03.34.14.34.24,0,.27-.34.35-.54.38-.21.38-.77,1.28-1.01,1.6.98-.02,1.95-.06,2.95-.13-.05.61-.06,1.2-.06,1.81,0,.56.03,1.15.14,1.71h-1.71c.02-.43.03-.88.03-1.33v-.78h-10.4c0,.7.03,1.42.1,2.11h-1.81c.14-.7.18-1.41.18-2.13,0-.46-.03-.91-.06-1.38.7.1,2.11.1,2.88.11-.34-.75-.82-1.38-1.41-1.95l1.33-.8c.56.45,1.2,1.39,1.44,2.08l-1.18.69c.67.02,1.33.05,2,.05Zm1.41-3.15c.69.56,1.15,1.34,1.39,2.19l-1.31.72c-.3-.86-.67-1.55-1.34-2.19l1.26-.72Z"/><path class="e" d="m168.54,281.34h-1.57c.08-.5.14-1.54.14-2.03v-1.25c-.37.46-.62.75-1.06,1.15l-1.3-.96c1.39-1.01,2.62-2.61,3.01-4.31h-.13c-.58,0-1.15,0-1.73.05v-1.25c.67.05,1.33.08,2,.08.03-.32.03-.64.03-.96v-.42h-.37c-.54,0-1.68.05-2.23.08v-1.2c.72.05,1.46.06,2.19.06h.4v-1.36c-.67,0-1.36,0-2.05.02v-1.22c.69.03,1.36.05,2.05.05h1.87c.66,0,1.31,0,1.97-.03-.05.58-.06,1.17-.06,1.76v.72c.18-.02.27-.02.45-.03v1.15h-.45v1.65c0,.3.02.61.03.85h-2.61c-.1.51-.24.96-.43,1.44h1.34c.45,0,1.26-.02,1.7-.05,0,.51-.02,1.42-.03,1.97v1.73c0,.66,0,1.34.03,1.98h-1.42c.03-.26.05-.42.05-.67h-1.86s-.02.08-.02.11c0,.18.02.7.03.88Zm-.02-2.13h1.86v-2.61h-1.86v2.61Zm1.98-6.39v-1.38h-1.2v.16c0,.4,0,.8-.03,1.22h1.23Zm0-2.43v-1.36h-1.2v1.36h1.2Zm6.19,11.09h-1.63c.18-1.3.19-3.06.19-4.4v-.16h-.58c-.8,0-1.71.05-2.51.14v-1.58c.77.1,1.73.14,2.51.14h.58v-1.68h-.34c-.72,0-1.44.03-2.16.03v-1.2c.34.03.54.03.88.03h.32c.32,0,.66.02.98.02h.32v-1.76h-.37c-.69,0-1.81,0-2.46.06v-1.26c.53.03,1.06.03,1.58.03-.21-.85-.54-1.52-1.09-2.19l1.31-.58c.59.62.93,1.34,1.18,2.14l-1.34.62h3.07l-.9-.38c.42-.62.85-1.74,1.01-2.48l1.49.59c.13.05.26.1.26.27,0,.22-.37.29-.53.32-.18.51-.5,1.2-.79,1.66.59-.02,1.17-.05,1.76-.06v1.28c-.13,0-.29-.02-.4-.02-.66,0-1.33-.02-2-.02h-.38v1.76h.37c.77,0,1.22-.02,2.13-.06v1.23c-.75-.05-1.26-.03-1.98-.05h-.51v1.68h.5c.8,0,1.74-.03,2.54-.14v1.58c-.82-.1-1.73-.14-2.54-.14h-.5v.22c0,.1-.02.59-.02.7,0,.82,0,2.85.05,3.63Z"/><path class="e" d="m188.1,270.66v.29c0,.91-.22,3.06-.64,3.81l-1.39-.53c.42-.93.69-2.35.69-3.36,0-.16,0-.3-.03-.46l1.38.26Zm6.82,1.68h.78v-.88h-.48c-.74,0-1.52,0-2.26.1v-1.44c.69.1,1.57.13,2.26.13h.48v-.85h-.72c-.91,0-1.84.03-2.75.1v-1.31c.91.1,1.84.1,2.75.1h.7c-.02-.43-.02-.86-.02-1.3l1.68.14c.13.02.26.05.26.19,0,.13-.06.18-.24.26-.06.03-.14.08-.19.11,0,.19-.02.38-.02.59h.62c.93,0,1.87,0,2.79-.1v1.31c-.93-.06-1.86-.1-2.79-.1h-.64v.85h.34c.7,0,1.57-.03,2.26-.13v1.44c-.75-.1-1.5-.1-2.26-.1h-.34v.88h.79c1.04,0,2.08-.03,3.12-.1v1.36c-1.04-.06-2.08-.1-3.12-.1h-3.01c-1.04,0-2.08.03-3.12.1v-1.3l-.96.43c-.21-.85-.48-1.58-.91-2.35,0,.35-.02.69-.02,1.02v4.75c0,.75.06,4.75.14,5.27l-1.84-.02c.06-.83.16-1.66.19-2.5.05-.91.14-1.84.14-2.77v-4.74c0-1.47-.03-2.96-.03-4.43l1.5.16c.29.03.37.05.37.19,0,.11-.11.24-.37.43-.06.86-.08,1.73-.1,2.61l1.17-.62c.46.56.94,1.68,1.14,2.37l-.3.14c.99.05,2,.08,2.99.08Zm2.38,9.22l-.54-1.39c.48.03.78.08,1.26.08.34,0,.32-.13.32-.56v-.37h-4.02c0,.7.03,1.39.03,2.1h-1.49c.06-.35.08-.67.08-1.02,0-.45.02-.67.02-1.07v-3.95c0-.4,0-.78-.02-1.17.64.03,1.3.05,1.94.06h2.83c.24,0,1.68-.06,2.07-.06-.03.46-.05,1.86-.05,2.35v2.32s.06,1.22.06,1.62c0,.59-.22.86-.82.96-.42.06-1.22.11-1.68.11Zm-2.98-5.3h4.02v-.85h-4.02v.85Zm0,1.95h4.02v-.86h-4.02v.86Z"/><path class="e" d="m207.28,281.53h-1.73c.03-.24.14-2.45.14-2.72v-.13h-.51c-.74,0-1.47.06-2.21.11v-1.41c.61.1,1.63.1,2.26.1h.46v-1.46h-.51c-.53,0-1.65.13-2.21.18v-1.52c.43.06.98.14,1.42.13-.26-.67-.56-1.23-.88-1.82-.34.02-.67.05-1.01.08v-1.52c.8.1,1.81.13,2.61.13h.61v-1.7h-.34c-.38,0-1.78.06-2.13.13v-1.42c.38.06,1.87.11,2.31.11h.16c0-.62-.02-1.23-.03-1.86l1.42.1c.27.02.5.03.5.27,0,.22-.3.37-.5.45,0,.34-.02.69-.02,1.04h.35c.8,0,1.62-.06,2.43-.11v1.42c-.75-.1-1.52-.13-2.27-.13h-.54v1.7h.67c.64,0,1.89-.05,2.51-.13v1.52c-.37-.05-.7-.06-1.07-.08-.22.62-.46,1.23-.72,1.82.26,0,1.17-.08,1.42-.13v1.42c-.74-.05-1.68-.08-2.42-.08h-.35v1.46h.46c.51,0,1.82-.03,2.3-.1v1.41c-.74-.03-1.71-.11-2.22-.11h-.54v.13c0,.77.08,1.94.16,2.72Zm-.16-6.72c.24-.61.45-1.23.64-1.86h-2.77c.29.54.64,1.28.86,1.86h1.26Zm10.21,5.6l-1.04.99c-.64-.38-1.23-.83-1.74-1.36-.42.56-.78.96-1.28,1.44l-1.02-.99c.02.35.05.69.05,1.04h-1.7c.11-1.09.14-3.78.14-4.96v-5.52c0-.67-.06-3.03-.14-3.62.67.1,1.52.1,2.21.1h1.52c.74,0,1.46-.03,2.19-.1-.03,1.06.02,3.14-.62,3.97-.45.56-1.1.75-1.79.75-.24,0-.43-.02-.66-.05l-.64-1.5c.51.08,1.04.14,1.38.14.7,0,.78-.58.91-2.06h-3.01v4.16h2.21c.82-.03,1.65-.03,2.47-.08-.06,1.94-.53,4.29-1.42,6.02.58.64,1.3,1.14,2,1.63Zm-2.08-6.35h-3.17v2.53c0,1.26.06,2.53.14,3.78.5-.45.99-.91,1.38-1.44-.7-1.1-1.3-2.85-1.39-4.16l1.22-.58c.14,1.15.4,2.31.99,3.31.45-1.1.74-2.26.83-3.44Z"/><path class="e" d="m229.51,277.15l-1.22,1.26c-.62-.91-1.44-1.89-2.35-2.78-1.57,2.06-3.62,3.84-5.83,5.22l-1.63-1.26c2.64-.9,5.41-3.7,6.29-5.04-.83-.78-2.19-1.7-3.15-2.22l.9-1.38c1.09.66,2.11,1.42,3.15,2.27.82-1.39,1.89-3.84,1.97-5.51l1.79.77c.26.11.34.18.34.29,0,.16-.22.22-.54.27-.37,1.1-1.17,3.25-2.32,5.27,1.15,1.04,2.19,2.19,2.61,2.85Z"/><path class="e" d="m232.02,273.91v-1.57c1.41.1,2.83.13,4.24.13h4.18c1.42,0,2.87-.03,4.29-.14v1.6c-1.42-.1-2.86-.14-4.29-.14h-.88c-.06,2-.4,3.73-1.42,5.03-.85,1.07-2.32,1.84-3.63,2.18l-1.36-1.26c1.5-.32,3.15-.96,4-2.31.66-1.04.77-2.43.78-3.63h-1.66c-1.41,0-2.83.03-4.24.13Zm7.68-4.08h-2.74c-.9,0-1.86.05-2.75.14v-1.7c.86.1,1.89.13,2.75.13h2.74c.88,0,1.92-.03,2.79-.13v1.7c-.9-.1-1.87-.14-2.79-.14Zm5.59.77l-.85.72c-.35-.58-.82-1.17-1.33-1.63l.77-.7c.56.46,1.01,1.01,1.41,1.62Zm1.04-1.87l-.82.69c-.42-.58-.9-1.12-1.44-1.57l.74-.69c.54.4,1.15,1.04,1.52,1.57Z"/><path class="e" d="m252.21,281.32h-1.55c.05-.86.08-1.7.08-2.56v-3.65c-1.15.78-2.4,1.5-3.46,2l-1.33-1.15c3.31-1.17,6.11-3.22,7.97-5.76l1.09.82c.22.16.34.32.34.43,0,.18-.19.26-.67.26-.56.62-1.23,1.36-2.58,2.45v4.13c0,1.07.05,2.1.11,3.04Z"/><path class="e" d="m261.87,268.98c1.28,0,2.69-.02,3.97-.05,1.09-.03,2.71-.08,3.67-.27l1.2,1.49c-.58.29-.77.59-1.14,1.14-.93,1.36-2.43,3.19-3.52,4.13l-1.28-1.14c1.3-.83,2.75-2.51,3.7-4.1-2.13,0-4.35.05-6.37.1-1.58.03-3.14.08-4.71.18v-1.57c1.54.08,2.93.1,4.48.1Zm-.19,7.89c.91-1.46,1.15-3.44,1.15-4.67,0-.38-.02-.77-.03-1.15l1.73.18c.29.03.43.11.43.3,0,.21-.13.29-.43.45-.19,2.08-.4,3.83-1.47,5.67-.72,1.25-1.65,2.21-2.79,3.07l-1.57-1.01c1.18-.67,2.26-1.7,2.98-2.83Z"/><path class="e" d="m279.33,271.75c-.45-.05-1.12-.1-1.57-.1h-1.57c-.46,0-1.12.05-1.58.1v-.75c-.67.59-1.28.98-2.08,1.39l-1.01-1.14c2.18-.9,3.58-2.27,4.59-4.4l1.6.53c.1.03.3.11.3.24,0,.1-.08.16-.16.21.75,1.1,2.46,2,3.7,2.46l-.91,1.1c-.5-.24-.83-.43-1.31-.7v1.06Zm-5.97,8.95l-1.41-.51c1.18-1.34,1.75-2.91,1.75-4.71v-1.58c0-.22-.05-1.17-.06-1.42.77.02,1.55.03,2.34.03h2.5c.62,0,1.49-.1,2.1-.18-.02.46-.03.93-.03,1.39v1.92c0,.48.05.96.11,1.42-.72-.02-1.46-.03-2.19-.03h-3.6c-.03.24-.06.4-.13.64.4.02.82.02,1.22.02h3.12c.18,0,1.33-.06,1.63-.1-.02.37-.03.75-.03,1.14v1.3c0,.32.08,1.06.13,1.44h-1.52c.02-.14.02-.27.02-.42h-3.23c0,.16,0,.32.02.48h-1.57c.05-.38.11-1.15.11-1.54v-1.14c0-.19-.05-.45-.06-.64-.35.96-.62,1.63-1.18,2.48Zm1.63-4.64h4.29v-.85h-4.26c0,.29-.02.58-.03.85Zm.03-1.7h4.24v-.85h-4.24v.85Zm1.73-5.81c-.48.69-.94,1.3-1.54,1.89.32.03.64.05.98.05h1.57c.38,0,.77-.02,1.15-.05-.7-.46-1.6-1.26-2.16-1.89Zm-.78,11.56h3.33v-1.42h-3.33v1.42Zm7.39-2.26h-1.68c.06-.94.11-1.89.11-2.85v-3.3c0-.85-.03-2.29-.1-3.1l1.63.22c.16.02.32.03.32.18,0,.11-.06.16-.43.43-.02.11-.02.51-.02.74v4.67c0,1.01.1,2.02.16,3.01Zm2.59-10.34c.18.02.37.03.37.24,0,.16-.16.29-.4.43-.02,1.18-.03,2.66-.03,4.19v4.24c0,1.09.03,2.18.03,3.27,0,.62-.08,1.07-.72,1.34-.43.18-1.14.19-1.62.19-.18,0-.35,0-.53-.02l-.66-1.49c.43.06.8.1,1.23.1.7,0,.78-.08.78-.53v-7.28c0-.83-.02-1.54-.05-2.3-.03-.93-.05-1.71-.08-2.56l1.66.18Z"/><path class="e" d="m299.17,272.46l1.67.78c.19.1.27.14.27.27,0,.11-.06.18-.26.21-.11.02-.21.05-.29.1-.13.24-.66,1.49-.8,1.84-.34.77-.78,1.49-1.28,2.15.27.45,1.14,1.87,1.68,1.87s1.1-1.41,1.25-2.02l1.17,1.31c-.29.77-1.25,2.71-2.19,2.71-.99,0-2.48-1.87-3.01-2.64-1.09,1.04-2.35,1.95-3.81,2.38l-1.2-1.34c1.73-.35,3.01-1.12,4.23-2.37-.98-1.9-1.31-4.31-1.57-6.42h-4.42v2.13h3.67c-.02.56-.03.96-.03,1.33,0,.46,0,1.18-.18,2.24-.1.61-.26,1.25-.61,1.76-.5.74-1.31.77-2.11.77-.18,0-.27-.02-.4-.05l-.43-1.65c.56.13.99.21,1.26.21.72,0,1.04-1.42,1.04-2.74,0-.22,0-.32-.03-.54h-2.18c.03,1.63-.61,4.83-1.44,6.23l-1.47-.66c1.14-1.81,1.54-4.8,1.54-6.91,0-1.1-.14-2.56-.37-3.63,1.09.21,2.64.14,3.76.16h2.26c-.08-.99-.14-1.97-.19-2.96l1.68.11c.18.02.43.03.43.27,0,.1-.05.14-.19.26-.08.06-.16.13-.24.21.02.7.02,1.41.05,2.11h1.94c.74,0,2.75-.08,3.43-.18v1.66c-1.18-.08-2.35-.1-3.52-.13h-1.76c.14,1.84.35,3.33,1.17,5.01.75-1.2,1.18-2.46,1.5-3.84Zm1.22-3.62l-1.2.93c-.4-.77-.93-1.44-1.65-1.92l1.15-.91c.66.48,1.39,1.12,1.7,1.9Z"/><path class="e" d="m309.68,281.39c-.13,0-.27,0-.4-.02l-.69-1.7c.22.03,1.36.22,1.54.22.51-.02.51-.27.51-1.06v-1.28h-1.94c-1.58,0-3.17.03-4.74.13v-1.54c1.57.11,3.15.13,4.74.13h1.92c.02-.54-.05-1.15-.18-1.7l1.06.26c.46-.35.9-.72,1.31-1.14h-3.89c-.59,0-1.17.03-1.76.06l-.02-1.44c.58.03,2.48.11,3.01.11h1.79c.69,0,2.27-.08,2.95-.16l.56.83c-.29.26-1.22,1.12-1.49,1.39l-1.78,1.78h1.42c1.6,0,3.2-.02,4.79-.13v1.54c-1.58-.1-3.19-.13-4.79-.13h-1.47v.56c0,.66.05,1.3.05,1.95,0,1.28-.86,1.31-2.51,1.31Zm-.26-11.41h2.98c.7,0,1.42-.03,2.13-.05l-.98-.45c.56-.67,1.02-1.52,1.28-2.37l1.41.58c.08.03.34.14.34.24,0,.27-.34.35-.54.38-.21.38-.77,1.28-1.01,1.6.98-.02,1.95-.06,2.95-.13-.05.61-.06,1.2-.06,1.81,0,.56.03,1.15.14,1.71h-1.71c.02-.43.03-.88.03-1.33v-.78h-10.4c0,.7.03,1.42.1,2.11h-1.81c.14-.7.18-1.41.18-2.13,0-.46-.03-.91-.06-1.38.7.1,2.11.1,2.88.11-.34-.75-.82-1.38-1.41-1.95l1.33-.8c.56.45,1.2,1.39,1.44,2.08l-1.18.69c.67.02,1.33.05,2,.05Zm1.41-3.15c.69.56,1.15,1.34,1.39,2.19l-1.31.72c-.3-.86-.67-1.55-1.34-2.19l1.26-.72Z"/><path class="e" d="m324.27,274.44h-1.47c.05-.64.08-1.26.08-1.9-.61.8-1.26,1.42-2.11,1.98l-1.12-.94c1.15-.62,2.06-1.44,2.8-2.53h-.1c-.78,0-1.58.03-2.37.1v-1.44c.78.11,1.58.14,2.37.14h.54v-.37c0-.83-.05-1.68-.13-2.51l1.57.18c.14.02.32.05.32.22s-.26.29-.4.34c-.05.5-.05,1.23-.05,1.73v.42h.53c.78,0,1.58-.03,2.37-.14v1.44c-.78-.06-1.58-.1-2.37-.1h-.06c.74.83,1.46,1.5,2.48,1.97l-.86,1.06c-.86-.45-1.47-1.06-2.08-1.79,0,.72.03,1.44.06,2.16Zm-1.95,2.9c-.8,0-1.6,0-2.4.1v-1.42c.8.1,1.6.13,2.4.13h.34c.03-.51.03-.9-.03-1.41l1.65.16c.14.02.22.06.22.19s-.11.21-.35.29c-.02.26-.02.51-.05.77h.61c.8,0,1.6-.03,2.4-.13v1.42c-.8-.1-1.6-.1-2.4-.1h-.74c-.02.06-.02.13-.03.19.72.94,1.57,1.71,2.54,2.39l-1.1,1.14c-.74-.59-1.41-1.3-1.91-2.1-.58,1.17-1.22,1.97-2.3,2.69l-1.2-1.04c.77-.42,1.42-.96,1.92-1.7.35-.51.48-.96.59-1.57h-.16Zm.21-8.4l-1.22.85c-.35-.72-.75-1.2-1.38-1.68l1.12-.8c.67.46,1.07.93,1.47,1.63Zm7.76,10.24c.08.05.13.13.13.21,0,.18-.22.21-.37.21-.05,0-.1-.02-.13-.02-.69.91-1.39,1.58-2.38,2.18l-1.12-1.02c1.1-.54,1.95-1.25,2.62-2.29-.51,0-1.01.03-1.52.08.06-.94.08-1.89.08-2.83v-2.77c0-.96-.02-1.9-.08-2.85.7.08,1.41.1,2.13.1l.3-1.39h-.35c-.88,0-1.78.02-2.66.08v-.64c-.1.06-.16.08-.38.1-.19.5-.53,1.09-.9,1.46l-1.25-.53c.42-.51.91-1.3,1.1-1.92l1.42.58v-.35c.88.06,1.75.11,2.62.11h2.18c.86,0,1.87-.06,2.72-.18v1.38c-.9-.08-1.81-.08-2.71-.08h-.27l-.4,1.39h.77c.72,0,1.44-.02,2.16-.1-.05.94-.06,1.89-.06,2.85v2.77c0,.94.02,1.89.06,2.83-.72-.08-1.44-.1-2.16-.1h-2.18c-.19,0-.4,0-.59.02l1.2.74Zm-1.28-6.64h3.52v-1.14h-3.52v1.14Zm0,2.32h3.52v-1.15h-3.52v1.15Zm0,2.34h3.52v-1.17h-3.52v1.17Zm2.5,2.16l1.15-.91c.62.96,1.36,1.57,2.35,2.1l-1.07,1.04c-1.06-.54-1.79-1.23-2.43-2.22Z"/></g></svg>